<?xml version="1.0" encoding="UTF-8" standalone="no"?>
<svg
   xmlns:dc="http://purl.org/dc/elements/1.1/"
   xmlns:cc="http://creativecommons.org/ns#"
   xmlns:rdf="http://www.w3.org/1999/02/22-rdf-syntax-ns#"
   xmlns:svg="http://www.w3.org/2000/svg"
   xmlns="http://www.w3.org/2000/svg"
   version="1.1"
   width="6.0251498cm"
   height="5.8337336cm"
   viewBox="0 0 23721.062 22967.456"
   id="svg412">
  <metadata
     id="metadata418">
    <rdf:RDF>
      <cc:Work
         rdf:about="">
        <dc:format>image/svg+xml</dc:format>
        <dc:type
           rdf:resource="http://purl.org/dc/dcmitype/StillImage" />
      </cc:Work>
    </rdf:RDF>
  </metadata>
  <defs
     id="defs416" />
  <title
     id="title2">SVG Picture created as 74HC14-pull-down.svg date 2021/05/22 12:08:35 </title>
  <desc
     id="desc4">Picture generated by Eeschema-SVG </desc>
  <g
     style="fill:#000000;fill-opacity:1;stroke:#000000;stroke-linecap:round;stroke-linejoin:round;stroke-opacity:1"
     id="g6"
     transform="translate(-53332.992,-18258.992)" />
  <g
     style="fill:#000000;fill-opacity:0;stroke:#000000;stroke-width:60;stroke-linecap:round;stroke-linejoin:round;stroke-opacity:1"
     id="g32"
     transform="translate(-53332.992,-18258.992)">
    <g
       id="g8" />
    <g
       style="fill:#840000;fill-opacity:0;stroke:#840000;stroke-width:60;stroke-linecap:round;stroke-linejoin:round;stroke-opacity:1"
       id="g16">
      <path
         style="fill:none;fill-opacity:0;stroke:#840000;stroke-width:60;stroke-linecap:round;stroke-linejoin:round;stroke-opacity:1"
         d="m 63200,23500 300,-500"
         id="path10" />
      <path
         style="fill:none;fill-opacity:0;stroke:#840000;stroke-width:60;stroke-linecap:round;stroke-linejoin:round;stroke-opacity:1"
         d="M 63500,24000 V 23000"
         id="path12" />
      <path
         style="fill:none;fill-opacity:0;stroke:#840000;stroke-width:60;stroke-linecap:round;stroke-linejoin:round;stroke-opacity:1"
         d="m 63500,23000 300,500"
         id="path14" />
    </g>
    <g
       style="fill:#008484;fill-opacity:0;stroke:#008484;stroke-width:60;stroke-linecap:round;stroke-linejoin:round;stroke-opacity:1"
       id="g30">
      <text
         x="63500"
         y="22750"
         textLength="1491.1024"
         font-size="666.654px"
         lengthAdjust="spacingAndGlyphs"
         text-anchor="middle"
         opacity="0"
         id="text18">VCC</text>
      <g
         class="stroked-text"
         id="g28">
        <desc
           id="desc20">VCC</desc>
        <path
           d="m 62833,22226 167,500 166,-500"
           id="path22" />
        <path
           d="m 63619,22678 -24,24 -72,24 h -47 l -72,-24 -47,-48 -24,-47 -24,-96 v -71 l 24,-95 24,-48 47,-47 72,-24 h 47 l 72,24 24,23"
           id="path24" />
        <path
           d="m 64119,22678 -24,24 -72,24 h -47 l -72,-24 -47,-48 -24,-47 -24,-96 v -71 l 24,-95 24,-48 47,-47 72,-24 h 47 l 72,24 24,23"
           id="path26" />
      </g>
    </g>
  </g>
  <g
     style="fill:#008484;fill-opacity:0;stroke:#008484;stroke-width:60;stroke-linecap:round;stroke-linejoin:round;stroke-opacity:1"
     id="g64"
     transform="translate(-53332.992,-18258.992)">
    <g
       id="g34" />
    <g
       style="fill:#840000;fill-opacity:0;stroke:#840000;stroke-width:60;stroke-linecap:round;stroke-linejoin:round;stroke-opacity:1"
       id="g36" />
    <g
       style="fill:#840000;fill-opacity:0;stroke:#840000;stroke-width:200;stroke-linecap:round;stroke-linejoin:round;stroke-opacity:1"
       id="g42">
      <path
         style="fill:none;fill-opacity:0;stroke:#840000;stroke-width:200;stroke-linecap:round;stroke-linejoin:round;stroke-opacity:1"
         d="m 62700,26300 h 1600"
         id="path38" />
      <path
         style="fill:none;fill-opacity:0;stroke:#840000;stroke-width:200;stroke-linecap:round;stroke-linejoin:round;stroke-opacity:1"
         d="m 62700,25700 h 1600"
         id="path40" />
    </g>
    <g
       style="fill:#840000;fill-opacity:0;stroke:#840000;stroke-width:60;stroke-linecap:round;stroke-linejoin:round;stroke-opacity:1"
       id="g48">
      <path
         d="M 63500,25600 V 24500"
         id="path44" />
      <path
         d="m 63500,26400 v 1100"
         id="path46" />
    </g>
    <g
       style="fill:#008484;fill-opacity:0;stroke:#008484;stroke-width:60;stroke-linecap:round;stroke-linejoin:round;stroke-opacity:1"
       id="g62">
      <text
         x="65519.332"
         y="25999.961"
         textLength="1036.1812"
         font-size="666.654px"
         lengthAdjust="spacingAndGlyphs"
         text-anchor="middle"
         opacity="0"
         id="text50">C1</text>
      <g
         class="stroked-text"
         id="g60">
        <desc
           id="desc52">C1</desc>
        <path
           d="m 65435,25928 -23,24 -72,24 h -47 l -72,-24 -47,-48 -24,-47 -24,-96 v -71 l 24,-95 24,-48 47,-48 72,-23 h 47 l 72,23 23,24"
           id="path54" />
        <path
           d="m 65912,25976 h -286"
           id="path56" />
        <path
           d="m 65769,25976 v -500 l -48,71 -47,48 -48,23"
           id="path58" />
      </g>
    </g>
  </g>
  <g
     style="fill:#008484;fill-opacity:0;stroke:#008484;stroke-width:60;stroke-linecap:round;stroke-linejoin:round;stroke-opacity:1"
     id="g90"
     transform="translate(-53332.992,-18258.992)">
    <g
       id="g66" />
    <g
       style="fill:#840000;fill-opacity:0;stroke:#840000;stroke-width:60;stroke-linecap:round;stroke-linejoin:round;stroke-opacity:1"
       id="g74">
      <path
         style="fill:none;fill-opacity:0;stroke:#840000;stroke-width:60;stroke-linecap:round;stroke-linejoin:round;stroke-opacity:1"
         d="m 58200,23500 300,-500"
         id="path68" />
      <path
         style="fill:none;fill-opacity:0;stroke:#840000;stroke-width:60;stroke-linecap:round;stroke-linejoin:round;stroke-opacity:1"
         d="M 58500,24000 V 23000"
         id="path70" />
      <path
         style="fill:none;fill-opacity:0;stroke:#840000;stroke-width:60;stroke-linecap:round;stroke-linejoin:round;stroke-opacity:1"
         d="m 58500,23000 300,500"
         id="path72" />
    </g>
    <g
       style="fill:#008484;fill-opacity:0;stroke:#008484;stroke-width:60;stroke-linecap:round;stroke-linejoin:round;stroke-opacity:1"
       id="g88">
      <text
         x="58500"
         y="22750"
         textLength="1488.5826"
         font-size="666.654px"
         lengthAdjust="spacingAndGlyphs"
         text-anchor="middle"
         opacity="0"
         id="text76">VCC</text>
      <g
         class="stroked-text"
         id="g86">
        <desc
           id="desc78">VCC</desc>
        <path
           d="m 57833,22226 167,500 166,-500"
           id="path80" />
        <path
           d="m 58619,22678 -24,24 -72,24 h -47 l -72,-24 -47,-48 -24,-47 -24,-96 v -71 l 24,-95 24,-48 47,-47 72,-24 h 47 l 72,24 24,23"
           id="path82" />
        <path
           d="m 59119,22678 -24,24 -72,24 h -47 l -72,-24 -47,-48 -24,-47 -24,-96 v -71 l 24,-95 24,-48 47,-47 72,-24 h 47 l 72,24 24,23"
           id="path84" />
      </g>
    </g>
  </g>
  <g
     style="fill:#008484;fill-opacity:0;stroke:#008484;stroke-width:60;stroke-linecap:round;stroke-linejoin:round;stroke-opacity:1"
     id="g140"
     transform="translate(-53332.992,-18258.992)">
    <g
       id="g92" />
    <g
       style="fill:#840000;fill-opacity:0;stroke:#840000;stroke-width:60;stroke-linecap:round;stroke-linejoin:round;stroke-opacity:1"
       id="g94" />
    <g
       style="fill:#840000;fill-opacity:0;stroke:#840000;stroke-width:8.34646;stroke-linecap:round;stroke-linejoin:round;stroke-opacity:1"
       id="g100">
      <circle
         cx="58500"
         cy="26800"
         r="200"
         id="circle96" />
      <circle
         cx="58500"
         cy="25200"
         r="200"
         id="circle98" />
    </g>
    <g
       style="fill:#840000;fill-opacity:0;stroke:#840000;stroke-width:60;stroke-linecap:round;stroke-linejoin:round;stroke-opacity:1"
       id="g110">
      <path
         style="fill:none;fill-opacity:0;stroke:#840000;stroke-width:60;stroke-linecap:round;stroke-linejoin:round;stroke-opacity:1"
         d="m 58000,26000 h -700"
         id="path102" />
      <path
         style="fill:none;fill-opacity:0;stroke:#840000;stroke-width:60;stroke-linecap:round;stroke-linejoin:round;stroke-opacity:1"
         d="m 58000,25000 v 2000"
         id="path104" />
      <path
         d="m 58500,27000 v 1000"
         id="path106" />
      <path
         d="M 58500,25000 V 24000"
         id="path108" />
    </g>
    <g
       style="fill:#008484;fill-opacity:0;stroke:#008484;stroke-width:60;stroke-linecap:round;stroke-linejoin:round;stroke-opacity:1"
       id="g138">
      <text
         x="60245.551"
         y="25999.922"
         textLength="2488.5828"
         font-size="666.654px"
         lengthAdjust="spacingAndGlyphs"
         text-anchor="middle"
         opacity="0"
         id="text112">Button</text>
      <g
         class="stroked-text"
         id="g136">
        <desc
           id="desc114">Button</desc>
        <path
           d="m 59316,25714 72,23 24,24 24,48 v 71 l -24,48 -24,24 -48,24 h -190 v -500 h 166 l 48,23 24,24 24,48 v 47 l -24,48 -24,24 -48,24 h -166"
           id="path116" />
        <path
           d="m 59864,25642 v 334"
           id="path118" />
        <path
           d="m 59650,25642 v 262 l 24,48 47,24 h 72 l 47,-24 24,-24"
           id="path120" />
        <path
           d="m 60031,25642 h 190"
           id="path122" />
        <path
           d="m 60102,25476 v 428 l 24,48 48,24 h 47"
           id="path124" />
        <path
           d="m 60316,25642 h 191"
           id="path126" />
        <path
           d="m 60388,25476 v 428 l 24,48 47,24 h 48"
           id="path128" />
        <path
           d="m 60745,25976 -48,-24 -23,-24 -24,-48 v -143 l 24,-47 23,-24 48,-24 h 71 l 48,24 24,24 24,47 v 143 l -24,48 -24,24 -48,24 h -71"
           id="path130" />
        <path
           d="m 61126,25642 v 334"
           id="path132" />
        <path
           d="m 61126,25690 24,-24 47,-24 h 72 l 47,24 24,48 v 262"
           id="path134" />
      </g>
    </g>
  </g>
  <g
     style="fill:#008484;fill-opacity:0;stroke:#008484;stroke-width:60;stroke-linecap:round;stroke-linejoin:round;stroke-opacity:1"
     id="g192"
     transform="translate(-53332.992,-18258.992)">
    <g
       id="g142" />
    <g
       style="fill:#840000;fill-opacity:0;stroke:#840000;stroke-width:60;stroke-linecap:round;stroke-linejoin:round;stroke-opacity:1"
       id="g144" />
    <g
       style="fill:#840000;fill-opacity:0;stroke:#840000;stroke-width:100;stroke-linecap:round;stroke-linejoin:round;stroke-opacity:1"
       id="g148">
      <path
         style="fill:none;fill-opacity:0;stroke:#840000;stroke-width:100;stroke-linecap:round;stroke-linejoin:round;stroke-opacity:1"
         d="m 60500,28500 v 1000"
         id="path146" />
    </g>
    <g
       style="fill:#840000;fill-opacity:0;stroke:#840000;stroke-width:60;stroke-linecap:round;stroke-linejoin:round;stroke-opacity:1"
       id="g152">
      <path
         style="fill:none;fill-opacity:0;stroke:#840000;stroke-width:60;stroke-linecap:round;stroke-linejoin:round;stroke-opacity:1"
         d="M 61500,29000 H 60500"
         id="path150" />
    </g>
    <g
       style="fill:#840000;fill-opacity:0;stroke:#840000;stroke-width:100;stroke-linecap:round;stroke-linejoin:round;stroke-opacity:1"
       id="g156">
      <path
         style="fill:none;fill-opacity:0;stroke:#840000;stroke-width:100;stroke-linecap:round;stroke-linejoin:round;stroke-opacity:1"
         d="m 61500,28500 v 1000 l -1000,-500 z"
         id="path154" />
    </g>
    <g
       style="fill:#840000;fill-opacity:0;stroke:#840000;stroke-width:60;stroke-linecap:round;stroke-linejoin:round;stroke-opacity:1"
       id="g162">
      <path
         d="M 60500,29000 H 59500"
         id="path158" />
      <path
         d="m 61500,29000 h 1000"
         id="path160" />
    </g>
    <g
       style="fill:#008484;fill-opacity:0;stroke:#008484;stroke-width:60;stroke-linecap:round;stroke-linejoin:round;stroke-opacity:1"
       id="g190">
      <text
         x="61000"
         y="28250"
         textLength="2964.7637"
         font-size="666.654px"
         lengthAdjust="spacingAndGlyphs"
         text-anchor="middle"
         opacity="0"
         id="text164">1N4148</text>
      <g
         class="stroked-text"
         id="g188">
        <desc
           id="desc166">1N4148</desc>
        <path
           d="m 59928,28226 h -286"
           id="path168" />
        <path
           d="m 59785,28226 v -500 l -47,71 -48,48 -48,24"
           id="path170" />
        <path
           d="m 60142,28226 v -500 l 286,500 v -500"
           id="path172" />
        <path
           d="m 60880,27892 v 334"
           id="path174" />
        <path
           d="m 60761,27702 -119,357 h 310"
           id="path176" />
        <path
           d="m 61404,28226 h -285"
           id="path178" />
        <path
           d="m 61261,28226 v -500 l -47,71 -48,48 -47,24"
           id="path180" />
        <path
           d="m 61833,27892 v 334"
           id="path182" />
        <path
           d="m 61714,27702 -119,357 h 309"
           id="path184" />
        <path
           d="m 62166,27940 -47,-24 -24,-24 -24,-47 v -24 l 24,-48 24,-23 47,-24 h 95 l 48,24 24,23 24,48 v 24 l -24,47 -24,24 -48,24 h -95 l -47,24 -24,24 -24,47 v 95 l 24,48 24,24 47,24 h 95 l 48,-24 24,-24 24,-48 v -95 l -24,-47 -24,-24 -48,-24"
           id="path186" />
      </g>
    </g>
  </g>
  <g
     style="fill:#008484;fill-opacity:0;stroke:#008484;stroke-width:60;stroke-linecap:round;stroke-linejoin:round;stroke-opacity:1"
     id="g272"
     transform="translate(-53332.992,-18258.992)">
    <g
       id="g194" />
    <g
       style="fill:#840000;fill-opacity:0;stroke:#840000;stroke-width:60;stroke-linecap:round;stroke-linejoin:round;stroke-opacity:1"
       id="g196" />
    <g
       style="fill:#ffffc2;fill-opacity:0;stroke:#ffffc2;stroke-width:60;stroke-linecap:round;stroke-linejoin:round;stroke-opacity:1"
       id="g198" />
    <g
       style="fill:#ffffc2;fill-opacity:0.6;stroke:#ffffc2;stroke-width:0.03937;stroke-linecap:round;stroke-linejoin:round;stroke-opacity:1"
       id="g202">
      <path
         style="fill:#ffffc2;fill-opacity:0.6;fill-rule:evenodd;stroke:#ffffc2;stroke-width:0.03937;stroke-linecap:round;stroke-linejoin:round;stroke-opacity:1"
         d="m 66000,27500 v 3000 l 3000,-1500 z"
         id="path200" />
    </g>
    <g
       style="fill:#840000;fill-opacity:0.6;stroke:#840000;stroke-width:0.03937;stroke-linecap:round;stroke-linejoin:round;stroke-opacity:1"
       id="g204" />
    <g
       style="fill:#840000;fill-opacity:0;stroke:#840000;stroke-width:100;stroke-linecap:round;stroke-linejoin:round;stroke-opacity:1"
       id="g210">
      <path
         style="fill:none;fill-opacity:0;stroke:#840000;stroke-width:100;stroke-linecap:round;stroke-linejoin:round;stroke-opacity:1"
         d="m 66000,27500 v 3000 l 3000,-1500 z"
         id="path206" />
      <path
         style="fill:none;fill-opacity:0;stroke:#840000;stroke-width:100;stroke-linecap:round;stroke-linejoin:round;stroke-opacity:1"
         d="m 66000,27500 v 3000 l 3000,-1500 z"
         id="path208" />
    </g>
    <g
       style="fill:#840000;fill-opacity:0;stroke:#840000;stroke-width:60;stroke-linecap:round;stroke-linejoin:round;stroke-opacity:1"
       id="g240">
      <path
         style="fill:none;fill-opacity:0;stroke:#840000;stroke-width:60;stroke-linecap:round;stroke-linejoin:round;stroke-opacity:1"
         d="m 66750,29500 v -1000 h 500"
         id="path212" />
      <path
         style="fill:none;fill-opacity:0;stroke:#840000;stroke-width:60;stroke-linecap:round;stroke-linejoin:round;stroke-opacity:1"
         d="m 66500,29500 h 750 v -1000 h 250"
         id="path214" />
      <path
         d="M 66000,29000 H 64500"
         id="path216" />
      <text
         x="65250"
         y="28900"
         textLength="536.18109"
         font-size="666.654px"
         lengthAdjust="spacingAndGlyphs"
         text-anchor="middle"
         opacity="0"
         id="text218">1</text>
      <g
         class="stroked-text"
         id="g226">
        <desc
           id="desc220">1</desc>
        <path
           d="m 65392,28876 h -285"
           id="path222" />
        <path
           d="m 65250,28876 v -500 l -48,71 -48,48 -47,24"
           id="path224" />
      </g>
      <circle
         cx="69250"
         cy="29000"
         r="250"
         id="circle228" />
      <path
         d="m 69500,29000 h 1000"
         id="path230" />
      <text
         x="69750"
         y="28900"
         textLength="536.18109"
         font-size="666.654px"
         lengthAdjust="spacingAndGlyphs"
         text-anchor="middle"
         opacity="0"
         id="text232">2</text>
      <g
         class="stroked-text"
         id="g238">
        <desc
           id="desc234">2</desc>
        <path
           d="m 69607,28423 23,-23 48,-24 h 119 l 48,24 24,23 23,48 v 48 l -23,71 -286,286 h 309"
           id="path236" />
      </g>
    </g>
    <g
       style="fill:#008484;fill-opacity:0;stroke:#008484;stroke-width:60;stroke-linecap:round;stroke-linejoin:round;stroke-opacity:1"
       id="g270">
      <text
         x="67500"
         y="27250"
         textLength="2988.5828"
         font-size="666.654px"
         lengthAdjust="spacingAndGlyphs"
         text-anchor="middle"
         opacity="0"
         id="text242">74HC14</text>
      <g
         class="stroked-text"
         id="g268">
        <desc
           id="desc244">74HC14</desc>
        <path
           d="m 66107,26726 h 333 l -214,500"
           id="path246" />
        <path
           d="m 66845,26892 v 334"
           id="path248" />
        <path
           d="m 66726,26702 -119,357 h 309"
           id="path250" />
        <path
           d="m 67107,27226 v -500"
           id="path252" />
        <path
           d="m 67107,26964 h 285"
           id="path254" />
        <path
           d="m 67392,27226 v -500"
           id="path256" />
        <path
           d="m 67916,27178 -24,24 -71,24 h -48 l -71,-24 -48,-48 -24,-47 -23,-96 v -71 l 23,-95 24,-48 48,-47 71,-24 h 48 l 71,24 24,23"
           id="path258" />
        <path
           d="m 68392,27226 h -285"
           id="path260" />
        <path
           d="m 68250,27226 v -500 l -48,71 -48,48 -47,24"
           id="path262" />
        <path
           d="m 68821,26892 v 334"
           id="path264" />
        <path
           d="m 68702,26702 -119,357 h 309"
           id="path266" />
      </g>
    </g>
  </g>
  <g
     style="fill:#008484;fill-opacity:0;stroke:#008484;stroke-width:60;stroke-linecap:round;stroke-linejoin:round;stroke-opacity:1"
     id="g302"
     transform="translate(-53332.992,-18258.992)">
    <g
       id="g274" />
    <g
       style="fill:#840000;fill-opacity:0;stroke:#840000;stroke-width:60;stroke-linecap:round;stroke-linejoin:round;stroke-opacity:1"
       id="g276" />
    <g
       style="fill:#840000;fill-opacity:0;stroke:#840000;stroke-width:100;stroke-linecap:round;stroke-linejoin:round;stroke-opacity:1"
       id="g280">
      <rect
         x="60000"
         y="30600"
         width="2000"
         height="800"
         rx="0.000000"
         id="rect278" />
    </g>
    <g
       style="fill:#840000;fill-opacity:0;stroke:#840000;stroke-width:60;stroke-linecap:round;stroke-linejoin:round;stroke-opacity:1"
       id="g286">
      <path
         d="m 60000,31000 h -500"
         id="path282" />
      <path
         d="m 62000,31000 h 500"
         id="path284" />
    </g>
    <g
       style="fill:#008484;fill-opacity:0;stroke:#008484;stroke-width:60;stroke-linecap:round;stroke-linejoin:round;stroke-opacity:1"
       id="g300">
      <text
         x="60999.961"
         y="30249.961"
         textLength="1036.1812"
         font-size="666.654px"
         lengthAdjust="spacingAndGlyphs"
         text-anchor="middle"
         opacity="0"
         id="text288">R2</text>
      <g
         class="stroked-text"
         id="g298">
        <desc
           id="desc290">R2</desc>
        <path
           d="m 60916,30226 -167,-238"
           id="path292" />
        <path
           d="m 60630,30226 v -500 h 191 l 47,23 24,24 24,48 v 71 l -24,48 -24,24 -47,24 h -191"
           id="path294" />
        <path
           d="m 61107,29773 23,-24 48,-23 h 119 l 48,23 23,24 24,48 v 47 l -24,72 -285,286 h 309"
           id="path296" />
      </g>
    </g>
  </g>
  <g
     style="fill:#008484;fill-opacity:0;stroke:#008484;stroke-width:60;stroke-linecap:round;stroke-linejoin:round;stroke-opacity:1"
     id="g324"
     transform="translate(-53332.992,-18258.992)">
    <g
       id="g304" />
    <g
       style="fill:#840000;fill-opacity:0;stroke:#840000;stroke-width:60;stroke-linecap:round;stroke-linejoin:round;stroke-opacity:1"
       id="g308">
      <path
         style="fill:none;fill-opacity:0;stroke:#840000;stroke-width:60;stroke-linecap:round;stroke-linejoin:round;stroke-opacity:1"
         d="m 58500,35000 v 500 h 500 l -500,500 -500,-500 h 500"
         id="path306" />
    </g>
    <g
       style="fill:#008484;fill-opacity:0;stroke:#008484;stroke-width:60;stroke-linecap:round;stroke-linejoin:round;stroke-opacity:1"
       id="g322">
      <text
         x="58500"
         y="37250"
         textLength="1583.8188"
         font-size="666.654px"
         lengthAdjust="spacingAndGlyphs"
         text-anchor="middle"
         opacity="0"
         id="text310">GND</text>
      <g
         class="stroked-text"
         id="g320">
        <desc
           id="desc312">GND</desc>
        <path
           d="m 58119,36750 -48,-24 h -71 l -72,24 -48,47 -23,48 -24,95 v 71 l 24,96 23,47 48,48 72,24 h 47 l 72,-24 23,-24 v -167 h -95"
           id="path314" />
        <path
           d="m 58357,37226 v -500 l 285,500 v -500"
           id="path316" />
        <path
           d="m 58880,37226 v -500 h 120 l 71,24 48,47 23,48 24,95 v 71 l -24,96 -23,47 -48,48 -71,24 h -120"
           id="path318" />
      </g>
    </g>
  </g>
  <g
     style="fill:#008484;fill-opacity:0;stroke:#008484;stroke-width:60;stroke-linecap:round;stroke-linejoin:round;stroke-opacity:1"
     id="g356"
     transform="translate(-53332.992,-18258.992)">
    <g
       id="g326" />
    <g
       style="fill:#840000;fill-opacity:0;stroke:#840000;stroke-width:60;stroke-linecap:round;stroke-linejoin:round;stroke-opacity:1"
       id="g328" />
    <g
       style="fill:#840000;fill-opacity:0;stroke:#840000;stroke-width:100;stroke-linecap:round;stroke-linejoin:round;stroke-opacity:1"
       id="g332">
      <rect
         x="58100"
         y="32500"
         width="800"
         height="2000"
         rx="0.000000"
         id="rect330" />
    </g>
    <g
       style="fill:#840000;fill-opacity:0;stroke:#840000;stroke-width:60;stroke-linecap:round;stroke-linejoin:round;stroke-opacity:1"
       id="g338">
      <path
         d="m 58500,32500 v -500"
         id="path334" />
      <path
         d="m 58500,34500 v 500"
         id="path336" />
    </g>
    <g
       style="fill:#008484;fill-opacity:0;stroke:#008484;stroke-width:60;stroke-linecap:round;stroke-linejoin:round;stroke-opacity:1"
       id="g354">
      <text
         x="60019.332"
         y="33499.961"
         textLength="1036.1812"
         font-size="666.654px"
         lengthAdjust="spacingAndGlyphs"
         text-anchor="middle"
         opacity="0"
         id="text340">R1</text>
      <g
         class="stroked-text"
         id="g352">
        <desc
           id="desc342">R1</desc>
        <path
           d="m 59935,33476 -166,-238"
           id="path344" />
        <path
           d="m 59650,33476 v -500 h 190 l 48,23 24,24 23,48 v 71 l -23,48 -24,24 -48,24 h -190"
           id="path346" />
        <path
           d="m 60412,33476 h -286"
           id="path348" />
        <path
           d="m 60269,33476 v -500 l -48,71 -47,48 -48,23"
           id="path350" />
      </g>
    </g>
  </g>
  <g
     style="fill:#008484;fill-opacity:0;stroke:#008484;stroke-width:62.5197;stroke-linecap:round;stroke-linejoin:round;stroke-opacity:1"
     id="g358"
     transform="translate(-53332.992,-18258.992)" />
  <g
     style="fill:#008484;fill-opacity:0;stroke:#008484;stroke-width:60;stroke-linecap:round;stroke-linejoin:round;stroke-opacity:1"
     id="g360"
     transform="translate(-53332.992,-18258.992)" />
  <g
     style="fill:#840000;fill-opacity:0;stroke:#840000;stroke-width:60;stroke-linecap:round;stroke-linejoin:round;stroke-opacity:1"
     id="g378"
     transform="translate(-53332.992,-18258.992)">
    <text
       x="70650"
       y="29250"
       textLength="1821.8898"
       font-size="666.654px"
       lengthAdjust="spacingAndGlyphs"
       text-anchor="start"
       opacity="0"
       id="text362">GPIO</text>
    <g
       class="stroked-text"
       id="g374">
      <desc
         id="desc364">GPIO</desc>
      <path
         d="m 71060,28750 -47,-24 h -72 l -71,24 -48,47 -23,48 -24,95 v 71 l 24,96 23,47 48,48 71,24 h 48 l 71,-24 24,-24 v -167 h -95"
         id="path366" />
      <path
         d="m 71299,29226 v -500 h 190 l 48,24 23,23 24,48 v 71 l -24,48 -23,24 -48,24 h -190"
         id="path368" />
      <path
         d="m 71799,29226 v -500"
         id="path370" />
      <path
         d="m 72132,28726 h 95 l 48,24 47,47 24,95 v 167 l -24,95 -47,48 -48,24 h -95 l -48,-24 -47,-48 -24,-95 v -167 l 24,-95 47,-47 48,-24"
         id="path372" />
    </g>
    <path
       style="fill:none;fill-opacity:0;stroke:#840000;stroke-width:60;stroke-linecap:round;stroke-linejoin:round;stroke-opacity:1"
       d="m 70500,29000 v 462.638 h 2187.047 l 400,-462.638 -400,-462.638 H 70500 Z"
       id="path376" />
  </g>
  <g
     style="fill:#008400;fill-opacity:0;stroke:#008400;stroke-width:60;stroke-linecap:round;stroke-linejoin:round;stroke-opacity:1"
     id="g402"
     transform="translate(-53332.992,-18258.992)">
    <path
       d="m 63500,29000 h 1000"
       id="path380" />
    <path
       d="M 63500,29000 H 62500"
       id="path382" />
    <path
       d="m 63500,24000 v 500"
       id="path384" />
    <path
       d="m 63500,27500 v 1500"
       id="path386" />
    <path
       d="M 58500,29000 V 28000"
       id="path388" />
    <path
       d="M 59500,29000 H 58500"
       id="path390" />
    <path
       d="M 63500,31000 V 29000"
       id="path392" />
    <path
       d="m 62500,31000 h 1000"
       id="path394" />
    <path
       d="m 58500,31000 v 1000"
       id="path396" />
    <path
       d="M 58500,31000 V 29000"
       id="path398" />
    <path
       d="M 59500,31000 H 58500"
       id="path400" />
  </g>
  <g
     style="fill:#008400;fill-opacity:1;stroke:#008400;stroke-width:60;stroke-linecap:round;stroke-linejoin:round;stroke-opacity:1"
     id="g410"
     transform="translate(-53332.992,-18258.992)">
    <circle
       cx="63500"
       cy="29000"
       r="180"
       id="circle404" />
    <circle
       cx="58500"
       cy="29000"
       r="180"
       id="circle406" />
    <circle
       cx="58500"
       cy="31000"
       r="180"
       id="circle408" />
  </g>
</svg>
