<?xml version="1.0" encoding="UTF-8" standalone="no"?>
<svg
   xmlns:dc="http://purl.org/dc/elements/1.1/"
   xmlns:cc="http://creativecommons.org/ns#"
   xmlns:rdf="http://www.w3.org/1999/02/22-rdf-syntax-ns#"
   xmlns:svg="http://www.w3.org/2000/svg"
   xmlns="http://www.w3.org/2000/svg"
   version="1.1"
   width="6.0251498cm"
   height="5.8337336cm"
   viewBox="0 0 23721.062 22967.456"
   id="svg428">
  <metadata
     id="metadata434">
    <rdf:RDF>
      <cc:Work
         rdf:about="">
        <dc:format>image/svg+xml</dc:format>
        <dc:type
           rdf:resource="http://purl.org/dc/dcmitype/StillImage" />
      </cc:Work>
    </rdf:RDF>
  </metadata>
  <defs
     id="defs432" />
  <title
     id="title2">SVG Picture created as 74HC14-pull-up.svg date 2021/05/21 12:51:40 </title>
  <desc
     id="desc4">Picture generated by Eeschema-SVG </desc>
  <g
     style="fill:#000000;fill-opacity:1;stroke:#000000;stroke-linecap:round;stroke-linejoin:round;stroke-opacity:1"
     id="g6"
     transform="translate(-22832.992,-30758.992)" />
  <g
     style="fill:#000000;fill-opacity:0;stroke:#000000;stroke-width:60;stroke-linecap:round;stroke-linejoin:round;stroke-opacity:1"
     id="g28"
     transform="translate(-22832.992,-30758.992)">
    <g
       id="g8" />
    <g
       style="fill:#840000;fill-opacity:0;stroke:#840000;stroke-width:60;stroke-linecap:round;stroke-linejoin:round;stroke-opacity:1"
       id="g12">
      <path
         style="fill:none;fill-opacity:0;stroke:#840000;stroke-width:60;stroke-linecap:round;stroke-linejoin:round;stroke-opacity:1"
         d="m 33000,47500 v 500 h 500 l -500,500 -500,-500 h 500"
         id="path10" />
    </g>
    <g
       style="fill:#008484;fill-opacity:0;stroke:#008484;stroke-width:60;stroke-linecap:round;stroke-linejoin:round;stroke-opacity:1"
       id="g26">
      <text
         x="33000"
         y="49750"
         textLength="1586.3386"
         font-size="666.654px"
         lengthAdjust="spacingAndGlyphs"
         text-anchor="middle"
         opacity="0"
         id="text14">GND</text>
      <g
         class="stroked-text"
         id="g24">
        <desc
           id="desc16">GND</desc>
        <path
           d="m 32619,49250 -48,-24 h -71 l -72,24 -48,47 -23,48 -24,95 v 71 l 24,96 23,47 48,48 72,24 h 47 l 72,-24 23,-24 v -167 h -95"
           id="path18" />
        <path
           d="m 32857,49726 v -500 l 285,500 v -500"
           id="path20" />
        <path
           d="m 33380,49726 v -500 h 120 l 71,24 48,47 23,48 24,95 v 71 l -24,96 -23,47 -48,48 -71,24 h -120"
           id="path22" />
      </g>
    </g>
  </g>
  <g
     style="fill:#008484;fill-opacity:0;stroke:#008484;stroke-width:60;stroke-linecap:round;stroke-linejoin:round;stroke-opacity:1"
     id="g70"
     transform="translate(-22832.992,-30758.992)">
    <g
       id="g30" />
    <g
       style="fill:#840000;fill-opacity:0;stroke:#840000;stroke-width:60;stroke-linecap:round;stroke-linejoin:round;stroke-opacity:1"
       id="g32" />
    <g
       style="fill:#840000;fill-opacity:0;stroke:#840000;stroke-width:200;stroke-linecap:round;stroke-linejoin:round;stroke-opacity:1"
       id="g38">
      <path
         style="fill:none;fill-opacity:0;stroke:#840000;stroke-width:200;stroke-linecap:round;stroke-linejoin:round;stroke-opacity:1"
         d="m 32200,45800 h 1600"
         id="path34" />
      <path
         style="fill:none;fill-opacity:0;stroke:#840000;stroke-width:200;stroke-linecap:round;stroke-linejoin:round;stroke-opacity:1"
         d="m 32200,45200 h 1600"
         id="path36" />
    </g>
    <g
       style="fill:#840000;fill-opacity:0;stroke:#840000;stroke-width:60;stroke-linecap:round;stroke-linejoin:round;stroke-opacity:1"
       id="g44">
      <path
         d="M 33000,45100 V 44000"
         id="path40" />
      <path
         d="m 33000,45900 v 1100"
         id="path42" />
    </g>
    <g
       style="fill:#008484;fill-opacity:0;stroke:#008484;stroke-width:60;stroke-linecap:round;stroke-linejoin:round;stroke-opacity:1"
       id="g68">
      <text
         x="35686.023"
         y="46499.961"
         textLength="2369.5276"
         font-size="666.654px"
         lengthAdjust="spacingAndGlyphs"
         text-anchor="middle"
         opacity="0"
         id="text46">100nF</text>
      <g
         class="stroked-text"
         id="g66">
        <desc
           id="desc48">100nF</desc>
        <path
           d="m 34912,46476 h -286"
           id="path50" />
        <path
           d="m 34769,46476 v -500 l -48,71 -47,48 -48,23"
           id="path52" />
        <path
           d="m 35221,45976 h 48 l 47,23 24,24 24,48 24,95 v 119 l -24,95 -24,48 -24,24 -47,24 h -48 l -47,-24 -24,-24 -24,-48 -24,-95 v -119 l 24,-95 24,-48 24,-24 47,-23"
           id="path54" />
        <path
           d="m 35697,45976 h 48 l 48,23 23,24 24,48 24,95 v 119 l -24,95 -24,48 -23,24 -48,24 h -48 l -47,-24 -24,-24 -24,-48 -24,-95 v -119 l 24,-95 24,-48 24,-24 47,-23"
           id="path56" />
        <path
           d="m 36078,46142 v 334"
           id="path58" />
        <path
           d="m 36078,46190 24,-24 48,-24 h 71 l 48,24 24,48 v 262"
           id="path60" />
        <path
           d="m 36697,46214 h -166"
           id="path62" />
        <path
           d="m 36531,46476 v -500 h 238"
           id="path64" />
      </g>
    </g>
  </g>
  <g
     style="fill:#008484;fill-opacity:0;stroke:#008484;stroke-width:60;stroke-linecap:round;stroke-linejoin:round;stroke-opacity:1"
     id="g104"
     transform="translate(-22832.992,-30758.992)">
    <g
       id="g72" />
    <g
       style="fill:#840000;fill-opacity:0;stroke:#840000;stroke-width:60;stroke-linecap:round;stroke-linejoin:round;stroke-opacity:1"
       id="g74" />
    <g
       style="fill:#840000;fill-opacity:0;stroke:#840000;stroke-width:100;stroke-linecap:round;stroke-linejoin:round;stroke-opacity:1"
       id="g78">
      <rect
         x="29500"
         y="42100"
         width="2000"
         height="800"
         rx="0.000000"
         id="rect76" />
    </g>
    <g
       style="fill:#840000;fill-opacity:0;stroke:#840000;stroke-width:60;stroke-linecap:round;stroke-linejoin:round;stroke-opacity:1"
       id="g84">
      <path
         d="m 29500,42500 h -500"
         id="path80" />
      <path
         d="m 31500,42500 h 500"
         id="path82" />
    </g>
    <g
       style="fill:#008484;fill-opacity:0;stroke:#008484;stroke-width:60;stroke-linecap:round;stroke-linejoin:round;stroke-opacity:1"
       id="g102">
      <text
         x="30499.961"
         y="42749.961"
         textLength="1036.1812"
         font-size="666.654px"
         lengthAdjust="spacingAndGlyphs"
         text-anchor="middle"
         opacity="0"
         id="text86">1K</text>
      <g
         class="stroked-text"
         id="g100">
        <desc
           id="desc88">1K</desc>
        <path
           d="m 30392,42726 h -285"
           id="path90" />
        <path
           d="m 30249,42726 v -500 l -47,71 -48,48 -47,23"
           id="path92" />
        <path
           d="m 30607,42726 v -500"
           id="path94" />
        <path
           d="m 30892,42726 -214,-286"
           id="path96" />
        <path
           d="m 30892,42226 -285,285"
           id="path98" />
      </g>
    </g>
  </g>
  <g
     style="fill:#008484;fill-opacity:0;stroke:#008484;stroke-width:60;stroke-linecap:round;stroke-linejoin:round;stroke-opacity:1"
     id="g126"
     transform="translate(-22832.992,-30758.992)">
    <g
       id="g106" />
    <g
       style="fill:#840000;fill-opacity:0;stroke:#840000;stroke-width:60;stroke-linecap:round;stroke-linejoin:round;stroke-opacity:1"
       id="g110">
      <path
         style="fill:none;fill-opacity:0;stroke:#840000;stroke-width:60;stroke-linecap:round;stroke-linejoin:round;stroke-opacity:1"
         d="m 28000,47500 v 500 h 500 l -500,500 -500,-500 h 500"
         id="path108" />
    </g>
    <g
       style="fill:#008484;fill-opacity:0;stroke:#008484;stroke-width:60;stroke-linecap:round;stroke-linejoin:round;stroke-opacity:1"
       id="g124">
      <text
         x="28000"
         y="49750"
         textLength="1583.8188"
         font-size="666.654px"
         lengthAdjust="spacingAndGlyphs"
         text-anchor="middle"
         opacity="0"
         id="text112">GND</text>
      <g
         class="stroked-text"
         id="g122">
        <desc
           id="desc114">GND</desc>
        <path
           d="m 27619,49250 -48,-24 h -71 l -72,24 -48,47 -23,48 -24,95 v 71 l 24,96 23,47 48,48 72,24 h 47 l 72,-24 23,-24 v -167 h -95"
           id="path116" />
        <path
           d="m 27857,49726 v -500 l 285,500 v -500"
           id="path118" />
        <path
           d="m 28380,49726 v -500 h 120 l 71,24 48,47 23,48 24,95 v 71 l -24,96 -23,47 -48,48 -71,24 h -120"
           id="path120" />
      </g>
    </g>
  </g>
  <g
     style="fill:#008484;fill-opacity:0;stroke:#008484;stroke-width:60;stroke-linecap:round;stroke-linejoin:round;stroke-opacity:1"
     id="g176"
     transform="translate(-22832.992,-30758.992)">
    <g
       id="g128" />
    <g
       style="fill:#840000;fill-opacity:0;stroke:#840000;stroke-width:60;stroke-linecap:round;stroke-linejoin:round;stroke-opacity:1"
       id="g130" />
    <g
       style="fill:#840000;fill-opacity:0;stroke:#840000;stroke-width:8.34646;stroke-linecap:round;stroke-linejoin:round;stroke-opacity:1"
       id="g136">
      <circle
         cx="28000"
         cy="46300"
         r="200"
         id="circle132" />
      <circle
         cx="28000"
         cy="44700"
         r="200"
         id="circle134" />
    </g>
    <g
       style="fill:#840000;fill-opacity:0;stroke:#840000;stroke-width:60;stroke-linecap:round;stroke-linejoin:round;stroke-opacity:1"
       id="g146">
      <path
         style="fill:none;fill-opacity:0;stroke:#840000;stroke-width:60;stroke-linecap:round;stroke-linejoin:round;stroke-opacity:1"
         d="m 27500,45500 h -700"
         id="path138" />
      <path
         style="fill:none;fill-opacity:0;stroke:#840000;stroke-width:60;stroke-linecap:round;stroke-linejoin:round;stroke-opacity:1"
         d="m 27500,44500 v 2000"
         id="path140" />
      <path
         d="m 28000,46500 v 1000"
         id="path142" />
      <path
         d="M 28000,44500 V 43500"
         id="path144" />
    </g>
    <g
       style="fill:#008484;fill-opacity:0;stroke:#008484;stroke-width:60;stroke-linecap:round;stroke-linejoin:round;stroke-opacity:1"
       id="g174">
      <text
         x="29745.551"
         y="45999.922"
         textLength="2488.5828"
         font-size="666.654px"
         lengthAdjust="spacingAndGlyphs"
         text-anchor="middle"
         opacity="0"
         id="text148">Button</text>
      <g
         class="stroked-text"
         id="g172">
        <desc
           id="desc150">Button</desc>
        <path
           d="m 28816,45714 72,23 24,24 24,48 v 71 l -24,48 -24,24 -48,24 h -190 v -500 h 166 l 48,23 24,24 24,48 v 47 l -24,48 -24,24 -48,24 h -166"
           id="path152" />
        <path
           d="m 29364,45642 v 334"
           id="path154" />
        <path
           d="m 29150,45642 v 262 l 24,48 47,24 h 72 l 47,-24 24,-24"
           id="path156" />
        <path
           d="m 29531,45642 h 190"
           id="path158" />
        <path
           d="m 29602,45476 v 428 l 24,48 48,24 h 47"
           id="path160" />
        <path
           d="m 29816,45642 h 191"
           id="path162" />
        <path
           d="m 29888,45476 v 428 l 24,48 47,24 h 48"
           id="path164" />
        <path
           d="m 30245,45976 -48,-24 -23,-24 -24,-48 v -143 l 24,-47 23,-24 48,-24 h 71 l 48,24 24,24 24,47 v 143 l -24,48 -24,24 -48,24 h -71"
           id="path166" />
        <path
           d="m 30626,45642 v 334"
           id="path168" />
        <path
           d="m 30626,45690 24,-24 47,-24 h 72 l 47,24 24,48 v 262"
           id="path170" />
      </g>
    </g>
  </g>
  <g
     style="fill:#008484;fill-opacity:0;stroke:#008484;stroke-width:60;stroke-linecap:round;stroke-linejoin:round;stroke-opacity:1"
     id="g228"
     transform="translate(-22832.992,-30758.992)">
    <g
       id="g178" />
    <g
       style="fill:#840000;fill-opacity:0;stroke:#840000;stroke-width:60;stroke-linecap:round;stroke-linejoin:round;stroke-opacity:1"
       id="g180" />
    <g
       style="fill:#840000;fill-opacity:0;stroke:#840000;stroke-width:100;stroke-linecap:round;stroke-linejoin:round;stroke-opacity:1"
       id="g184">
      <path
         style="fill:none;fill-opacity:0;stroke:#840000;stroke-width:100;stroke-linecap:round;stroke-linejoin:round;stroke-opacity:1"
         d="M 31000,41000 V 40000"
         id="path182" />
    </g>
    <g
       style="fill:#840000;fill-opacity:0;stroke:#840000;stroke-width:60;stroke-linecap:round;stroke-linejoin:round;stroke-opacity:1"
       id="g188">
      <path
         style="fill:none;fill-opacity:0;stroke:#840000;stroke-width:60;stroke-linecap:round;stroke-linejoin:round;stroke-opacity:1"
         d="m 30000,40500 h 1000"
         id="path186" />
    </g>
    <g
       style="fill:#840000;fill-opacity:0;stroke:#840000;stroke-width:100;stroke-linecap:round;stroke-linejoin:round;stroke-opacity:1"
       id="g192">
      <path
         style="fill:none;fill-opacity:0;stroke:#840000;stroke-width:100;stroke-linecap:round;stroke-linejoin:round;stroke-opacity:1"
         d="m 30000,41000 v -1000 l 1000,500 z"
         id="path190" />
    </g>
    <g
       style="fill:#840000;fill-opacity:0;stroke:#840000;stroke-width:60;stroke-linecap:round;stroke-linejoin:round;stroke-opacity:1"
       id="g198">
      <path
         d="m 31000,40500 h 1000"
         id="path194" />
      <path
         d="M 30000,40500 H 29000"
         id="path196" />
    </g>
    <g
       style="fill:#008484;fill-opacity:0;stroke:#008484;stroke-width:60;stroke-linecap:round;stroke-linejoin:round;stroke-opacity:1"
       id="g226">
      <text
         x="30499.961"
         y="39749.961"
         textLength="2964.7637"
         font-size="666.654px"
         lengthAdjust="spacingAndGlyphs"
         text-anchor="middle"
         opacity="0"
         id="text200">1N4148</text>
      <g
         class="stroked-text"
         id="g224">
        <desc
           id="desc202">1N4148</desc>
        <path
           d="m 29428,39726 h -286"
           id="path204" />
        <path
           d="m 29285,39726 v -500 l -47,71 -48,48 -48,23"
           id="path206" />
        <path
           d="m 29642,39726 v -500 l 286,500 v -500"
           id="path208" />
        <path
           d="m 30380,39392 v 334"
           id="path210" />
        <path
           d="m 30261,39202 -119,357 h 310"
           id="path212" />
        <path
           d="m 30904,39726 h -286"
           id="path214" />
        <path
           d="m 30761,39726 v -500 l -47,71 -48,48 -48,23"
           id="path216" />
        <path
           d="m 31333,39392 v 334"
           id="path218" />
        <path
           d="m 31214,39202 -119,357 h 309"
           id="path220" />
        <path
           d="m 31666,39440 -48,-24 -23,-24 -24,-47 v -24 l 24,-48 23,-24 48,-23 h 95 l 48,23 24,24 24,48 v 24 l -24,47 -24,24 -48,24 h -95 l -48,24 -23,24 -24,47 v 95 l 24,48 23,24 48,24 h 95 l 48,-24 24,-24 24,-48 v -95 l -24,-47 -24,-24 -48,-24"
           id="path222" />
      </g>
    </g>
  </g>
  <g
     style="fill:#008484;fill-opacity:0;stroke:#008484;stroke-width:60;stroke-linecap:round;stroke-linejoin:round;stroke-opacity:1"
     id="g308"
     transform="translate(-22832.992,-30758.992)">
    <g
       id="g230" />
    <g
       style="fill:#840000;fill-opacity:0;stroke:#840000;stroke-width:60;stroke-linecap:round;stroke-linejoin:round;stroke-opacity:1"
       id="g232" />
    <g
       style="fill:#ffffc2;fill-opacity:0;stroke:#ffffc2;stroke-width:60;stroke-linecap:round;stroke-linejoin:round;stroke-opacity:1"
       id="g234" />
    <g
       style="fill:#ffffc2;fill-opacity:0.6;stroke:#ffffc2;stroke-width:0.03937;stroke-linecap:round;stroke-linejoin:round;stroke-opacity:1"
       id="g238">
      <path
         style="fill:#ffffc2;fill-opacity:0.6;fill-rule:evenodd;stroke:#ffffc2;stroke-width:0.03937;stroke-linecap:round;stroke-linejoin:round;stroke-opacity:1"
         d="m 35500,39000 v 3000 l 3000,-1500 z"
         id="path236" />
    </g>
    <g
       style="fill:#840000;fill-opacity:0.6;stroke:#840000;stroke-width:0.03937;stroke-linecap:round;stroke-linejoin:round;stroke-opacity:1"
       id="g240" />
    <g
       style="fill:#840000;fill-opacity:0;stroke:#840000;stroke-width:100;stroke-linecap:round;stroke-linejoin:round;stroke-opacity:1"
       id="g246">
      <path
         style="fill:none;fill-opacity:0;stroke:#840000;stroke-width:100;stroke-linecap:round;stroke-linejoin:round;stroke-opacity:1"
         d="m 35500,39000 v 3000 l 3000,-1500 z"
         id="path242" />
      <path
         style="fill:none;fill-opacity:0;stroke:#840000;stroke-width:100;stroke-linecap:round;stroke-linejoin:round;stroke-opacity:1"
         d="m 35500,39000 v 3000 l 3000,-1500 z"
         id="path244" />
    </g>
    <g
       style="fill:#840000;fill-opacity:0;stroke:#840000;stroke-width:60;stroke-linecap:round;stroke-linejoin:round;stroke-opacity:1"
       id="g276">
      <path
         style="fill:none;fill-opacity:0;stroke:#840000;stroke-width:60;stroke-linecap:round;stroke-linejoin:round;stroke-opacity:1"
         d="m 36250,41000 v -1000 h 500"
         id="path248" />
      <path
         style="fill:none;fill-opacity:0;stroke:#840000;stroke-width:60;stroke-linecap:round;stroke-linejoin:round;stroke-opacity:1"
         d="m 36000,41000 h 750 v -1000 h 250"
         id="path250" />
      <path
         d="M 35500,40500 H 34000"
         id="path252" />
      <text
         x="34750"
         y="40400"
         textLength="536.18109"
         font-size="666.654px"
         lengthAdjust="spacingAndGlyphs"
         text-anchor="middle"
         opacity="0"
         id="text254">1</text>
      <g
         class="stroked-text"
         id="g262">
        <desc
           id="desc256">1</desc>
        <path
           d="m 34892,40376 h -285"
           id="path258" />
        <path
           d="m 34750,40376 v -500 l -48,71 -48,48 -47,24"
           id="path260" />
      </g>
      <circle
         cx="38750"
         cy="40500"
         r="250"
         id="circle264" />
      <path
         d="m 39000,40500 h 1000"
         id="path266" />
      <text
         x="39250"
         y="40400"
         textLength="536.18109"
         font-size="666.654px"
         lengthAdjust="spacingAndGlyphs"
         text-anchor="middle"
         opacity="0"
         id="text268">2</text>
      <g
         class="stroked-text"
         id="g274">
        <desc
           id="desc270">2</desc>
        <path
           d="m 39107,39923 23,-23 48,-24 h 119 l 48,24 24,23 23,48 v 48 l -23,71 -286,286 h 309"
           id="path272" />
      </g>
    </g>
    <g
       style="fill:#008484;fill-opacity:0;stroke:#008484;stroke-width:60;stroke-linecap:round;stroke-linejoin:round;stroke-opacity:1"
       id="g306">
      <text
         x="37000"
         y="38750"
         textLength="2988.5828"
         font-size="666.654px"
         lengthAdjust="spacingAndGlyphs"
         text-anchor="middle"
         opacity="0"
         id="text278">74HC14</text>
      <g
         class="stroked-text"
         id="g304">
        <desc
           id="desc280">74HC14</desc>
        <path
           d="m 35607,38226 h 333 l -214,500"
           id="path282" />
        <path
           d="m 36345,38392 v 334"
           id="path284" />
        <path
           d="m 36226,38202 -119,357 h 309"
           id="path286" />
        <path
           d="m 36607,38726 v -500"
           id="path288" />
        <path
           d="m 36607,38464 h 285"
           id="path290" />
        <path
           d="m 36892,38726 v -500"
           id="path292" />
        <path
           d="m 37416,38678 -24,24 -71,24 h -48 l -71,-24 -48,-48 -24,-47 -23,-96 v -71 l 23,-95 24,-48 48,-47 71,-24 h 48 l 71,24 24,23"
           id="path294" />
        <path
           d="m 37892,38726 h -285"
           id="path296" />
        <path
           d="m 37750,38726 v -500 l -48,71 -48,48 -47,24"
           id="path298" />
        <path
           d="m 38321,38392 v 334"
           id="path300" />
        <path
           d="m 38202,38202 -119,357 h 309"
           id="path302" />
      </g>
    </g>
  </g>
  <g
     style="fill:#008484;fill-opacity:0;stroke:#008484;stroke-width:60;stroke-linecap:round;stroke-linejoin:round;stroke-opacity:1"
     id="g334"
     transform="translate(-22832.992,-30758.992)">
    <g
       id="g310" />
    <g
       style="fill:#840000;fill-opacity:0;stroke:#840000;stroke-width:60;stroke-linecap:round;stroke-linejoin:round;stroke-opacity:1"
       id="g318">
      <path
         style="fill:none;fill-opacity:0;stroke:#840000;stroke-width:60;stroke-linecap:round;stroke-linejoin:round;stroke-opacity:1"
         d="m 27700,36000 300,-500"
         id="path312" />
      <path
         style="fill:none;fill-opacity:0;stroke:#840000;stroke-width:60;stroke-linecap:round;stroke-linejoin:round;stroke-opacity:1"
         d="M 28000,36500 V 35500"
         id="path314" />
      <path
         style="fill:none;fill-opacity:0;stroke:#840000;stroke-width:60;stroke-linecap:round;stroke-linejoin:round;stroke-opacity:1"
         d="m 28000,35500 300,500"
         id="path316" />
    </g>
    <g
       style="fill:#008484;fill-opacity:0;stroke:#008484;stroke-width:60;stroke-linecap:round;stroke-linejoin:round;stroke-opacity:1"
       id="g332">
      <text
         x="28000"
         y="35250"
         textLength="1488.5826"
         font-size="666.654px"
         lengthAdjust="spacingAndGlyphs"
         text-anchor="middle"
         opacity="0"
         id="text320">VCC</text>
      <g
         class="stroked-text"
         id="g330">
        <desc
           id="desc322">VCC</desc>
        <path
           d="m 27333,34726 167,500 166,-500"
           id="path324" />
        <path
           d="m 28119,35178 -24,24 -72,24 h -47 l -72,-24 -47,-48 -24,-47 -24,-96 v -71 l 24,-95 24,-48 47,-47 72,-24 h 47 l 72,24 24,23"
           id="path326" />
        <path
           d="m 28619,35178 -24,24 -72,24 h -47 l -72,-24 -47,-48 -24,-47 -24,-96 v -71 l 24,-95 24,-48 47,-47 72,-24 h 47 l 72,24 24,23"
           id="path328" />
      </g>
    </g>
  </g>
  <g
     style="fill:#008484;fill-opacity:0;stroke:#008484;stroke-width:60;stroke-linecap:round;stroke-linejoin:round;stroke-opacity:1"
     id="g370"
     transform="translate(-22832.992,-30758.992)">
    <g
       id="g336" />
    <g
       style="fill:#840000;fill-opacity:0;stroke:#840000;stroke-width:60;stroke-linecap:round;stroke-linejoin:round;stroke-opacity:1"
       id="g338" />
    <g
       style="fill:#840000;fill-opacity:0;stroke:#840000;stroke-width:100;stroke-linecap:round;stroke-linejoin:round;stroke-opacity:1"
       id="g342">
      <rect
         x="27600"
         y="37000"
         width="800"
         height="2000"
         rx="0.000000"
         id="rect340" />
    </g>
    <g
       style="fill:#840000;fill-opacity:0;stroke:#840000;stroke-width:60;stroke-linecap:round;stroke-linejoin:round;stroke-opacity:1"
       id="g348">
      <path
         d="m 28000,37000 v -500"
         id="path344" />
      <path
         d="m 28000,39000 v 500"
         id="path346" />
    </g>
    <g
       style="fill:#008484;fill-opacity:0;stroke:#008484;stroke-width:60;stroke-linecap:round;stroke-linejoin:round;stroke-opacity:1"
       id="g368">
      <text
         x="29757.441"
         y="37999.961"
         textLength="1512.3622"
         font-size="666.654px"
         lengthAdjust="spacingAndGlyphs"
         text-anchor="middle"
         opacity="0"
         id="text350">10K</text>
      <g
         class="stroked-text"
         id="g366">
        <desc
           id="desc352">10K</desc>
        <path
           d="m 29412,37976 h -286"
           id="path354" />
        <path
           d="m 29269,37976 v -500 l -48,71 -47,48 -48,23"
           id="path356" />
        <path
           d="m 29721,37476 h 48 l 47,23 24,24 24,48 24,95 v 119 l -24,95 -24,48 -24,24 -47,24 h -48 l -47,-24 -24,-24 -24,-48 -24,-95 v -119 l 24,-95 24,-48 24,-24 47,-23"
           id="path358" />
        <path
           d="m 30102,37976 v -500"
           id="path360" />
        <path
           d="m 30388,37976 -214,-286"
           id="path362" />
        <path
           d="m 30388,37476 -286,285"
           id="path364" />
      </g>
    </g>
  </g>
  <g
     style="fill:#008484;fill-opacity:0;stroke:#008484;stroke-width:62.5197;stroke-linecap:round;stroke-linejoin:round;stroke-opacity:1"
     id="g372"
     transform="translate(-22832.992,-30758.992)" />
  <g
     style="fill:#008484;fill-opacity:0;stroke:#008484;stroke-width:60;stroke-linecap:round;stroke-linejoin:round;stroke-opacity:1"
     id="g374"
     transform="translate(-22832.992,-30758.992)" />
  <g
     style="fill:#840000;fill-opacity:0;stroke:#840000;stroke-width:60;stroke-linecap:round;stroke-linejoin:round;stroke-opacity:1"
     id="g392"
     transform="translate(-22832.992,-30758.992)">
    <text
       x="40150"
       y="40750"
       textLength="1821.8898"
       font-size="666.654px"
       lengthAdjust="spacingAndGlyphs"
       text-anchor="start"
       opacity="0"
       id="text376">GPIO</text>
    <g
       class="stroked-text"
       id="g388">
      <desc
         id="desc378">GPIO</desc>
      <path
         d="m 40560,40250 -47,-24 h -72 l -71,24 -48,47 -23,48 -24,95 v 71 l 24,96 23,47 48,48 71,24 h 48 l 71,-24 24,-24 v -167 h -95"
         id="path380" />
      <path
         d="m 40799,40726 v -500 h 190 l 48,24 23,23 24,48 v 71 l -24,48 -23,24 -48,24 h -190"
         id="path382" />
      <path
         d="m 41299,40726 v -500"
         id="path384" />
      <path
         d="m 41632,40226 h 95 l 48,24 47,47 24,95 v 167 l -24,95 -47,48 -48,24 h -95 l -48,-24 -47,-48 -24,-95 v -167 l 24,-95 47,-47 48,-24"
         id="path386" />
    </g>
    <path
       style="fill:none;fill-opacity:0;stroke:#840000;stroke-width:60;stroke-linecap:round;stroke-linejoin:round;stroke-opacity:1"
       d="m 40000,40500 v 462.638 h 2187.047 l 400,-462.638 -400,-462.638 H 40000 Z"
       id="path390" />
  </g>
  <g
     style="fill:#008400;fill-opacity:0;stroke:#008400;stroke-width:60;stroke-linecap:round;stroke-linejoin:round;stroke-opacity:1"
     id="g416"
     transform="translate(-22832.992,-30758.992)">
    <path
       d="m 32000,42500 h 1000"
       id="path394" />
    <path
       d="M 33000,44000 V 42500"
       id="path396" />
    <path
       d="m 33000,47000 v 500"
       id="path398" />
    <path
       d="M 28000,42500 V 40500"
       id="path400" />
    <path
       d="m 28000,42500 v 1000"
       id="path402" />
    <path
       d="M 29000,42500 H 28000"
       id="path404" />
    <path
       d="m 33000,40500 h 1000"
       id="path406" />
    <path
       d="M 33000,40500 H 32000"
       id="path408" />
    <path
       d="M 33000,42500 V 40500"
       id="path410" />
    <path
       d="M 28000,40500 V 39500"
       id="path412" />
    <path
       d="M 29000,40500 H 28000"
       id="path414" />
  </g>
  <g
     style="fill:#008400;fill-opacity:1;stroke:#008400;stroke-width:60;stroke-linecap:round;stroke-linejoin:round;stroke-opacity:1"
     id="g426"
     transform="translate(-22832.992,-30758.992)">
    <circle
       cx="28000"
       cy="40500"
       r="180"
       id="circle418" />
    <circle
       cx="28000"
       cy="42500"
       r="180"
       id="circle420" />
    <circle
       cx="33000"
       cy="40500"
       r="180"
       id="circle422" />
    <circle
       cx="33000"
       cy="42500"
       r="180"
       id="circle424" />
  </g>
</svg>
