<?xml version="1.0" encoding="UTF-8" standalone="no"?>
<svg
   xmlns:dc="http://purl.org/dc/elements/1.1/"
   xmlns:cc="http://creativecommons.org/ns#"
   xmlns:rdf="http://www.w3.org/1999/02/22-rdf-syntax-ns#"
   xmlns:svg="http://www.w3.org/2000/svg"
   xmlns="http://www.w3.org/2000/svg"
   version="1.1"
   width="8.4389467cm"
   height="5.8235736cm"
   viewBox="0 0 33224.2 22927.456"
   id="svg492">
  <metadata
     id="metadata498">
    <rdf:RDF>
      <cc:Work
         rdf:about="">
        <dc:format>image/svg+xml</dc:format>
        <dc:type
           rdf:resource="http://purl.org/dc/dcmitype/StillImage" />
      </cc:Work>
    </rdf:RDF>
  </metadata>
  <defs
     id="defs496" />
  <title
     id="title2">SVG Picture created as 74hc00.svg date 2021/05/21 12:50:18 </title>
  <desc
     id="desc4">Picture generated by Eeschema-SVG </desc>
  <g
     style="fill:#000000;fill-opacity:1;stroke:#000000;stroke-linecap:round;stroke-linejoin:round;stroke-opacity:1"
     id="g6"
     transform="translate(-31329.852,-30028.992)" />
  <g
     style="fill:#000000;fill-opacity:0;stroke:#000000;stroke-width:60;stroke-linecap:round;stroke-linejoin:round;stroke-opacity:1"
     id="g32"
     transform="translate(-31329.852,-30028.992)">
    <g
       id="g8" />
    <g
       style="fill:#840000;fill-opacity:0;stroke:#840000;stroke-width:60;stroke-linecap:round;stroke-linejoin:round;stroke-opacity:1"
       id="g16">
      <path
         style="fill:none;fill-opacity:0;stroke:#840000;stroke-width:60;stroke-linecap:round;stroke-linejoin:round;stroke-opacity:1"
         d="m 35700,35500 300,-500"
         id="path10" />
      <path
         style="fill:none;fill-opacity:0;stroke:#840000;stroke-width:60;stroke-linecap:round;stroke-linejoin:round;stroke-opacity:1"
         d="M 36000,36000 V 35000"
         id="path12" />
      <path
         style="fill:none;fill-opacity:0;stroke:#840000;stroke-width:60;stroke-linecap:round;stroke-linejoin:round;stroke-opacity:1"
         d="m 36000,35000 300,500"
         id="path14" />
    </g>
    <g
       style="fill:#008484;fill-opacity:0;stroke:#008484;stroke-width:60;stroke-linecap:round;stroke-linejoin:round;stroke-opacity:1"
       id="g30">
      <text
         x="36150"
         y="34520"
         textLength="1491.1024"
         font-size="666.654px"
         lengthAdjust="spacingAndGlyphs"
         text-anchor="middle"
         opacity="0"
         id="text18">VCC</text>
      <g
         class="stroked-text"
         id="g28">
        <desc
           id="desc20">VCC</desc>
        <path
           d="m 35483,33996 167,500 166,-500"
           id="path22" />
        <path
           d="m 36269,34448 -24,24 -72,24 h -47 l -72,-24 -47,-48 -24,-47 -24,-96 v -71 l 24,-95 24,-48 47,-47 72,-24 h 47 l 72,24 24,23"
           id="path24" />
        <path
           d="m 36769,34448 -24,24 -72,24 h -47 l -72,-24 -47,-48 -24,-47 -24,-96 v -71 l 24,-95 24,-48 47,-47 72,-24 h 47 l 72,24 24,23"
           id="path26" />
      </g>
    </g>
  </g>
  <g
     style="fill:#008484;fill-opacity:0;stroke:#008484;stroke-width:60;stroke-linecap:round;stroke-linejoin:round;stroke-opacity:1"
     id="g66"
     transform="translate(-31329.852,-30028.992)">
    <g
       id="g34" />
    <g
       style="fill:#840000;fill-opacity:0;stroke:#840000;stroke-width:60;stroke-linecap:round;stroke-linejoin:round;stroke-opacity:1"
       id="g36" />
    <g
       style="fill:#840000;fill-opacity:0;stroke:#840000;stroke-width:100;stroke-linecap:round;stroke-linejoin:round;stroke-opacity:1"
       id="g40">
      <rect
         x="35600"
         y="36500"
         width="800"
         height="2000"
         rx="0.000000"
         id="rect38" />
    </g>
    <g
       style="fill:#840000;fill-opacity:0;stroke:#840000;stroke-width:60;stroke-linecap:round;stroke-linejoin:round;stroke-opacity:1"
       id="g46">
      <path
         d="m 36000,38500 v 500"
         id="path42" />
      <path
         d="m 36000,36500 v -500"
         id="path44" />
    </g>
    <g
       style="fill:#008484;fill-opacity:0;stroke:#008484;stroke-width:60;stroke-linecap:round;stroke-linejoin:round;stroke-opacity:1"
       id="g64">
      <text
         x="37457.441"
         y="37749.961"
         textLength="1512.3622"
         font-size="666.654px"
         lengthAdjust="spacingAndGlyphs"
         text-anchor="middle"
         opacity="0"
         id="text48">22K</text>
      <g
         class="stroked-text"
         id="g62">
        <desc
           id="desc50">22K</desc>
        <path
           d="m 36826,37273 24,-24 47,-23 h 119 l 48,23 24,24 24,48 v 47 l -24,72 -286,286 h 310"
           id="path52" />
        <path
           d="m 37302,37273 24,-24 48,-23 h 119 l 47,23 24,24 24,48 v 47 l -24,72 -286,286 h 310"
           id="path54" />
        <path
           d="m 37802,37726 v -500"
           id="path56" />
        <path
           d="m 38088,37726 -214,-286"
           id="path58" />
        <path
           d="m 38088,37226 -286,285"
           id="path60" />
      </g>
    </g>
  </g>
  <g
     style="fill:#008484;fill-opacity:0;stroke:#008484;stroke-width:60;stroke-linecap:round;stroke-linejoin:round;stroke-opacity:1"
     id="g166"
     transform="translate(-31329.852,-30028.992)">
    <g
       id="g68" />
    <g
       style="fill:#840000;fill-opacity:0;stroke:#840000;stroke-width:60;stroke-linecap:round;stroke-linejoin:round;stroke-opacity:1"
       id="g70" />
    <g
       style="fill:#ffffc2;fill-opacity:0;stroke:#ffffc2;stroke-width:60;stroke-linecap:round;stroke-linejoin:round;stroke-opacity:1"
       id="g72" />
    <g
       style="fill:#ffffc2;fill-opacity:0.6;stroke:#ffffc2;stroke-width:0.03937;stroke-linecap:round;stroke-linejoin:round;stroke-opacity:1"
       id="g76">
      <path
         d="m 53002.618,42499.998 a 1500,1500 0 0 0 0,-2999.996 L 53000,41000 Z"
         id="path74" />
    </g>
    <g
       style="fill:#ffffc2;fill-opacity:0;stroke:#ffffc2;stroke-width:0.03937;stroke-linecap:round;stroke-linejoin:round;stroke-opacity:1"
       id="g80">
      <path
         d="m 53002.618,42499.998 a 1500,1500 0 0 0 0,-2999.996"
         id="path78" />
    </g>
    <g
       style="fill:#840000;fill-opacity:0;stroke:#840000;stroke-width:0.03937;stroke-linecap:round;stroke-linejoin:round;stroke-opacity:1"
       id="g82" />
    <g
       style="fill:#840000;fill-opacity:0;stroke:#840000;stroke-width:100;stroke-linecap:round;stroke-linejoin:round;stroke-opacity:1"
       id="g86">
      <path
         d="m 53002.618,42499.998 a 1500,1500 0 0 0 0,-2999.996"
         id="path84" />
    </g>
    <g
       style="fill:#ffffc2;fill-opacity:0;stroke:#ffffc2;stroke-width:100;stroke-linecap:round;stroke-linejoin:round;stroke-opacity:1"
       id="g88" />
    <g
       style="fill:#ffffc2;fill-opacity:0.6;stroke:#ffffc2;stroke-width:0.03937;stroke-linecap:round;stroke-linejoin:round;stroke-opacity:1"
       id="g92">
      <path
         style="fill:#ffffc2;fill-opacity:0.6;fill-rule:evenodd;stroke:#ffffc2;stroke-width:0.03937;stroke-linecap:round;stroke-linejoin:round;stroke-opacity:1"
         d="m 53000,39500 h -1500 v 3000 h 1500"
         id="path90" />
    </g>
    <g
       style="fill:#840000;fill-opacity:0.6;stroke:#840000;stroke-width:0.03937;stroke-linecap:round;stroke-linejoin:round;stroke-opacity:1"
       id="g94" />
    <g
       style="fill:#840000;fill-opacity:0;stroke:#840000;stroke-width:100;stroke-linecap:round;stroke-linejoin:round;stroke-opacity:1"
       id="g102">
      <path
         style="fill:none;fill-opacity:0;stroke:#840000;stroke-width:100;stroke-linecap:round;stroke-linejoin:round;stroke-opacity:1"
         d="m 53000,39500 h -1500 v 3000 h 1500"
         id="path96" />
      <path
         d="m 53002.618,42499.998 a 1500,1500 0 0 0 0,-2999.996"
         id="path98" />
      <path
         style="fill:none;fill-opacity:0;stroke:#840000;stroke-width:100;stroke-linecap:round;stroke-linejoin:round;stroke-opacity:1"
         d="m 53000,39500 h -1500 v 3000 h 1500"
         id="path100" />
    </g>
    <g
       style="fill:#840000;fill-opacity:0;stroke:#840000;stroke-width:60;stroke-linecap:round;stroke-linejoin:round;stroke-opacity:1"
       id="g138">
      <path
         d="M 51500,40000 H 50000"
         id="path104" />
      <text
         x="50750"
         y="39900"
         textLength="536.18109"
         font-size="666.654px"
         lengthAdjust="spacingAndGlyphs"
         text-anchor="middle"
         opacity="0"
         id="text106">4</text>
      <g
         class="stroked-text"
         id="g114">
        <desc
           id="desc108">4</desc>
        <path
           d="m 50845,39542 v 334"
           id="path110" />
        <path
           d="m 50726,39352 -119,357 h 309"
           id="path112" />
      </g>
      <path
         d="M 51500,42000 H 50000"
         id="path116" />
      <text
         x="50750"
         y="41900"
         textLength="536.18109"
         font-size="666.654px"
         lengthAdjust="spacingAndGlyphs"
         text-anchor="middle"
         opacity="0"
         id="text118">5</text>
      <g
         class="stroked-text"
         id="g124">
        <desc
           id="desc120">5</desc>
        <path
           d="m 50869,41376 h -239 l -23,238 23,-24 48,-24 h 119 l 48,24 24,24 23,47 v 119 l -23,48 -24,24 -48,24 h -119 l -48,-24 -23,-24"
           id="path122" />
      </g>
      <circle
         cx="54750"
         cy="41000"
         r="250"
         id="circle126" />
      <path
         d="m 55000,41000 h 1000"
         id="path128" />
      <text
         x="55250"
         y="40900"
         textLength="536.18109"
         font-size="666.654px"
         lengthAdjust="spacingAndGlyphs"
         text-anchor="middle"
         opacity="0"
         id="text130">6</text>
      <g
         class="stroked-text"
         id="g136">
        <desc
           id="desc132">6</desc>
        <path
           d="m 55345,40376 h -95 l -48,24 -24,23 -48,72 -23,95 v 190 l 23,48 24,24 48,24 h 95 l 48,-24 24,-24 23,-48 v -119 l -23,-47 -24,-24 -48,-24 h -95 l -48,24 -24,24 -23,47"
           id="path134" />
      </g>
    </g>
    <g
       style="fill:#008484;fill-opacity:0;stroke:#008484;stroke-width:60;stroke-linecap:round;stroke-linejoin:round;stroke-opacity:1"
       id="g164">
      <text
         x="53000"
         y="38920"
         textLength="2988.5828"
         font-size="666.654px"
         lengthAdjust="spacingAndGlyphs"
         text-anchor="middle"
         opacity="0"
         id="text140">74HC00</text>
      <g
         class="stroked-text"
         id="g162">
        <desc
           id="desc142">74HC00</desc>
        <path
           d="m 51607,38396 h 333 l -214,500"
           id="path144" />
        <path
           d="m 52345,38562 v 334"
           id="path146" />
        <path
           d="m 52226,38372 -119,357 h 309"
           id="path148" />
        <path
           d="m 52607,38896 v -500"
           id="path150" />
        <path
           d="m 52607,38634 h 285"
           id="path152" />
        <path
           d="m 52892,38896 v -500"
           id="path154" />
        <path
           d="m 53416,38848 -24,24 -71,24 h -48 l -71,-24 -48,-48 -24,-47 -23,-96 v -71 l 23,-95 24,-48 48,-47 71,-24 h 48 l 71,24 24,23"
           id="path156" />
        <path
           d="m 53726,38396 h 47 l 48,24 24,23 24,48 23,95 v 119 l -23,95 -24,48 -24,24 -48,24 h -47 l -48,-24 -24,-24 -24,-48 -23,-95 v -119 l 23,-95 24,-48 24,-23 48,-24"
           id="path158" />
        <path
           d="m 54202,38396 h 48 l 47,24 24,23 24,48 24,95 v 119 l -24,95 -24,48 -24,24 -47,24 h -48 l -48,-24 -24,-24 -23,-48 -24,-95 v -119 l 24,-95 23,-48 24,-23 48,-24"
           id="path160" />
      </g>
    </g>
  </g>
  <g
     style="fill:#008484;fill-opacity:0;stroke:#008484;stroke-width:60;stroke-linecap:round;stroke-linejoin:round;stroke-opacity:1"
     id="g208"
     transform="translate(-31329.852,-30028.992)">
    <g
       id="g168" />
    <g
       style="fill:#840000;fill-opacity:0;stroke:#840000;stroke-width:60;stroke-linecap:round;stroke-linejoin:round;stroke-opacity:1"
       id="g170" />
    <g
       style="fill:#840000;fill-opacity:0;stroke:#840000;stroke-width:200;stroke-linecap:round;stroke-linejoin:round;stroke-opacity:1"
       id="g176">
      <path
         style="fill:none;fill-opacity:0;stroke:#840000;stroke-width:200;stroke-linecap:round;stroke-linejoin:round;stroke-opacity:1"
         d="m 48700,36200 v 1600"
         id="path172" />
      <path
         style="fill:none;fill-opacity:0;stroke:#840000;stroke-width:200;stroke-linecap:round;stroke-linejoin:round;stroke-opacity:1"
         d="m 49300,36200 v 1600"
         id="path174" />
    </g>
    <g
       style="fill:#840000;fill-opacity:0;stroke:#840000;stroke-width:60;stroke-linecap:round;stroke-linejoin:round;stroke-opacity:1"
       id="g182">
      <path
         d="m 49400,37000 h 1100"
         id="path178" />
      <path
         d="M 48600,37000 H 47500"
         id="path180" />
    </g>
    <g
       style="fill:#008484;fill-opacity:0;stroke:#008484;stroke-width:60;stroke-linecap:round;stroke-linejoin:round;stroke-opacity:1"
       id="g206">
      <text
         x="49000"
         y="35650"
         textLength="2440.9448"
         font-size="666.654px"
         lengthAdjust="spacingAndGlyphs"
         text-anchor="middle"
         opacity="0"
         id="text184">330µF</text>
      <g
         class="stroked-text"
         id="g204">
        <desc
           id="desc186">330µF</desc>
        <path
           d="m 47880,35126 h 310 l -167,190 h 72 l 47,24 24,24 24,47 v 119 l -24,48 -24,24 -47,24 h -143 l -48,-24 -24,-24"
           id="path188" />
        <path
           d="m 48357,35126 h 309 l -166,190 h 71 l 48,24 23,24 24,47 v 119 l -24,48 -23,24 -48,24 h -143 l -48,-24 -23,-24"
           id="path190" />
        <path
           d="m 48976,35126 h 47 l 48,24 24,23 24,48 23,95 v 119 l -23,95 -24,48 -24,24 -48,24 h -47 l -48,-24 -24,-24 -24,-48 -23,-95 v -119 l 23,-95 24,-48 24,-23 48,-24"
           id="path192" />
        <path
           d="m 49357,35292 v 500"
           id="path194" />
        <path
           d="m 49595,35554 24,48 47,24"
           id="path196" />
        <path
           d="m 49357,35554 23,48 48,24 h 95 l 48,-24 24,-48 v -262"
           id="path198" />
        <path
           d="m 50047,35364 h -167"
           id="path200" />
        <path
           d="m 49880,35626 v -500 h 239"
           id="path202" />
      </g>
    </g>
  </g>
  <g
     style="fill:#008484;fill-opacity:0;stroke:#008484;stroke-width:60;stroke-linecap:round;stroke-linejoin:round;stroke-opacity:1"
     id="g230"
     transform="translate(-31329.852,-30028.992)">
    <g
       id="g210" />
    <g
       style="fill:#840000;fill-opacity:0;stroke:#840000;stroke-width:60;stroke-linecap:round;stroke-linejoin:round;stroke-opacity:1"
       id="g214">
      <path
         style="fill:none;fill-opacity:0;stroke:#840000;stroke-width:60;stroke-linecap:round;stroke-linejoin:round;stroke-opacity:1"
         d="m 36000,47000 v 500 h 500 l -500,500 -500,-500 h 500"
         id="path212" />
    </g>
    <g
       style="fill:#008484;fill-opacity:0;stroke:#008484;stroke-width:60;stroke-linecap:round;stroke-linejoin:round;stroke-opacity:1"
       id="g228">
      <text
         x="36050"
         y="48980"
         textLength="1583.8188"
         font-size="666.654px"
         lengthAdjust="spacingAndGlyphs"
         text-anchor="middle"
         opacity="0"
         id="text216">GND</text>
      <g
         class="stroked-text"
         id="g226">
        <desc
           id="desc218">GND</desc>
        <path
           d="m 35669,48480 -48,-24 h -71 l -72,24 -48,47 -23,48 -24,95 v 71 l 24,96 23,47 48,48 72,24 h 47 l 72,-24 23,-24 v -167 h -95"
           id="path220" />
        <path
           d="m 35907,48956 v -500 l 285,500 v -500"
           id="path222" />
        <path
           d="m 36430,48956 v -500 h 120 l 71,24 48,47 23,48 24,95 v 71 l -24,96 -23,47 -48,48 -71,24 h -120"
           id="path224" />
      </g>
    </g>
  </g>
  <g
     style="fill:#008484;fill-opacity:0;stroke:#008484;stroke-width:60;stroke-linecap:round;stroke-linejoin:round;stroke-opacity:1"
     id="g268"
     transform="translate(-31329.852,-30028.992)">
    <g
       id="g232" />
    <g
       style="fill:#840000;fill-opacity:0;stroke:#840000;stroke-width:60;stroke-linecap:round;stroke-linejoin:round;stroke-opacity:1"
       id="g234" />
    <g
       style="fill:#840000;fill-opacity:0;stroke:#840000;stroke-width:100;stroke-linecap:round;stroke-linejoin:round;stroke-opacity:1"
       id="g238">
      <rect
         x="37500"
         y="39600"
         width="2000"
         height="800"
         rx="0.000000"
         id="rect236" />
    </g>
    <g
       style="fill:#840000;fill-opacity:0;stroke:#840000;stroke-width:60;stroke-linecap:round;stroke-linejoin:round;stroke-opacity:1"
       id="g244">
      <path
         d="m 39500,40000 h 500"
         id="path240" />
      <path
         d="m 37500,40000 h -500"
         id="path242" />
    </g>
    <g
       style="fill:#008484;fill-opacity:0;stroke:#008484;stroke-width:60;stroke-linecap:round;stroke-linejoin:round;stroke-opacity:1"
       id="g266">
      <text
         x="38500"
         y="39100"
         textLength="1988.5826"
         font-size="666.654px"
         lengthAdjust="spacingAndGlyphs"
         text-anchor="middle"
         opacity="0"
         id="text246">100K</text>
      <g
         class="stroked-text"
         id="g264">
        <desc
           id="desc248">100K</desc>
        <path
           d="m 37916,39076 h -286"
           id="path250" />
        <path
           d="m 37773,39076 v -500 l -47,71 -48,48 -48,24"
           id="path252" />
        <path
           d="m 38226,38576 h 47 l 48,24 24,23 24,48 23,95 v 119 l -23,95 -24,48 -24,24 -48,24 h -47 l -48,-24 -24,-24 -24,-48 -23,-95 v -119 l 23,-95 24,-48 24,-23 48,-24"
           id="path254" />
        <path
           d="m 38702,38576 h 48 l 47,24 24,23 24,48 24,95 v 119 l -24,95 -24,48 -24,24 -47,24 h -48 l -48,-24 -24,-24 -23,-48 -24,-95 v -119 l 24,-95 23,-48 24,-23 48,-24"
           id="path256" />
        <path
           d="m 39083,39076 v -500"
           id="path258" />
        <path
           d="m 39369,39076 -215,-286"
           id="path260" />
        <path
           d="m 39369,38576 -286,285"
           id="path262" />
      </g>
    </g>
  </g>
  <g
     style="fill:#008484;fill-opacity:0;stroke:#008484;stroke-width:60;stroke-linecap:round;stroke-linejoin:round;stroke-opacity:1"
     id="g318"
     transform="translate(-31329.852,-30028.992)">
    <g
       id="g270" />
    <g
       style="fill:#840000;fill-opacity:0;stroke:#840000;stroke-width:60;stroke-linecap:round;stroke-linejoin:round;stroke-opacity:1"
       id="g272" />
    <g
       style="fill:#840000;fill-opacity:0;stroke:#840000;stroke-width:8.34646;stroke-linecap:round;stroke-linejoin:round;stroke-opacity:1"
       id="g278">
      <circle
         cx="36000"
         cy="44200"
         r="200"
         id="circle274" />
      <circle
         cx="36000"
         cy="45800"
         r="200"
         id="circle276" />
    </g>
    <g
       style="fill:#840000;fill-opacity:0;stroke:#840000;stroke-width:60;stroke-linecap:round;stroke-linejoin:round;stroke-opacity:1"
       id="g288">
      <path
         style="fill:none;fill-opacity:0;stroke:#840000;stroke-width:60;stroke-linecap:round;stroke-linejoin:round;stroke-opacity:1"
         d="m 36500,45000 h 700"
         id="path280" />
      <path
         style="fill:none;fill-opacity:0;stroke:#840000;stroke-width:60;stroke-linecap:round;stroke-linejoin:round;stroke-opacity:1"
         d="M 36500,46000 V 44000"
         id="path282" />
      <path
         d="M 36000,44000 V 43000"
         id="path284" />
      <path
         d="m 36000,46000 v 1000"
         id="path286" />
    </g>
    <g
       style="fill:#008484;fill-opacity:0;stroke:#008484;stroke-width:60;stroke-linecap:round;stroke-linejoin:round;stroke-opacity:1"
       id="g316">
      <text
         x="38725.551"
         y="45250"
         textLength="2488.5828"
         font-size="666.654px"
         lengthAdjust="spacingAndGlyphs"
         text-anchor="middle"
         opacity="0"
         id="text290">Button</text>
      <g
         class="stroked-text"
         id="g314">
        <desc
           id="desc292">Button</desc>
        <path
           d="m 37796,44964 72,24 24,23 24,48 v 71 l -24,48 -24,24 -48,24 h -190 v -500 h 166 l 48,24 24,23 24,48 v 48 l -24,47 -24,24 -48,24 h -166"
           id="path294" />
        <path
           d="m 38344,44892 v 334"
           id="path296" />
        <path
           d="m 38130,44892 v 262 l 24,48 47,24 h 72 l 47,-24 24,-24"
           id="path298" />
        <path
           d="m 38511,44892 h 190"
           id="path300" />
        <path
           d="m 38582,44726 v 428 l 24,48 48,24 h 47"
           id="path302" />
        <path
           d="m 38796,44892 h 191"
           id="path304" />
        <path
           d="m 38868,44726 v 428 l 24,48 47,24 h 48"
           id="path306" />
        <path
           d="m 39225,45226 -48,-24 -23,-24 -24,-48 v -142 l 24,-48 23,-24 48,-24 h 71 l 48,24 24,24 24,48 v 142 l -24,48 -24,24 -48,24 h -71"
           id="path308" />
        <path
           d="m 39606,44892 v 334"
           id="path310" />
        <path
           d="m 39606,44940 24,-24 47,-24 h 72 l 47,24 24,48 v 262"
           id="path312" />
      </g>
    </g>
  </g>
  <g
     style="fill:#008484;fill-opacity:0;stroke:#008484;stroke-width:60;stroke-linecap:round;stroke-linejoin:round;stroke-opacity:1"
     id="g418"
     transform="translate(-31329.852,-30028.992)">
    <g
       id="g320" />
    <g
       style="fill:#840000;fill-opacity:0;stroke:#840000;stroke-width:60;stroke-linecap:round;stroke-linejoin:round;stroke-opacity:1"
       id="g322" />
    <g
       style="fill:#ffffc2;fill-opacity:0;stroke:#ffffc2;stroke-width:60;stroke-linecap:round;stroke-linejoin:round;stroke-opacity:1"
       id="g324" />
    <g
       style="fill:#ffffc2;fill-opacity:0.6;stroke:#ffffc2;stroke-width:0.03937;stroke-linecap:round;stroke-linejoin:round;stroke-opacity:1"
       id="g328">
      <path
         d="m 45002.618,42499.998 a 1500,1500 0 0 0 0,-2999.996 L 45000,41000 Z"
         id="path326" />
    </g>
    <g
       style="fill:#ffffc2;fill-opacity:0;stroke:#ffffc2;stroke-width:0.03937;stroke-linecap:round;stroke-linejoin:round;stroke-opacity:1"
       id="g332">
      <path
         d="m 45002.618,42499.998 a 1500,1500 0 0 0 0,-2999.996"
         id="path330" />
    </g>
    <g
       style="fill:#840000;fill-opacity:0;stroke:#840000;stroke-width:0.03937;stroke-linecap:round;stroke-linejoin:round;stroke-opacity:1"
       id="g334" />
    <g
       style="fill:#840000;fill-opacity:0;stroke:#840000;stroke-width:100;stroke-linecap:round;stroke-linejoin:round;stroke-opacity:1"
       id="g338">
      <path
         d="m 45002.618,42499.998 a 1500,1500 0 0 0 0,-2999.996"
         id="path336" />
    </g>
    <g
       style="fill:#ffffc2;fill-opacity:0;stroke:#ffffc2;stroke-width:100;stroke-linecap:round;stroke-linejoin:round;stroke-opacity:1"
       id="g340" />
    <g
       style="fill:#ffffc2;fill-opacity:0.6;stroke:#ffffc2;stroke-width:0.03937;stroke-linecap:round;stroke-linejoin:round;stroke-opacity:1"
       id="g344">
      <path
         style="fill:#ffffc2;fill-opacity:0.6;fill-rule:evenodd;stroke:#ffffc2;stroke-width:0.03937;stroke-linecap:round;stroke-linejoin:round;stroke-opacity:1"
         d="m 45000,39500 h -1500 v 3000 h 1500"
         id="path342" />
    </g>
    <g
       style="fill:#840000;fill-opacity:0.6;stroke:#840000;stroke-width:0.03937;stroke-linecap:round;stroke-linejoin:round;stroke-opacity:1"
       id="g346" />
    <g
       style="fill:#840000;fill-opacity:0;stroke:#840000;stroke-width:100;stroke-linecap:round;stroke-linejoin:round;stroke-opacity:1"
       id="g354">
      <path
         style="fill:none;fill-opacity:0;stroke:#840000;stroke-width:100;stroke-linecap:round;stroke-linejoin:round;stroke-opacity:1"
         d="m 45000,39500 h -1500 v 3000 h 1500"
         id="path348" />
      <path
         d="m 45002.618,42499.998 a 1500,1500 0 0 0 0,-2999.996"
         id="path350" />
      <path
         style="fill:none;fill-opacity:0;stroke:#840000;stroke-width:100;stroke-linecap:round;stroke-linejoin:round;stroke-opacity:1"
         d="m 45000,39500 h -1500 v 3000 h 1500"
         id="path352" />
    </g>
    <g
       style="fill:#840000;fill-opacity:0;stroke:#840000;stroke-width:60;stroke-linecap:round;stroke-linejoin:round;stroke-opacity:1"
       id="g390">
      <path
         d="M 43500,40000 H 42000"
         id="path356" />
      <text
         x="42750"
         y="39900"
         textLength="536.18109"
         font-size="666.654px"
         lengthAdjust="spacingAndGlyphs"
         text-anchor="middle"
         opacity="0"
         id="text358">1</text>
      <g
         class="stroked-text"
         id="g366">
        <desc
           id="desc360">1</desc>
        <path
           d="m 42892,39876 h -285"
           id="path362" />
        <path
           d="m 42750,39876 v -500 l -48,71 -48,48 -47,24"
           id="path364" />
      </g>
      <path
         d="M 43500,42000 H 42000"
         id="path368" />
      <text
         x="42750"
         y="41900"
         textLength="536.18109"
         font-size="666.654px"
         lengthAdjust="spacingAndGlyphs"
         text-anchor="middle"
         opacity="0"
         id="text370">2</text>
      <g
         class="stroked-text"
         id="g376">
        <desc
           id="desc372">2</desc>
        <path
           d="m 42607,41423 23,-23 48,-24 h 119 l 48,24 24,23 23,48 v 48 l -23,71 -286,286 h 309"
           id="path374" />
      </g>
      <circle
         cx="46750"
         cy="41000"
         r="250"
         id="circle378" />
      <path
         d="m 47000,41000 h 1000"
         id="path380" />
      <text
         x="47250"
         y="40900"
         textLength="536.18109"
         font-size="666.654px"
         lengthAdjust="spacingAndGlyphs"
         text-anchor="middle"
         opacity="0"
         id="text382">3</text>
      <g
         class="stroked-text"
         id="g388">
        <desc
           id="desc384">3</desc>
        <path
           d="m 47083,40376 h 309 l -166,190 h 71 l 48,24 24,24 23,47 v 119 l -23,48 -24,24 -48,24 h -143 l -47,-24 -24,-24"
           id="path386" />
      </g>
    </g>
    <g
       style="fill:#008484;fill-opacity:0;stroke:#008484;stroke-width:60;stroke-linecap:round;stroke-linejoin:round;stroke-opacity:1"
       id="g416">
      <text
         x="45000"
         y="38920"
         textLength="2988.5828"
         font-size="666.654px"
         lengthAdjust="spacingAndGlyphs"
         text-anchor="middle"
         opacity="0"
         id="text392">74HC00</text>
      <g
         class="stroked-text"
         id="g414">
        <desc
           id="desc394">74HC00</desc>
        <path
           d="m 43607,38396 h 333 l -214,500"
           id="path396" />
        <path
           d="m 44345,38562 v 334"
           id="path398" />
        <path
           d="m 44226,38372 -119,357 h 309"
           id="path400" />
        <path
           d="m 44607,38896 v -500"
           id="path402" />
        <path
           d="m 44607,38634 h 285"
           id="path404" />
        <path
           d="m 44892,38896 v -500"
           id="path406" />
        <path
           d="m 45416,38848 -24,24 -71,24 h -48 l -71,-24 -48,-48 -24,-47 -23,-96 v -71 l 23,-95 24,-48 48,-47 71,-24 h 48 l 71,24 24,23"
           id="path408" />
        <path
           d="m 45726,38396 h 47 l 48,24 24,23 24,48 23,95 v 119 l -23,95 -24,48 -24,24 -48,24 h -47 l -48,-24 -24,-24 -24,-48 -23,-95 v -119 l 23,-95 24,-48 24,-23 48,-24"
           id="path410" />
        <path
           d="m 46202,38396 h 48 l 47,24 24,23 24,48 24,95 v 119 l -24,95 -24,48 -24,24 -47,24 h -48 l -48,-24 -24,-24 -23,-48 -24,-95 v -119 l 24,-95 23,-48 24,-23 48,-24"
           id="path412" />
      </g>
    </g>
  </g>
  <g
     style="fill:#008484;fill-opacity:0;stroke:#008484;stroke-width:62.5197;stroke-linecap:round;stroke-linejoin:round;stroke-opacity:1"
     id="g420"
     transform="translate(-31329.852,-30028.992)" />
  <g
     style="fill:#008484;fill-opacity:0;stroke:#008484;stroke-width:60;stroke-linecap:round;stroke-linejoin:round;stroke-opacity:1"
     id="g422"
     transform="translate(-31329.852,-30028.992)" />
  <g
     style="fill:#840000;fill-opacity:0;stroke:#840000;stroke-width:60;stroke-linecap:round;stroke-linejoin:round;stroke-opacity:1"
     id="g440"
     transform="translate(-31329.852,-30028.992)">
    <text
       x="58150"
       y="41250"
       textLength="1821.8898"
       font-size="666.654px"
       lengthAdjust="spacingAndGlyphs"
       text-anchor="start"
       opacity="0"
       id="text424">GPIO</text>
    <g
       class="stroked-text"
       id="g436">
      <desc
         id="desc426">GPIO</desc>
      <path
         d="m 58560,40750 -47,-24 h -72 l -71,24 -48,47 -23,48 -24,95 v 71 l 24,96 23,47 48,48 71,24 h 48 l 71,-24 24,-24 v -167 h -95"
         id="path428" />
      <path
         d="m 58799,41226 v -500 h 190 l 48,24 23,23 24,48 v 71 l -24,48 -23,24 -48,24 h -190"
         id="path430" />
      <path
         d="m 59299,41226 v -500"
         id="path432" />
      <path
         d="m 59632,40726 h 95 l 48,24 47,47 24,95 v 167 l -24,95 -47,48 -48,24 h -95 l -48,-24 -47,-48 -24,-95 v -167 l 24,-95 47,-47 48,-24"
         id="path434" />
    </g>
    <path
       style="fill:none;fill-opacity:0;stroke:#840000;stroke-width:60;stroke-linecap:round;stroke-linejoin:round;stroke-opacity:1"
       d="m 58000,41000 v 462.638 h 2187.047 l 400,-462.638 -400,-462.638 H 58000 Z"
       id="path438" />
  </g>
  <g
     style="fill:#008400;fill-opacity:0;stroke:#008400;stroke-width:60;stroke-linecap:round;stroke-linejoin:round;stroke-opacity:1"
     id="g478"
     transform="translate(-31329.852,-30028.992)">
    <path
       d="M 36000,40000 V 39000"
       id="path442" />
    <path
       d="M 36000,42000 V 40000"
       id="path444" />
    <path
       d="M 36000,43000 V 42000"
       id="path446" />
    <path
       d="m 49000,40000 h 1000"
       id="path448" />
    <path
       d="M 49000,42000 V 41000"
       id="path450" />
    <path
       d="M 50000,42000 H 49000"
       id="path452" />
    <path
       d="m 50500,37000 h 6500"
       id="path454" />
    <path
       d="M 37000,40000 H 36000"
       id="path456" />
    <path
       d="m 40000,40000 h 1000"
       id="path458" />
    <path
       d="M 41000,40000 V 37000"
       id="path460" />
    <path
       d="M 42000,42000 H 36000"
       id="path462" />
    <path
       d="m 41000,37000 h 6500"
       id="path464" />
    <path
       d="m 41000,40000 h 1000"
       id="path466" />
    <path
       d="m 48000,41000 h 1000"
       id="path468" />
    <path
       d="M 49000,41000 V 40000"
       id="path470" />
    <path
       d="m 56000,41000 h 1000"
       id="path472" />
    <path
       d="m 57000,37000 v 4000"
       id="path474" />
    <path
       d="m 57000,41000 h 1000"
       id="path476" />
  </g>
  <g
     style="fill:#008400;fill-opacity:1;stroke:#008400;stroke-width:60;stroke-linecap:round;stroke-linejoin:round;stroke-opacity:1"
     id="g490"
     transform="translate(-31329.852,-30028.992)">
    <circle
       cx="36000"
       cy="40000"
       r="200"
       id="circle480" />
    <circle
       cx="36000"
       cy="42000"
       r="200"
       id="circle482" />
    <circle
       cx="41000"
       cy="40000"
       r="200"
       id="circle484" />
    <circle
       cx="49000"
       cy="41000"
       r="200"
       id="circle486" />
    <circle
       cx="57000"
       cy="41000"
       r="200"
       id="circle488" />
  </g>
</svg>
