<?xml version="1.0" encoding="UTF-8" standalone="no"?>
<svg
   xmlns:dc="http://purl.org/dc/elements/1.1/"
   xmlns:cc="http://creativecommons.org/ns#"
   xmlns:rdf="http://www.w3.org/1999/02/22-rdf-syntax-ns#"
   xmlns:svg="http://www.w3.org/2000/svg"
   xmlns="http://www.w3.org/2000/svg"
   version="1.1"
   width="7.6761498cm"
   height="5.0717335cm"
   viewBox="0 0 30221.062 19967.456"
   id="svg480">
  <metadata
     id="metadata486">
    <rdf:RDF>
      <cc:Work
         rdf:about="">
        <dc:format>image/svg+xml</dc:format>
        <dc:type
           rdf:resource="http://purl.org/dc/dcmitype/StillImage" />
      </cc:Work>
    </rdf:RDF>
  </metadata>
  <defs
     id="defs484" />
  <title
     id="title2">SVG Picture created as double-74HC14-pull-up.svg date 2021/05/21 12:52:31 </title>
  <desc
     id="desc4">Picture generated by Eeschema-SVG </desc>
  <g
     style="fill:#000000;fill-opacity:1;stroke:#000000;stroke-linecap:round;stroke-linejoin:round;stroke-opacity:1"
     id="g6"
     transform="translate(-35832.992,-19258.992)" />
  <g
     style="fill:#000000;fill-opacity:0;stroke:#000000;stroke-width:60;stroke-linecap:round;stroke-linejoin:round;stroke-opacity:1"
     id="g86"
     transform="translate(-35832.992,-19258.992)">
    <g
       id="g8" />
    <g
       style="fill:#840000;fill-opacity:0;stroke:#840000;stroke-width:60;stroke-linecap:round;stroke-linejoin:round;stroke-opacity:1"
       id="g10" />
    <g
       style="fill:#ffffc2;fill-opacity:0;stroke:#ffffc2;stroke-width:60;stroke-linecap:round;stroke-linejoin:round;stroke-opacity:1"
       id="g12" />
    <g
       style="fill:#ffffc2;fill-opacity:0.6;stroke:#ffffc2;stroke-width:0.03937;stroke-linecap:round;stroke-linejoin:round;stroke-opacity:1"
       id="g16">
      <path
         style="fill:#ffffc2;fill-opacity:0.6;fill-rule:evenodd;stroke:#ffffc2;stroke-width:0.03937;stroke-linecap:round;stroke-linejoin:round;stroke-opacity:1"
         d="m 44000,27500 v 3000 l 3000,-1500 z"
         id="path14" />
    </g>
    <g
       style="fill:#840000;fill-opacity:0.6;stroke:#840000;stroke-width:0.03937;stroke-linecap:round;stroke-linejoin:round;stroke-opacity:1"
       id="g18" />
    <g
       style="fill:#840000;fill-opacity:0;stroke:#840000;stroke-width:100;stroke-linecap:round;stroke-linejoin:round;stroke-opacity:1"
       id="g24">
      <path
         style="fill:none;fill-opacity:0;stroke:#840000;stroke-width:100;stroke-linecap:round;stroke-linejoin:round;stroke-opacity:1"
         d="m 44000,27500 v 3000 l 3000,-1500 z"
         id="path20" />
      <path
         style="fill:none;fill-opacity:0;stroke:#840000;stroke-width:100;stroke-linecap:round;stroke-linejoin:round;stroke-opacity:1"
         d="m 44000,27500 v 3000 l 3000,-1500 z"
         id="path22" />
    </g>
    <g
       style="fill:#840000;fill-opacity:0;stroke:#840000;stroke-width:60;stroke-linecap:round;stroke-linejoin:round;stroke-opacity:1"
       id="g54">
      <path
         style="fill:none;fill-opacity:0;stroke:#840000;stroke-width:60;stroke-linecap:round;stroke-linejoin:round;stroke-opacity:1"
         d="m 44750,29500 v -1000 h 500"
         id="path26" />
      <path
         style="fill:none;fill-opacity:0;stroke:#840000;stroke-width:60;stroke-linecap:round;stroke-linejoin:round;stroke-opacity:1"
         d="m 44500,29500 h 750 v -1000 h 250"
         id="path28" />
      <path
         d="M 44000,29000 H 42500"
         id="path30" />
      <text
         x="43250"
         y="28900"
         textLength="538.70081"
         font-size="666.654px"
         lengthAdjust="spacingAndGlyphs"
         text-anchor="middle"
         opacity="0"
         id="text32">1</text>
      <g
         class="stroked-text"
         id="g40">
        <desc
           id="desc34">1</desc>
        <path
           d="m 43392,28876 h -285"
           id="path36" />
        <path
           d="m 43250,28876 v -500 l -48,71 -48,48 -47,24"
           id="path38" />
      </g>
      <circle
         cx="47250"
         cy="29000"
         r="250"
         id="circle42" />
      <path
         d="m 47500,29000 h 1000"
         id="path44" />
      <text
         x="47750"
         y="28900"
         textLength="536.18109"
         font-size="666.654px"
         lengthAdjust="spacingAndGlyphs"
         text-anchor="middle"
         opacity="0"
         id="text46">2</text>
      <g
         class="stroked-text"
         id="g52">
        <desc
           id="desc48">2</desc>
        <path
           d="m 47607,28423 23,-23 48,-24 h 119 l 48,24 24,23 23,48 v 48 l -23,71 -286,286 h 309"
           id="path50" />
      </g>
    </g>
    <g
       style="fill:#008484;fill-opacity:0;stroke:#008484;stroke-width:60;stroke-linecap:round;stroke-linejoin:round;stroke-opacity:1"
       id="g84">
      <text
         x="45500"
         y="27250"
         textLength="2988.5828"
         font-size="666.654px"
         lengthAdjust="spacingAndGlyphs"
         text-anchor="middle"
         opacity="0"
         id="text56">74HC14</text>
      <g
         class="stroked-text"
         id="g82">
        <desc
           id="desc58">74HC14</desc>
        <path
           d="m 44107,26726 h 333 l -214,500"
           id="path60" />
        <path
           d="m 44845,26892 v 334"
           id="path62" />
        <path
           d="m 44726,26702 -119,357 h 309"
           id="path64" />
        <path
           d="m 45107,27226 v -500"
           id="path66" />
        <path
           d="m 45107,26964 h 285"
           id="path68" />
        <path
           d="m 45392,27226 v -500"
           id="path70" />
        <path
           d="m 45916,27178 -24,24 -71,24 h -48 l -71,-24 -48,-48 -24,-47 -23,-96 v -71 l 23,-95 24,-48 48,-47 71,-24 h 48 l 71,24 24,23"
           id="path72" />
        <path
           d="m 46392,27226 h -285"
           id="path74" />
        <path
           d="m 46250,27226 v -500 l -48,71 -48,48 -47,24"
           id="path76" />
        <path
           d="m 46821,26892 v 334"
           id="path78" />
        <path
           d="m 46702,26702 -119,357 h 309"
           id="path80" />
      </g>
    </g>
  </g>
  <g
     style="fill:#008484;fill-opacity:0;stroke:#008484;stroke-width:60;stroke-linecap:round;stroke-linejoin:round;stroke-opacity:1"
     id="g112"
     transform="translate(-35832.992,-19258.992)">
    <g
       id="g88" />
    <g
       style="fill:#840000;fill-opacity:0;stroke:#840000;stroke-width:60;stroke-linecap:round;stroke-linejoin:round;stroke-opacity:1"
       id="g96">
      <path
         style="fill:none;fill-opacity:0;stroke:#840000;stroke-width:60;stroke-linecap:round;stroke-linejoin:round;stroke-opacity:1"
         d="m 40700,24500 300,-500"
         id="path90" />
      <path
         style="fill:none;fill-opacity:0;stroke:#840000;stroke-width:60;stroke-linecap:round;stroke-linejoin:round;stroke-opacity:1"
         d="M 41000,25000 V 24000"
         id="path92" />
      <path
         style="fill:none;fill-opacity:0;stroke:#840000;stroke-width:60;stroke-linecap:round;stroke-linejoin:round;stroke-opacity:1"
         d="m 41000,24000 300,500"
         id="path94" />
    </g>
    <g
       style="fill:#008484;fill-opacity:0;stroke:#008484;stroke-width:60;stroke-linecap:round;stroke-linejoin:round;stroke-opacity:1"
       id="g110">
      <text
         x="41000"
         y="23750"
         textLength="1488.5826"
         font-size="666.654px"
         lengthAdjust="spacingAndGlyphs"
         text-anchor="middle"
         opacity="0"
         id="text98">VCC</text>
      <g
         class="stroked-text"
         id="g108">
        <desc
           id="desc100">VCC</desc>
        <path
           d="m 40333,23226 167,500 166,-500"
           id="path102" />
        <path
           d="m 41119,23678 -24,24 -72,24 h -47 l -72,-24 -47,-48 -24,-47 -24,-96 v -71 l 24,-95 24,-48 47,-47 72,-24 h 47 l 72,24 24,23"
           id="path104" />
        <path
           d="m 41619,23678 -24,24 -72,24 h -47 l -72,-24 -47,-48 -24,-47 -24,-96 v -71 l 24,-95 24,-48 47,-47 72,-24 h 47 l 72,24 24,23"
           id="path106" />
      </g>
    </g>
  </g>
  <g
     style="fill:#008484;fill-opacity:0;stroke:#008484;stroke-width:60;stroke-linecap:round;stroke-linejoin:round;stroke-opacity:1"
     id="g162"
     transform="translate(-35832.992,-19258.992)">
    <g
       id="g114" />
    <g
       style="fill:#840000;fill-opacity:0;stroke:#840000;stroke-width:60;stroke-linecap:round;stroke-linejoin:round;stroke-opacity:1"
       id="g116" />
    <g
       style="fill:#840000;fill-opacity:0;stroke:#840000;stroke-width:100;stroke-linecap:round;stroke-linejoin:round;stroke-opacity:1"
       id="g120">
      <rect
         x="40600"
         y="25500"
         width="800"
         height="2000"
         rx="0.000000"
         id="rect118" />
    </g>
    <g
       style="fill:#840000;fill-opacity:0;stroke:#840000;stroke-width:60;stroke-linecap:round;stroke-linejoin:round;stroke-opacity:1"
       id="g126">
      <path
         d="m 41000,25500 v -500"
         id="path122" />
      <path
         d="m 41000,27500 v 500"
         id="path124" />
    </g>
    <g
       style="fill:#008484;fill-opacity:0;stroke:#008484;stroke-width:60;stroke-linecap:round;stroke-linejoin:round;stroke-opacity:1"
       id="g160">
      <text
         x="42519.332"
         y="26499.961"
         textLength="1036.1812"
         font-size="666.654px"
         lengthAdjust="spacingAndGlyphs"
         text-anchor="middle"
         opacity="0"
         id="text128">R1</text>
      <g
         class="stroked-text"
         id="g140">
        <desc
           id="desc130">R1</desc>
        <path
           d="m 42435,26476 -166,-238"
           id="path132" />
        <path
           d="m 42150,26476 v -500 h 190 l 48,23 24,24 23,48 v 71 l -23,48 -24,24 -48,24 h -190"
           id="path134" />
        <path
           d="m 42912,26476 h -286"
           id="path136" />
        <path
           d="m 42769,26476 v -500 l -48,71 -47,48 -48,23"
           id="path138" />
      </g>
      <text
         x="42757.441"
         y="27249.961"
         textLength="1512.3622"
         font-size="666.654px"
         lengthAdjust="spacingAndGlyphs"
         text-anchor="middle"
         opacity="0"
         id="text142">10K</text>
      <g
         class="stroked-text"
         id="g158">
        <desc
           id="desc144">10K</desc>
        <path
           d="m 42412,27226 h -286"
           id="path146" />
        <path
           d="m 42269,27226 v -500 l -48,71 -47,48 -48,23"
           id="path148" />
        <path
           d="m 42721,26726 h 48 l 47,23 24,24 24,48 24,95 v 119 l -24,95 -24,48 -24,24 -47,24 h -48 l -47,-24 -24,-24 -24,-48 -24,-95 v -119 l 24,-95 24,-48 24,-24 47,-23"
           id="path150" />
        <path
           d="m 43102,27226 v -500"
           id="path152" />
        <path
           d="m 43388,27226 -214,-286"
           id="path154" />
        <path
           d="m 43388,26726 -286,285"
           id="path156" />
      </g>
    </g>
  </g>
  <g
     style="fill:#008484;fill-opacity:0;stroke:#008484;stroke-width:60;stroke-linecap:round;stroke-linejoin:round;stroke-opacity:1"
     id="g210"
     transform="translate(-35832.992,-19258.992)">
    <g
       id="g164" />
    <g
       style="fill:#840000;fill-opacity:0;stroke:#840000;stroke-width:60;stroke-linecap:round;stroke-linejoin:round;stroke-opacity:1"
       id="g166" />
    <g
       style="fill:#840000;fill-opacity:0;stroke:#840000;stroke-width:100;stroke-linecap:round;stroke-linejoin:round;stroke-opacity:1"
       id="g170">
      <rect
         x="49000"
         y="28600"
         width="2000"
         height="800"
         rx="0.000000"
         id="rect168" />
    </g>
    <g
       style="fill:#840000;fill-opacity:0;stroke:#840000;stroke-width:60;stroke-linecap:round;stroke-linejoin:round;stroke-opacity:1"
       id="g176">
      <path
         d="m 49000,29000 h -500"
         id="path172" />
      <path
         d="m 51000,29000 h 500"
         id="path174" />
    </g>
    <g
       style="fill:#008484;fill-opacity:0;stroke:#008484;stroke-width:60;stroke-linecap:round;stroke-linejoin:round;stroke-opacity:1"
       id="g208">
      <text
         x="49999.961"
         y="27249.961"
         textLength="1036.1812"
         font-size="666.654px"
         lengthAdjust="spacingAndGlyphs"
         text-anchor="middle"
         opacity="0"
         id="text178">R2</text>
      <g
         class="stroked-text"
         id="g188">
        <desc
           id="desc180">R2</desc>
        <path
           d="m 49916,27226 -167,-238"
           id="path182" />
        <path
           d="m 49630,27226 v -500 h 191 l 47,23 24,24 24,48 v 71 l -24,48 -24,24 -47,24 h -191"
           id="path184" />
        <path
           d="m 50107,26773 23,-24 48,-23 h 119 l 48,23 23,24 24,48 v 47 l -24,72 -285,286 h 309"
           id="path186" />
      </g>
      <text
         x="50000"
         y="28249.961"
         textLength="1512.3622"
         font-size="666.654px"
         lengthAdjust="spacingAndGlyphs"
         text-anchor="middle"
         opacity="0"
         id="text190">10K</text>
      <g
         class="stroked-text"
         id="g206">
        <desc
           id="desc192">10K</desc>
        <path
           d="m 49654,28226 h -285"
           id="path194" />
        <path
           d="m 49511,28226 v -500 l -47,71 -48,48 -47,23"
           id="path196" />
        <path
           d="m 49964,27726 h 47 l 48,23 24,24 24,48 23,95 v 119 l -23,95 -24,48 -24,24 -48,24 h -47 l -48,-24 -24,-24 -23,-48 -24,-95 v -119 l 24,-95 23,-48 24,-24 48,-23"
           id="path198" />
        <path
           d="m 50345,28226 v -500"
           id="path200" />
        <path
           d="m 50630,28226 -214,-286"
           id="path202" />
        <path
           d="m 50630,27726 -285,285"
           id="path204" />
      </g>
    </g>
  </g>
  <g
     style="fill:#008484;fill-opacity:0;stroke:#008484;stroke-width:60;stroke-linecap:round;stroke-linejoin:round;stroke-opacity:1"
     id="g232"
     transform="translate(-35832.992,-19258.992)">
    <g
       id="g212" />
    <g
       style="fill:#840000;fill-opacity:0;stroke:#840000;stroke-width:60;stroke-linecap:round;stroke-linejoin:round;stroke-opacity:1"
       id="g216">
      <path
         style="fill:none;fill-opacity:0;stroke:#840000;stroke-width:60;stroke-linecap:round;stroke-linejoin:round;stroke-opacity:1"
         d="m 52500,33000 v 500 h 500 l -500,500 -500,-500 h 500"
         id="path214" />
    </g>
    <g
       style="fill:#008484;fill-opacity:0;stroke:#008484;stroke-width:60;stroke-linecap:round;stroke-linejoin:round;stroke-opacity:1"
       id="g230">
      <text
         x="52500"
         y="35250"
         textLength="1583.8188"
         font-size="666.654px"
         lengthAdjust="spacingAndGlyphs"
         text-anchor="middle"
         opacity="0"
         id="text218">GND</text>
      <g
         class="stroked-text"
         id="g228">
        <desc
           id="desc220">GND</desc>
        <path
           d="m 52119,34750 -48,-24 h -71 l -72,24 -48,47 -23,48 -24,95 v 71 l 24,96 23,47 48,48 72,24 h 47 l 72,-24 23,-24 v -167 h -95"
           id="path222" />
        <path
           d="m 52357,35226 v -500 l 285,500 v -500"
           id="path224" />
        <path
           d="m 52880,35226 v -500 h 120 l 71,24 48,47 23,48 24,95 v 71 l -24,96 -23,47 -48,48 -71,24 h -120"
           id="path226" />
      </g>
    </g>
  </g>
  <g
     style="fill:#008484;fill-opacity:0;stroke:#008484;stroke-width:60;stroke-linecap:round;stroke-linejoin:round;stroke-opacity:1"
     id="g312"
     transform="translate(-35832.992,-19258.992)">
    <g
       id="g234" />
    <g
       style="fill:#840000;fill-opacity:0;stroke:#840000;stroke-width:60;stroke-linecap:round;stroke-linejoin:round;stroke-opacity:1"
       id="g236" />
    <g
       style="fill:#ffffc2;fill-opacity:0;stroke:#ffffc2;stroke-width:60;stroke-linecap:round;stroke-linejoin:round;stroke-opacity:1"
       id="g238" />
    <g
       style="fill:#ffffc2;fill-opacity:0.6;stroke:#ffffc2;stroke-width:0.03937;stroke-linecap:round;stroke-linejoin:round;stroke-opacity:1"
       id="g242">
      <path
         style="fill:#ffffc2;fill-opacity:0.6;fill-rule:evenodd;stroke:#ffffc2;stroke-width:0.03937;stroke-linecap:round;stroke-linejoin:round;stroke-opacity:1"
         d="m 55000,27500 v 3000 l 3000,-1500 z"
         id="path240" />
    </g>
    <g
       style="fill:#840000;fill-opacity:0.6;stroke:#840000;stroke-width:0.03937;stroke-linecap:round;stroke-linejoin:round;stroke-opacity:1"
       id="g244" />
    <g
       style="fill:#840000;fill-opacity:0;stroke:#840000;stroke-width:100;stroke-linecap:round;stroke-linejoin:round;stroke-opacity:1"
       id="g250">
      <path
         style="fill:none;fill-opacity:0;stroke:#840000;stroke-width:100;stroke-linecap:round;stroke-linejoin:round;stroke-opacity:1"
         d="m 55000,27500 v 3000 l 3000,-1500 z"
         id="path246" />
      <path
         style="fill:none;fill-opacity:0;stroke:#840000;stroke-width:100;stroke-linecap:round;stroke-linejoin:round;stroke-opacity:1"
         d="m 55000,27500 v 3000 l 3000,-1500 z"
         id="path248" />
    </g>
    <g
       style="fill:#840000;fill-opacity:0;stroke:#840000;stroke-width:60;stroke-linecap:round;stroke-linejoin:round;stroke-opacity:1"
       id="g280">
      <path
         style="fill:none;fill-opacity:0;stroke:#840000;stroke-width:60;stroke-linecap:round;stroke-linejoin:round;stroke-opacity:1"
         d="m 55750,29500 v -1000 h 500"
         id="path252" />
      <path
         style="fill:none;fill-opacity:0;stroke:#840000;stroke-width:60;stroke-linecap:round;stroke-linejoin:round;stroke-opacity:1"
         d="m 55500,29500 h 750 v -1000 h 250"
         id="path254" />
      <path
         d="M 55000,29000 H 53500"
         id="path256" />
      <text
         x="54250"
         y="28900"
         textLength="536.18109"
         font-size="666.654px"
         lengthAdjust="spacingAndGlyphs"
         text-anchor="middle"
         opacity="0"
         id="text258">3</text>
      <g
         class="stroked-text"
         id="g264">
        <desc
           id="desc260">3</desc>
        <path
           d="m 54083,28376 h 309 l -166,190 h 71 l 48,24 24,24 23,47 v 119 l -23,48 -24,24 -48,24 h -143 l -47,-24 -24,-24"
           id="path262" />
      </g>
      <circle
         cx="58250"
         cy="29000"
         r="250"
         id="circle266" />
      <path
         d="m 58500,29000 h 1000"
         id="path268" />
      <text
         x="58750"
         y="28900"
         textLength="536.18109"
         font-size="666.654px"
         lengthAdjust="spacingAndGlyphs"
         text-anchor="middle"
         opacity="0"
         id="text270">4</text>
      <g
         class="stroked-text"
         id="g278">
        <desc
           id="desc272">4</desc>
        <path
           d="m 58845,28542 v 334"
           id="path274" />
        <path
           d="m 58726,28352 -119,357 h 309"
           id="path276" />
      </g>
    </g>
    <g
       style="fill:#008484;fill-opacity:0;stroke:#008484;stroke-width:60;stroke-linecap:round;stroke-linejoin:round;stroke-opacity:1"
       id="g310">
      <text
         x="56500"
         y="27250"
         textLength="2988.5828"
         font-size="666.654px"
         lengthAdjust="spacingAndGlyphs"
         text-anchor="middle"
         opacity="0"
         id="text282">74HC14</text>
      <g
         class="stroked-text"
         id="g308">
        <desc
           id="desc284">74HC14</desc>
        <path
           d="m 55107,26726 h 333 l -214,500"
           id="path286" />
        <path
           d="m 55845,26892 v 334"
           id="path288" />
        <path
           d="m 55726,26702 -119,357 h 309"
           id="path290" />
        <path
           d="m 56107,27226 v -500"
           id="path292" />
        <path
           d="m 56107,26964 h 285"
           id="path294" />
        <path
           d="m 56392,27226 v -500"
           id="path296" />
        <path
           d="m 56916,27178 -24,24 -71,24 h -48 l -71,-24 -48,-48 -24,-47 -23,-96 v -71 l 23,-95 24,-48 48,-47 71,-24 h 48 l 71,24 24,23"
           id="path298" />
        <path
           d="m 57392,27226 h -285"
           id="path300" />
        <path
           d="m 57250,27226 v -500 l -48,71 -48,48 -47,24"
           id="path302" />
        <path
           d="m 57821,26892 v 334"
           id="path304" />
        <path
           d="m 57702,26702 -119,357 h 309"
           id="path306" />
      </g>
    </g>
  </g>
  <g
     style="fill:#008484;fill-opacity:0;stroke:#008484;stroke-width:60;stroke-linecap:round;stroke-linejoin:round;stroke-opacity:1"
     id="g366"
     transform="translate(-35832.992,-19258.992)">
    <g
       id="g314" />
    <g
       style="fill:#840000;fill-opacity:0;stroke:#840000;stroke-width:60;stroke-linecap:round;stroke-linejoin:round;stroke-opacity:1"
       id="g316" />
    <g
       style="fill:#840000;fill-opacity:0;stroke:#840000;stroke-width:200;stroke-linecap:round;stroke-linejoin:round;stroke-opacity:1"
       id="g322">
      <path
         style="fill:none;fill-opacity:0;stroke:#840000;stroke-width:200;stroke-linecap:round;stroke-linejoin:round;stroke-opacity:1"
         d="m 51700,31800 h 1600"
         id="path318" />
      <path
         style="fill:none;fill-opacity:0;stroke:#840000;stroke-width:200;stroke-linecap:round;stroke-linejoin:round;stroke-opacity:1"
         d="m 51700,31200 h 1600"
         id="path320" />
    </g>
    <g
       style="fill:#840000;fill-opacity:0;stroke:#840000;stroke-width:60;stroke-linecap:round;stroke-linejoin:round;stroke-opacity:1"
       id="g328">
      <path
         d="M 52500,31100 V 30000"
         id="path324" />
      <path
         d="m 52500,31900 v 1100"
         id="path326" />
    </g>
    <g
       style="fill:#008484;fill-opacity:0;stroke:#008484;stroke-width:60;stroke-linecap:round;stroke-linejoin:round;stroke-opacity:1"
       id="g364">
      <text
         x="54519.332"
         y="31499.961"
         textLength="1036.1812"
         font-size="666.654px"
         lengthAdjust="spacingAndGlyphs"
         text-anchor="middle"
         opacity="0"
         id="text330">C1</text>
      <g
         class="stroked-text"
         id="g340">
        <desc
           id="desc332">C1</desc>
        <path
           d="m 54435,31428 -23,24 -72,24 h -47 l -72,-24 -47,-48 -24,-47 -24,-96 v -71 l 24,-95 24,-48 47,-48 72,-23 h 47 l 72,23 23,24"
           id="path334" />
        <path
           d="m 54912,31476 h -286"
           id="path336" />
        <path
           d="m 54769,31476 v -500 l -48,71 -47,48 -48,23"
           id="path338" />
      </g>
      <text
         x="55186.023"
         y="32499.961"
         textLength="2369.5276"
         font-size="666.654px"
         lengthAdjust="spacingAndGlyphs"
         text-anchor="middle"
         opacity="0"
         id="text342">100nF</text>
      <g
         class="stroked-text"
         id="g362">
        <desc
           id="desc344">100nF</desc>
        <path
           d="m 54412,32476 h -286"
           id="path346" />
        <path
           d="m 54269,32476 v -500 l -48,71 -47,48 -48,23"
           id="path348" />
        <path
           d="m 54721,31976 h 48 l 47,23 24,24 24,48 24,95 v 119 l -24,95 -24,48 -24,24 -47,24 h -48 l -47,-24 -24,-24 -24,-48 -24,-95 v -119 l 24,-95 24,-48 24,-24 47,-23"
           id="path350" />
        <path
           d="m 55197,31976 h 48 l 48,23 23,24 24,48 24,95 v 119 l -24,95 -24,48 -23,24 -48,24 h -48 l -47,-24 -24,-24 -24,-48 -24,-95 v -119 l 24,-95 24,-48 24,-24 47,-23"
           id="path352" />
        <path
           d="m 55578,32142 v 334"
           id="path354" />
        <path
           d="m 55578,32190 24,-24 48,-24 h 71 l 48,24 24,48 v 262"
           id="path356" />
        <path
           d="m 56197,32214 h -166"
           id="path358" />
        <path
           d="m 56031,32476 v -500 h 238"
           id="path360" />
      </g>
    </g>
  </g>
  <g
     style="fill:#008484;fill-opacity:0;stroke:#008484;stroke-width:60;stroke-linecap:round;stroke-linejoin:round;stroke-opacity:1"
     id="g416"
     transform="translate(-35832.992,-19258.992)">
    <g
       id="g368" />
    <g
       style="fill:#840000;fill-opacity:0;stroke:#840000;stroke-width:60;stroke-linecap:round;stroke-linejoin:round;stroke-opacity:1"
       id="g370" />
    <g
       style="fill:#840000;fill-opacity:0;stroke:#840000;stroke-width:8.34646;stroke-linecap:round;stroke-linejoin:round;stroke-opacity:1"
       id="g376">
      <circle
         cx="41000"
         cy="31800"
         r="200"
         id="circle372" />
      <circle
         cx="41000"
         cy="30200"
         r="200"
         id="circle374" />
    </g>
    <g
       style="fill:#840000;fill-opacity:0;stroke:#840000;stroke-width:60;stroke-linecap:round;stroke-linejoin:round;stroke-opacity:1"
       id="g386">
      <path
         style="fill:none;fill-opacity:0;stroke:#840000;stroke-width:60;stroke-linecap:round;stroke-linejoin:round;stroke-opacity:1"
         d="m 40500,31000 h -700"
         id="path378" />
      <path
         style="fill:none;fill-opacity:0;stroke:#840000;stroke-width:60;stroke-linecap:round;stroke-linejoin:round;stroke-opacity:1"
         d="m 40500,30000 v 2000"
         id="path380" />
      <path
         d="m 41000,32000 v 1000"
         id="path382" />
      <path
         d="M 41000,30000 V 29000"
         id="path384" />
    </g>
    <g
       style="fill:#008484;fill-opacity:0;stroke:#008484;stroke-width:60;stroke-linecap:round;stroke-linejoin:round;stroke-opacity:1"
       id="g414">
      <text
         x="42745.551"
         y="31999.922"
         textLength="2488.5828"
         font-size="666.654px"
         lengthAdjust="spacingAndGlyphs"
         text-anchor="middle"
         opacity="0"
         id="text388">Button</text>
      <g
         class="stroked-text"
         id="g412">
        <desc
           id="desc390">Button</desc>
        <path
           d="m 41816,31714 72,23 24,24 24,48 v 71 l -24,48 -24,24 -48,24 h -190 v -500 h 166 l 48,23 24,24 24,48 v 47 l -24,48 -24,24 -48,24 h -166"
           id="path392" />
        <path
           d="m 42364,31642 v 334"
           id="path394" />
        <path
           d="m 42150,31642 v 262 l 24,48 47,24 h 72 l 47,-24 24,-24"
           id="path396" />
        <path
           d="m 42531,31642 h 190"
           id="path398" />
        <path
           d="m 42602,31476 v 428 l 24,48 48,24 h 47"
           id="path400" />
        <path
           d="m 42816,31642 h 191"
           id="path402" />
        <path
           d="m 42888,31476 v 428 l 24,48 47,24 h 48"
           id="path404" />
        <path
           d="m 43245,31976 -48,-24 -23,-24 -24,-48 v -143 l 24,-47 23,-24 48,-24 h 71 l 48,24 24,24 24,47 v 143 l -24,48 -24,24 -48,24 h -71"
           id="path406" />
        <path
           d="m 43626,31642 v 334"
           id="path408" />
        <path
           d="m 43626,31690 24,-24 47,-24 h 72 l 47,24 24,48 v 262"
           id="path410" />
      </g>
    </g>
  </g>
  <g
     style="fill:#008484;fill-opacity:0;stroke:#008484;stroke-width:60;stroke-linecap:round;stroke-linejoin:round;stroke-opacity:1"
     id="g438"
     transform="translate(-35832.992,-19258.992)">
    <g
       id="g418" />
    <g
       style="fill:#840000;fill-opacity:0;stroke:#840000;stroke-width:60;stroke-linecap:round;stroke-linejoin:round;stroke-opacity:1"
       id="g422">
      <path
         style="fill:none;fill-opacity:0;stroke:#840000;stroke-width:60;stroke-linecap:round;stroke-linejoin:round;stroke-opacity:1"
         d="m 41000,33000 v 500 h 500 l -500,500 -500,-500 h 500"
         id="path420" />
    </g>
    <g
       style="fill:#008484;fill-opacity:0;stroke:#008484;stroke-width:60;stroke-linecap:round;stroke-linejoin:round;stroke-opacity:1"
       id="g436">
      <text
         x="41000"
         y="35250"
         textLength="1583.8188"
         font-size="666.654px"
         lengthAdjust="spacingAndGlyphs"
         text-anchor="middle"
         opacity="0"
         id="text424">GND</text>
      <g
         class="stroked-text"
         id="g434">
        <desc
           id="desc426">GND</desc>
        <path
           d="m 40619,34750 -48,-24 h -71 l -72,24 -48,47 -23,48 -24,95 v 71 l 24,96 23,47 48,48 72,24 h 47 l 72,-24 23,-24 v -167 h -95"
           id="path428" />
        <path
           d="m 40857,35226 v -500 l 285,500 v -500"
           id="path430" />
        <path
           d="m 41380,35226 v -500 h 120 l 71,24 48,47 23,48 24,95 v 71 l -24,96 -23,47 -48,48 -71,24 h -120"
           id="path432" />
      </g>
    </g>
  </g>
  <g
     style="fill:#008484;fill-opacity:0;stroke:#008484;stroke-width:62.5197;stroke-linecap:round;stroke-linejoin:round;stroke-opacity:1"
     id="g440"
     transform="translate(-35832.992,-19258.992)" />
  <g
     style="fill:#008484;fill-opacity:0;stroke:#008484;stroke-width:60;stroke-linecap:round;stroke-linejoin:round;stroke-opacity:1"
     id="g442"
     transform="translate(-35832.992,-19258.992)" />
  <g
     style="fill:#840000;fill-opacity:0;stroke:#840000;stroke-width:60;stroke-linecap:round;stroke-linejoin:round;stroke-opacity:1"
     id="g460"
     transform="translate(-35832.992,-19258.992)">
    <text
       x="59650"
       y="29250"
       textLength="1821.8898"
       font-size="666.654px"
       lengthAdjust="spacingAndGlyphs"
       text-anchor="start"
       opacity="0"
       id="text444">GPIO</text>
    <g
       class="stroked-text"
       id="g456">
      <desc
         id="desc446">GPIO</desc>
      <path
         d="m 60060,28750 -47,-24 h -72 l -71,24 -48,47 -23,48 -24,95 v 71 l 24,96 23,47 48,48 71,24 h 48 l 71,-24 24,-24 v -167 h -95"
         id="path448" />
      <path
         d="m 60299,29226 v -500 h 190 l 48,24 23,23 24,48 v 71 l -24,48 -23,24 -48,24 h -190"
         id="path450" />
      <path
         d="m 60799,29226 v -500"
         id="path452" />
      <path
         d="m 61132,28726 h 95 l 48,24 47,47 24,95 v 167 l -24,95 -47,48 -48,24 h -95 l -48,-24 -47,-48 -24,-95 v -167 l 24,-95 47,-47 48,-24"
         id="path454" />
    </g>
    <path
       style="fill:none;fill-opacity:0;stroke:#840000;stroke-width:60;stroke-linecap:round;stroke-linejoin:round;stroke-opacity:1"
       d="m 59500,29000 v 462.638 h 2187.047 l 400,-462.638 -400,-462.638 H 59500 Z"
       id="path458" />
  </g>
  <g
     style="fill:#008400;fill-opacity:0;stroke:#008400;stroke-width:60;stroke-linecap:round;stroke-linejoin:round;stroke-opacity:1"
     id="g472"
     transform="translate(-35832.992,-19258.992)">
    <path
       d="m 41000,28000 v 1000"
       id="path462" />
    <path
       d="m 52500,29000 v 1000"
       id="path464" />
    <path
       d="m 52500,29000 h 1000"
       id="path466" />
    <path
       d="m 51500,29000 h 1000"
       id="path468" />
    <path
       d="m 41000,29000 h 1500"
       id="path470" />
  </g>
  <g
     style="fill:#008400;fill-opacity:1;stroke:#008400;stroke-width:60;stroke-linecap:round;stroke-linejoin:round;stroke-opacity:1"
     id="g478"
     transform="translate(-35832.992,-19258.992)">
    <circle
       cx="52500"
       cy="29000"
       r="180"
       id="circle474" />
    <circle
       cx="41000"
       cy="29000"
       r="180"
       id="circle476" />
  </g>
</svg>
