<?xml version="1.0" encoding="UTF-8" standalone="no"?>
<svg
   xmlns:dc="http://purl.org/dc/elements/1.1/"
   xmlns:cc="http://creativecommons.org/ns#"
   xmlns:rdf="http://www.w3.org/1999/02/22-rdf-syntax-ns#"
   xmlns:svg="http://www.w3.org/2000/svg"
   xmlns="http://www.w3.org/2000/svg"
   version="1.1"
   width="4.3802667cm"
   height="5.1987338cm"
   viewBox="0 0 17245.144 20467.457"
   id="svg246">
  <metadata
     id="metadata252">
    <rdf:RDF>
      <cc:Work
         rdf:about="">
        <dc:format>image/svg+xml</dc:format>
        <dc:type
           rdf:resource="http://purl.org/dc/dcmitype/StillImage" />
      </cc:Work>
    </rdf:RDF>
  </metadata>
  <defs
     id="defs250" />
  <title
     id="title2">SVG Picture created as smoothing-pull-down.svg date 2021/05/21 12:53:23 </title>
  <desc
     id="desc4">Picture generated by Eeschema-SVG </desc>
  <g
     style="fill:#000000;fill-opacity:1;stroke:#000000;stroke-linecap:round;stroke-linejoin:round;stroke-opacity:1"
     id="g6"
     transform="translate(-41332.992,-29758.992)" />
  <g
     style="fill:#000000;fill-opacity:0;stroke:#000000;stroke-width:60;stroke-linecap:round;stroke-linejoin:round;stroke-opacity:1"
     id="g56"
     transform="translate(-41332.992,-29758.992)">
    <g
       id="g8" />
    <g
       style="fill:#840000;fill-opacity:0;stroke:#840000;stroke-width:60;stroke-linecap:round;stroke-linejoin:round;stroke-opacity:1"
       id="g10" />
    <g
       style="fill:#840000;fill-opacity:0;stroke:#840000;stroke-width:8.34646;stroke-linecap:round;stroke-linejoin:round;stroke-opacity:1"
       id="g16">
      <circle
         cx="46500"
         cy="38300"
         r="200"
         id="circle12" />
      <circle
         cx="46500"
         cy="36700"
         r="200"
         id="circle14" />
    </g>
    <g
       style="fill:#840000;fill-opacity:0;stroke:#840000;stroke-width:60;stroke-linecap:round;stroke-linejoin:round;stroke-opacity:1"
       id="g26">
      <path
         style="fill:none;fill-opacity:0;stroke:#840000;stroke-width:60;stroke-linecap:round;stroke-linejoin:round;stroke-opacity:1"
         d="m 46000,37500 h -700"
         id="path18" />
      <path
         style="fill:none;fill-opacity:0;stroke:#840000;stroke-width:60;stroke-linecap:round;stroke-linejoin:round;stroke-opacity:1"
         d="m 46000,36500 v 2000"
         id="path20" />
      <path
         d="m 46500,38500 v 1000"
         id="path22" />
      <path
         d="M 46500,36500 V 35500"
         id="path24" />
    </g>
    <g
       style="fill:#008484;fill-opacity:0;stroke:#008484;stroke-width:60;stroke-linecap:round;stroke-linejoin:round;stroke-opacity:1"
       id="g54">
      <text
         x="48495.551"
         y="38499.922"
         textLength="2491.1023"
         font-size="666.654px"
         lengthAdjust="spacingAndGlyphs"
         text-anchor="middle"
         opacity="0"
         id="text28">Button</text>
      <g
         class="stroked-text"
         id="g52">
        <desc
           id="desc30">Button</desc>
        <path
           d="m 47566,38214 72,23 24,24 24,48 v 71 l -24,48 -24,24 -48,24 h -190 v -500 h 166 l 48,23 24,24 24,48 v 47 l -24,48 -24,24 -48,24 h -166"
           id="path32" />
        <path
           d="m 48114,38142 v 334"
           id="path34" />
        <path
           d="m 47900,38142 v 262 l 24,48 47,24 h 72 l 47,-24 24,-24"
           id="path36" />
        <path
           d="m 48281,38142 h 190"
           id="path38" />
        <path
           d="m 48352,37976 v 428 l 24,48 48,24 h 47"
           id="path40" />
        <path
           d="m 48566,38142 h 191"
           id="path42" />
        <path
           d="m 48638,37976 v 428 l 24,48 47,24 h 48"
           id="path44" />
        <path
           d="m 48995,38476 -48,-24 -23,-24 -24,-48 v -143 l 24,-47 23,-24 48,-24 h 71 l 48,24 24,24 24,47 v 143 l -24,48 -24,24 -48,24 h -71"
           id="path46" />
        <path
           d="m 49376,38142 v 334"
           id="path48" />
        <path
           d="m 49376,38190 24,-24 47,-24 h 72 l 47,24 24,48 v 262"
           id="path50" />
      </g>
    </g>
  </g>
  <g
     style="fill:#008484;fill-opacity:0;stroke:#008484;stroke-width:60;stroke-linecap:round;stroke-linejoin:round;stroke-opacity:1"
     id="g82"
     transform="translate(-41332.992,-29758.992)">
    <g
       id="g58" />
    <g
       style="fill:#840000;fill-opacity:0;stroke:#840000;stroke-width:60;stroke-linecap:round;stroke-linejoin:round;stroke-opacity:1"
       id="g66">
      <path
         style="fill:none;fill-opacity:0;stroke:#840000;stroke-width:60;stroke-linecap:round;stroke-linejoin:round;stroke-opacity:1"
         d="m 46200,35000 300,-500"
         id="path60" />
      <path
         style="fill:none;fill-opacity:0;stroke:#840000;stroke-width:60;stroke-linecap:round;stroke-linejoin:round;stroke-opacity:1"
         d="M 46500,35500 V 34500"
         id="path62" />
      <path
         style="fill:none;fill-opacity:0;stroke:#840000;stroke-width:60;stroke-linecap:round;stroke-linejoin:round;stroke-opacity:1"
         d="m 46500,34500 300,500"
         id="path64" />
    </g>
    <g
       style="fill:#008484;fill-opacity:0;stroke:#008484;stroke-width:60;stroke-linecap:round;stroke-linejoin:round;stroke-opacity:1"
       id="g80">
      <text
         x="46500"
         y="34250"
         textLength="1488.5826"
         font-size="666.654px"
         lengthAdjust="spacingAndGlyphs"
         text-anchor="middle"
         opacity="0"
         id="text68">VCC</text>
      <g
         class="stroked-text"
         id="g78">
        <desc
           id="desc70">VCC</desc>
        <path
           d="m 45833,33726 167,500 166,-500"
           id="path72" />
        <path
           d="m 46619,34178 -24,24 -72,24 h -47 l -72,-24 -47,-48 -24,-47 -24,-96 v -71 l 24,-95 24,-48 47,-47 72,-24 h 47 l 72,24 24,23"
           id="path74" />
        <path
           d="m 47119,34178 -24,24 -72,24 h -47 l -72,-24 -47,-48 -24,-47 -24,-96 v -71 l 24,-95 24,-48 47,-47 72,-24 h 47 l 72,24 24,23"
           id="path76" />
      </g>
    </g>
  </g>
  <g
     style="fill:#008484;fill-opacity:0;stroke:#008484;stroke-width:60;stroke-linecap:round;stroke-linejoin:round;stroke-opacity:1"
     id="g118"
     transform="translate(-41332.992,-29758.992)">
    <g
       id="g84" />
    <g
       style="fill:#840000;fill-opacity:0;stroke:#840000;stroke-width:60;stroke-linecap:round;stroke-linejoin:round;stroke-opacity:1"
       id="g86" />
    <g
       style="fill:#840000;fill-opacity:0;stroke:#840000;stroke-width:100;stroke-linecap:round;stroke-linejoin:round;stroke-opacity:1"
       id="g90">
      <rect
         x="46100"
         y="41500"
         width="800"
         height="2000"
         rx="0.000000"
         id="rect88" />
    </g>
    <g
       style="fill:#840000;fill-opacity:0;stroke:#840000;stroke-width:60;stroke-linecap:round;stroke-linejoin:round;stroke-opacity:1"
       id="g96">
      <path
         d="m 46500,41500 v -500"
         id="path92" />
      <path
         d="m 46500,43500 v 500"
         id="path94" />
    </g>
    <g
       style="fill:#008484;fill-opacity:0;stroke:#008484;stroke-width:60;stroke-linecap:round;stroke-linejoin:round;stroke-opacity:1"
       id="g116">
      <text
         x="48257.441"
         y="43499.961"
         textLength="1512.3622"
         font-size="666.654px"
         lengthAdjust="spacingAndGlyphs"
         text-anchor="middle"
         opacity="0"
         id="text98">10K</text>
      <g
         class="stroked-text"
         id="g114">
        <desc
           id="desc100">10K</desc>
        <path
           d="m 47912,43476 h -286"
           id="path102" />
        <path
           d="m 47769,43476 v -500 l -48,71 -47,48 -48,23"
           id="path104" />
        <path
           d="m 48221,42976 h 48 l 47,23 24,24 24,48 24,95 v 119 l -24,95 -24,48 -24,24 -47,24 h -48 l -47,-24 -24,-24 -24,-48 -24,-95 v -119 l 24,-95 24,-48 24,-24 47,-23"
           id="path106" />
        <path
           d="m 48602,43476 v -500"
           id="path108" />
        <path
           d="m 48888,43476 -214,-286"
           id="path110" />
        <path
           d="m 48888,42976 -286,285"
           id="path112" />
      </g>
    </g>
  </g>
  <g
     style="fill:#008484;fill-opacity:0;stroke:#008484;stroke-width:60;stroke-linecap:round;stroke-linejoin:round;stroke-opacity:1"
     id="g160"
     transform="translate(-41332.992,-29758.992)">
    <g
       id="g120" />
    <g
       style="fill:#840000;fill-opacity:0;stroke:#840000;stroke-width:60;stroke-linecap:round;stroke-linejoin:round;stroke-opacity:1"
       id="g122" />
    <g
       style="fill:#840000;fill-opacity:0;stroke:#840000;stroke-width:200;stroke-linecap:round;stroke-linejoin:round;stroke-opacity:1"
       id="g128">
      <path
         style="fill:none;fill-opacity:0;stroke:#840000;stroke-width:200;stroke-linecap:round;stroke-linejoin:round;stroke-opacity:1"
         d="m 50200,42800 h 1600"
         id="path124" />
      <path
         style="fill:none;fill-opacity:0;stroke:#840000;stroke-width:200;stroke-linecap:round;stroke-linejoin:round;stroke-opacity:1"
         d="m 50200,42200 h 1600"
         id="path126" />
    </g>
    <g
       style="fill:#840000;fill-opacity:0;stroke:#840000;stroke-width:60;stroke-linecap:round;stroke-linejoin:round;stroke-opacity:1"
       id="g134">
      <path
         d="M 51000,42100 V 41000"
         id="path130" />
      <path
         d="m 51000,42900 v 1100"
         id="path132" />
    </g>
    <g
       style="fill:#008484;fill-opacity:0;stroke:#008484;stroke-width:60;stroke-linecap:round;stroke-linejoin:round;stroke-opacity:1"
       id="g158">
      <text
         x="53436.023"
         y="43499.961"
         textLength="2369.5276"
         font-size="666.654px"
         lengthAdjust="spacingAndGlyphs"
         text-anchor="middle"
         opacity="0"
         id="text136">100nF</text>
      <g
         class="stroked-text"
         id="g156">
        <desc
           id="desc138">100nF</desc>
        <path
           d="m 52662,43476 h -286"
           id="path140" />
        <path
           d="m 52519,43476 v -500 l -48,71 -47,48 -48,23"
           id="path142" />
        <path
           d="m 52971,42976 h 48 l 47,23 24,24 24,48 24,95 v 119 l -24,95 -24,48 -24,24 -47,24 h -48 l -47,-24 -24,-24 -24,-48 -24,-95 v -119 l 24,-95 24,-48 24,-24 47,-23"
           id="path144" />
        <path
           d="m 53447,42976 h 48 l 48,23 23,24 24,48 24,95 v 119 l -24,95 -24,48 -23,24 -48,24 h -48 l -47,-24 -24,-24 -24,-48 -24,-95 v -119 l 24,-95 24,-48 24,-24 47,-23"
           id="path146" />
        <path
           d="m 53828,43142 v 334"
           id="path148" />
        <path
           d="m 53828,43190 24,-24 48,-24 h 71 l 48,24 24,48 v 262"
           id="path150" />
        <path
           d="m 54447,43214 h -166"
           id="path152" />
        <path
           d="m 54281,43476 v -500 h 238"
           id="path154" />
      </g>
    </g>
  </g>
  <g
     style="fill:#008484;fill-opacity:0;stroke:#008484;stroke-width:60;stroke-linecap:round;stroke-linejoin:round;stroke-opacity:1"
     id="g182"
     transform="translate(-41332.992,-29758.992)">
    <g
       id="g162" />
    <g
       style="fill:#840000;fill-opacity:0;stroke:#840000;stroke-width:60;stroke-linecap:round;stroke-linejoin:round;stroke-opacity:1"
       id="g166">
      <path
         style="fill:none;fill-opacity:0;stroke:#840000;stroke-width:60;stroke-linecap:round;stroke-linejoin:round;stroke-opacity:1"
         d="m 51000,44000 v 500 h 500 l -500,500 -500,-500 h 500"
         id="path164" />
    </g>
    <g
       style="fill:#008484;fill-opacity:0;stroke:#008484;stroke-width:60;stroke-linecap:round;stroke-linejoin:round;stroke-opacity:1"
       id="g180">
      <text
         x="51000"
         y="46250"
         textLength="1583.8188"
         font-size="666.654px"
         lengthAdjust="spacingAndGlyphs"
         text-anchor="middle"
         opacity="0"
         id="text168">GND</text>
      <g
         class="stroked-text"
         id="g178">
        <desc
           id="desc170">GND</desc>
        <path
           d="m 50619,45750 -48,-24 h -71 l -72,24 -48,47 -23,48 -24,95 v 71 l 24,96 23,47 48,48 72,24 h 47 l 72,-24 23,-24 v -167 h -95"
           id="path172" />
        <path
           d="m 50857,46226 v -500 l 285,500 v -500"
           id="path174" />
        <path
           d="m 51380,46226 v -500 h 120 l 71,24 48,47 23,48 24,95 v 71 l -24,96 -23,47 -48,48 -71,24 h -120"
           id="path176" />
      </g>
    </g>
  </g>
  <g
     style="fill:#008484;fill-opacity:0;stroke:#008484;stroke-width:60;stroke-linecap:round;stroke-linejoin:round;stroke-opacity:1"
     id="g204"
     transform="translate(-41332.992,-29758.992)">
    <g
       id="g184" />
    <g
       style="fill:#840000;fill-opacity:0;stroke:#840000;stroke-width:60;stroke-linecap:round;stroke-linejoin:round;stroke-opacity:1"
       id="g188">
      <path
         style="fill:none;fill-opacity:0;stroke:#840000;stroke-width:60;stroke-linecap:round;stroke-linejoin:round;stroke-opacity:1"
         d="m 46500,44000 v 500 h 500 l -500,500 -500,-500 h 500"
         id="path186" />
    </g>
    <g
       style="fill:#008484;fill-opacity:0;stroke:#008484;stroke-width:60;stroke-linecap:round;stroke-linejoin:round;stroke-opacity:1"
       id="g202">
      <text
         x="46500"
         y="46250"
         textLength="1583.8188"
         font-size="666.654px"
         lengthAdjust="spacingAndGlyphs"
         text-anchor="middle"
         opacity="0"
         id="text190">GND</text>
      <g
         class="stroked-text"
         id="g200">
        <desc
           id="desc192">GND</desc>
        <path
           d="m 46119,45750 -48,-24 h -71 l -72,24 -48,47 -23,48 -24,95 v 71 l 24,96 23,47 48,48 72,24 h 47 l 72,-24 23,-24 v -167 h -95"
           id="path194" />
        <path
           d="m 46357,46226 v -500 l 285,500 v -500"
           id="path196" />
        <path
           d="m 46880,46226 v -500 h 120 l 71,24 48,47 23,48 24,95 v 71 l -24,96 -23,47 -48,48 -71,24 h -120"
           id="path198" />
      </g>
    </g>
  </g>
  <g
     style="fill:#008484;fill-opacity:0;stroke:#008484;stroke-width:62.5197;stroke-linecap:round;stroke-linejoin:round;stroke-opacity:1"
     id="g206"
     transform="translate(-41332.992,-29758.992)" />
  <g
     style="fill:#008484;fill-opacity:0;stroke:#008484;stroke-width:60;stroke-linecap:round;stroke-linejoin:round;stroke-opacity:1"
     id="g208"
     transform="translate(-41332.992,-29758.992)" />
  <g
     style="fill:#840000;fill-opacity:0;stroke:#840000;stroke-width:60;stroke-linecap:round;stroke-linejoin:round;stroke-opacity:1"
     id="g226"
     transform="translate(-41332.992,-29758.992)">
    <text
       x="52150"
       y="40250"
       textLength="1821.8898"
       font-size="666.654px"
       lengthAdjust="spacingAndGlyphs"
       text-anchor="start"
       opacity="0"
       id="text210">GPIO</text>
    <g
       class="stroked-text"
       id="g222">
      <desc
         id="desc212">GPIO</desc>
      <path
         d="m 52560,39750 -47,-24 h -72 l -71,24 -48,47 -23,48 -24,95 v 71 l 24,96 23,47 48,48 71,24 h 48 l 71,-24 24,-24 v -167 h -95"
         id="path214" />
      <path
         d="m 52799,40226 v -500 h 190 l 48,24 23,23 24,48 v 71 l -24,48 -23,24 -48,24 h -190"
         id="path216" />
      <path
         d="m 53299,40226 v -500"
         id="path218" />
      <path
         d="m 53632,39726 h 95 l 48,24 47,47 24,95 v 167 l -24,95 -47,48 -48,24 h -95 l -48,-24 -47,-48 -24,-95 v -167 l 24,-95 47,-47 48,-24"
         id="path220" />
    </g>
    <path
       style="fill:none;fill-opacity:0;stroke:#840000;stroke-width:60;stroke-linecap:round;stroke-linejoin:round;stroke-opacity:1"
       d="m 52000,40000 v 462.638 h 2187.047 l 400,-462.638 -400,-462.638 H 52000 Z"
       id="path224" />
  </g>
  <g
     style="fill:#008400;fill-opacity:0;stroke:#008400;stroke-width:60;stroke-linecap:round;stroke-linejoin:round;stroke-opacity:1"
     id="g238"
     transform="translate(-41332.992,-29758.992)">
    <path
       d="m 46500,39500 v 500"
       id="path228" />
    <path
       d="m 46500,40000 h 4500"
       id="path230" />
    <path
       d="m 46500,40000 v 1000"
       id="path232" />
    <path
       d="m 51000,40000 v 1000"
       id="path234" />
    <path
       d="m 51000,40000 h 1000"
       id="path236" />
  </g>
  <g
     style="fill:#008400;fill-opacity:1;stroke:#008400;stroke-width:60;stroke-linecap:round;stroke-linejoin:round;stroke-opacity:1"
     id="g244"
     transform="translate(-41332.992,-29758.992)">
    <circle
       cx="46500"
       cy="40000"
       r="180"
       id="circle240" />
    <circle
       cx="51000"
       cy="40000"
       r="180"
       id="circle242" />
  </g>
</svg>
