<?xml version="1.0" encoding="UTF-8" standalone="no"?>
<svg
   xmlns:dc="http://purl.org/dc/elements/1.1/"
   xmlns:cc="http://creativecommons.org/ns#"
   xmlns:rdf="http://www.w3.org/1999/02/22-rdf-syntax-ns#"
   xmlns:svg="http://www.w3.org/2000/svg"
   xmlns="http://www.w3.org/2000/svg"
   version="1.1"
   width="4.3802667cm"
   height="5.0717335cm"
   viewBox="0 0 17245.144 19967.456"
   id="svg248">
  <metadata
     id="metadata254">
    <rdf:RDF>
      <cc:Work
         rdf:about="">
        <dc:format>image/svg+xml</dc:format>
        <dc:type
           rdf:resource="http://purl.org/dc/dcmitype/StillImage" />
      </cc:Work>
    </rdf:RDF>
  </metadata>
  <defs
     id="defs252" />
  <title
     id="title2">SVG Picture created as smoothing-pull-up.svg date 2021/05/21 12:53:42 </title>
  <desc
     id="desc4">Picture generated by Eeschema-SVG </desc>
  <g
     style="fill:#000000;fill-opacity:1;stroke:#000000;stroke-linecap:round;stroke-linejoin:round;stroke-opacity:1"
     id="g6"
     transform="translate(-38332.992,-27758.992)" />
  <g
     style="fill:#000000;fill-opacity:0;stroke:#000000;stroke-width:60;stroke-linecap:round;stroke-linejoin:round;stroke-opacity:1"
     id="g32"
     transform="translate(-38332.992,-27758.992)">
    <g
       id="g8" />
    <g
       style="fill:#840000;fill-opacity:0;stroke:#840000;stroke-width:60;stroke-linecap:round;stroke-linejoin:round;stroke-opacity:1"
       id="g16">
      <path
         style="fill:none;fill-opacity:0;stroke:#840000;stroke-width:60;stroke-linecap:round;stroke-linejoin:round;stroke-opacity:1"
         d="m 43200,33000 300,-500"
         id="path10" />
      <path
         style="fill:none;fill-opacity:0;stroke:#840000;stroke-width:60;stroke-linecap:round;stroke-linejoin:round;stroke-opacity:1"
         d="M 43500,33500 V 32500"
         id="path12" />
      <path
         style="fill:none;fill-opacity:0;stroke:#840000;stroke-width:60;stroke-linecap:round;stroke-linejoin:round;stroke-opacity:1"
         d="m 43500,32500 300,500"
         id="path14" />
    </g>
    <g
       style="fill:#008484;fill-opacity:0;stroke:#008484;stroke-width:60;stroke-linecap:round;stroke-linejoin:round;stroke-opacity:1"
       id="g30">
      <text
         x="43500"
         y="32250"
         textLength="1491.1024"
         font-size="666.654px"
         lengthAdjust="spacingAndGlyphs"
         text-anchor="middle"
         opacity="0"
         id="text18">VCC</text>
      <g
         class="stroked-text"
         id="g28">
        <desc
           id="desc20">VCC</desc>
        <path
           d="m 42833,31726 167,500 166,-500"
           id="path22" />
        <path
           d="m 43619,32178 -24,24 -72,24 h -47 l -72,-24 -47,-48 -24,-47 -24,-96 v -71 l 24,-95 24,-48 47,-47 72,-24 h 47 l 72,24 24,23"
           id="path24" />
        <path
           d="m 44119,32178 -24,24 -72,24 h -47 l -72,-24 -47,-48 -24,-47 -24,-96 v -71 l 24,-95 24,-48 47,-47 72,-24 h 47 l 72,24 24,23"
           id="path26" />
      </g>
    </g>
  </g>
  <g
     style="fill:#008484;fill-opacity:0;stroke:#008484;stroke-width:60;stroke-linecap:round;stroke-linejoin:round;stroke-opacity:1"
     id="g68"
     transform="translate(-38332.992,-27758.992)">
    <g
       id="g34" />
    <g
       style="fill:#840000;fill-opacity:0;stroke:#840000;stroke-width:60;stroke-linecap:round;stroke-linejoin:round;stroke-opacity:1"
       id="g36" />
    <g
       style="fill:#840000;fill-opacity:0;stroke:#840000;stroke-width:100;stroke-linecap:round;stroke-linejoin:round;stroke-opacity:1"
       id="g40">
      <rect
         x="43100"
         y="34000"
         width="800"
         height="2000"
         rx="0.000000"
         id="rect38" />
    </g>
    <g
       style="fill:#840000;fill-opacity:0;stroke:#840000;stroke-width:60;stroke-linecap:round;stroke-linejoin:round;stroke-opacity:1"
       id="g46">
      <path
         d="m 43500,34000 v -500"
         id="path42" />
      <path
         d="m 43500,36000 v 500"
         id="path44" />
    </g>
    <g
       style="fill:#008484;fill-opacity:0;stroke:#008484;stroke-width:60;stroke-linecap:round;stroke-linejoin:round;stroke-opacity:1"
       id="g66">
      <text
         x="45257.441"
         y="35999.961"
         textLength="1512.3622"
         font-size="666.654px"
         lengthAdjust="spacingAndGlyphs"
         text-anchor="middle"
         opacity="0"
         id="text48">10K</text>
      <g
         class="stroked-text"
         id="g64">
        <desc
           id="desc50">10K</desc>
        <path
           d="m 44912,35976 h -286"
           id="path52" />
        <path
           d="m 44769,35976 v -500 l -48,71 -47,48 -48,23"
           id="path54" />
        <path
           d="m 45221,35476 h 48 l 47,23 24,24 24,48 24,95 v 119 l -24,95 -24,48 -24,24 -47,24 h -48 l -47,-24 -24,-24 -24,-48 -24,-95 v -119 l 24,-95 24,-48 24,-24 47,-23"
           id="path56" />
        <path
           d="m 45602,35976 v -500"
           id="path58" />
        <path
           d="m 45888,35976 -214,-286"
           id="path60" />
        <path
           d="m 45888,35476 -286,285"
           id="path62" />
      </g>
    </g>
  </g>
  <g
     style="fill:#008484;fill-opacity:0;stroke:#008484;stroke-width:60;stroke-linecap:round;stroke-linejoin:round;stroke-opacity:1"
     id="g110"
     transform="translate(-38332.992,-27758.992)">
    <g
       id="g70" />
    <g
       style="fill:#840000;fill-opacity:0;stroke:#840000;stroke-width:60;stroke-linecap:round;stroke-linejoin:round;stroke-opacity:1"
       id="g72" />
    <g
       style="fill:#840000;fill-opacity:0;stroke:#840000;stroke-width:200;stroke-linecap:round;stroke-linejoin:round;stroke-opacity:1"
       id="g78">
      <path
         style="fill:none;fill-opacity:0;stroke:#840000;stroke-width:200;stroke-linecap:round;stroke-linejoin:round;stroke-opacity:1"
         d="m 47200,39800 h 1600"
         id="path74" />
      <path
         style="fill:none;fill-opacity:0;stroke:#840000;stroke-width:200;stroke-linecap:round;stroke-linejoin:round;stroke-opacity:1"
         d="m 47200,39200 h 1600"
         id="path76" />
    </g>
    <g
       style="fill:#840000;fill-opacity:0;stroke:#840000;stroke-width:60;stroke-linecap:round;stroke-linejoin:round;stroke-opacity:1"
       id="g84">
      <path
         d="M 48000,39100 V 38000"
         id="path80" />
      <path
         d="m 48000,39900 v 1100"
         id="path82" />
    </g>
    <g
       style="fill:#008484;fill-opacity:0;stroke:#008484;stroke-width:60;stroke-linecap:round;stroke-linejoin:round;stroke-opacity:1"
       id="g108">
      <text
         x="50436.023"
         y="40499.961"
         textLength="2369.5276"
         font-size="666.654px"
         lengthAdjust="spacingAndGlyphs"
         text-anchor="middle"
         opacity="0"
         id="text86">100nF</text>
      <g
         class="stroked-text"
         id="g106">
        <desc
           id="desc88">100nF</desc>
        <path
           d="m 49662,40476 h -286"
           id="path90" />
        <path
           d="m 49519,40476 v -500 l -48,71 -47,48 -48,23"
           id="path92" />
        <path
           d="m 49971,39976 h 48 l 47,23 24,24 24,48 24,95 v 119 l -24,95 -24,48 -24,24 -47,24 h -48 l -47,-24 -24,-24 -24,-48 -24,-95 v -119 l 24,-95 24,-48 24,-24 47,-23"
           id="path94" />
        <path
           d="m 50447,39976 h 48 l 48,23 23,24 24,48 24,95 v 119 l -24,95 -24,48 -23,24 -48,24 h -48 l -47,-24 -24,-24 -24,-48 -24,-95 v -119 l 24,-95 24,-48 24,-24 47,-23"
           id="path96" />
        <path
           d="m 50828,40142 v 334"
           id="path98" />
        <path
           d="m 50828,40190 24,-24 48,-24 h 71 l 48,24 24,48 v 262"
           id="path100" />
        <path
           d="m 51447,40214 h -166"
           id="path102" />
        <path
           d="m 51281,40476 v -500 h 238"
           id="path104" />
      </g>
    </g>
  </g>
  <g
     style="fill:#008484;fill-opacity:0;stroke:#008484;stroke-width:60;stroke-linecap:round;stroke-linejoin:round;stroke-opacity:1"
     id="g132"
     transform="translate(-38332.992,-27758.992)">
    <g
       id="g112" />
    <g
       style="fill:#840000;fill-opacity:0;stroke:#840000;stroke-width:60;stroke-linecap:round;stroke-linejoin:round;stroke-opacity:1"
       id="g116">
      <path
         style="fill:none;fill-opacity:0;stroke:#840000;stroke-width:60;stroke-linecap:round;stroke-linejoin:round;stroke-opacity:1"
         d="m 43500,41500 v 500 h 500 l -500,500 -500,-500 h 500"
         id="path114" />
    </g>
    <g
       style="fill:#008484;fill-opacity:0;stroke:#008484;stroke-width:60;stroke-linecap:round;stroke-linejoin:round;stroke-opacity:1"
       id="g130">
      <text
         x="43500"
         y="43750"
         textLength="1583.8188"
         font-size="666.654px"
         lengthAdjust="spacingAndGlyphs"
         text-anchor="middle"
         opacity="0"
         id="text118">GND</text>
      <g
         class="stroked-text"
         id="g128">
        <desc
           id="desc120">GND</desc>
        <path
           d="m 43119,43250 -48,-24 h -71 l -72,24 -48,47 -23,48 -24,95 v 71 l 24,96 23,47 48,48 72,24 h 47 l 72,-24 23,-24 v -167 h -95"
           id="path122" />
        <path
           d="m 43357,43726 v -500 l 285,500 v -500"
           id="path124" />
        <path
           d="m 43880,43726 v -500 h 120 l 71,24 48,47 23,48 24,95 v 71 l -24,96 -23,47 -48,48 -71,24 h -120"
           id="path126" />
      </g>
    </g>
  </g>
  <g
     style="fill:#008484;fill-opacity:0;stroke:#008484;stroke-width:60;stroke-linecap:round;stroke-linejoin:round;stroke-opacity:1"
     id="g154"
     transform="translate(-38332.992,-27758.992)">
    <g
       id="g134" />
    <g
       style="fill:#840000;fill-opacity:0;stroke:#840000;stroke-width:60;stroke-linecap:round;stroke-linejoin:round;stroke-opacity:1"
       id="g138">
      <path
         style="fill:none;fill-opacity:0;stroke:#840000;stroke-width:60;stroke-linecap:round;stroke-linejoin:round;stroke-opacity:1"
         d="m 48000,41500 v 500 h 500 l -500,500 -500,-500 h 500"
         id="path136" />
    </g>
    <g
       style="fill:#008484;fill-opacity:0;stroke:#008484;stroke-width:60;stroke-linecap:round;stroke-linejoin:round;stroke-opacity:1"
       id="g152">
      <text
         x="48000"
         y="43750"
         textLength="1583.8188"
         font-size="666.654px"
         lengthAdjust="spacingAndGlyphs"
         text-anchor="middle"
         opacity="0"
         id="text140">GND</text>
      <g
         class="stroked-text"
         id="g150">
        <desc
           id="desc142">GND</desc>
        <path
           d="m 47619,43250 -48,-24 h -71 l -72,24 -48,47 -23,48 -24,95 v 71 l 24,96 23,47 48,48 72,24 h 47 l 72,-24 23,-24 v -167 h -95"
           id="path144" />
        <path
           d="m 47857,43726 v -500 l 285,500 v -500"
           id="path146" />
        <path
           d="m 48380,43726 v -500 h 120 l 71,24 48,47 23,48 24,95 v 71 l -24,96 -23,47 -48,48 -71,24 h -120"
           id="path148" />
      </g>
    </g>
  </g>
  <g
     style="fill:#008484;fill-opacity:0;stroke:#008484;stroke-width:60;stroke-linecap:round;stroke-linejoin:round;stroke-opacity:1"
     id="g204"
     transform="translate(-38332.992,-27758.992)">
    <g
       id="g156" />
    <g
       style="fill:#840000;fill-opacity:0;stroke:#840000;stroke-width:60;stroke-linecap:round;stroke-linejoin:round;stroke-opacity:1"
       id="g158" />
    <g
       style="fill:#840000;fill-opacity:0;stroke:#840000;stroke-width:8.34646;stroke-linecap:round;stroke-linejoin:round;stroke-opacity:1"
       id="g164">
      <circle
         cx="43500"
         cy="40300"
         r="200"
         id="circle160" />
      <circle
         cx="43500"
         cy="38700"
         r="200"
         id="circle162" />
    </g>
    <g
       style="fill:#840000;fill-opacity:0;stroke:#840000;stroke-width:60;stroke-linecap:round;stroke-linejoin:round;stroke-opacity:1"
       id="g174">
      <path
         style="fill:none;fill-opacity:0;stroke:#840000;stroke-width:60;stroke-linecap:round;stroke-linejoin:round;stroke-opacity:1"
         d="m 43000,39500 h -700"
         id="path166" />
      <path
         style="fill:none;fill-opacity:0;stroke:#840000;stroke-width:60;stroke-linecap:round;stroke-linejoin:round;stroke-opacity:1"
         d="m 43000,38500 v 2000"
         id="path168" />
      <path
         d="m 43500,40500 v 1000"
         id="path170" />
      <path
         d="M 43500,38500 V 37500"
         id="path172" />
    </g>
    <g
       style="fill:#008484;fill-opacity:0;stroke:#008484;stroke-width:60;stroke-linecap:round;stroke-linejoin:round;stroke-opacity:1"
       id="g202">
      <text
         x="45495.551"
         y="40499.922"
         textLength="2488.5828"
         font-size="666.654px"
         lengthAdjust="spacingAndGlyphs"
         text-anchor="middle"
         opacity="0"
         id="text176">Button</text>
      <g
         class="stroked-text"
         id="g200">
        <desc
           id="desc178">Button</desc>
        <path
           d="m 44566,40214 72,23 24,24 24,48 v 71 l -24,48 -24,24 -48,24 h -190 v -500 h 166 l 48,23 24,24 24,48 v 47 l -24,48 -24,24 -48,24 h -166"
           id="path180" />
        <path
           d="m 45114,40142 v 334"
           id="path182" />
        <path
           d="m 44900,40142 v 262 l 24,48 47,24 h 72 l 47,-24 24,-24"
           id="path184" />
        <path
           d="m 45281,40142 h 190"
           id="path186" />
        <path
           d="m 45352,39976 v 428 l 24,48 48,24 h 47"
           id="path188" />
        <path
           d="m 45566,40142 h 191"
           id="path190" />
        <path
           d="m 45638,39976 v 428 l 24,48 47,24 h 48"
           id="path192" />
        <path
           d="m 45995,40476 -48,-24 -23,-24 -24,-48 v -143 l 24,-47 23,-24 48,-24 h 71 l 48,24 24,24 24,47 v 143 l -24,48 -24,24 -48,24 h -71"
           id="path194" />
        <path
           d="m 46376,40142 v 334"
           id="path196" />
        <path
           d="m 46376,40190 24,-24 47,-24 h 72 l 47,24 24,48 v 262"
           id="path198" />
      </g>
    </g>
  </g>
  <g
     style="fill:#008484;fill-opacity:0;stroke:#008484;stroke-width:62.5197;stroke-linecap:round;stroke-linejoin:round;stroke-opacity:1"
     id="g206"
     transform="translate(-38332.992,-27758.992)" />
  <g
     style="fill:#008484;fill-opacity:0;stroke:#008484;stroke-width:60;stroke-linecap:round;stroke-linejoin:round;stroke-opacity:1"
     id="g208"
     transform="translate(-38332.992,-27758.992)" />
  <g
     style="fill:#840000;fill-opacity:0;stroke:#840000;stroke-width:60;stroke-linecap:round;stroke-linejoin:round;stroke-opacity:1"
     id="g226"
     transform="translate(-38332.992,-27758.992)">
    <text
       x="49150"
       y="37250"
       textLength="1821.8898"
       font-size="666.654px"
       lengthAdjust="spacingAndGlyphs"
       text-anchor="start"
       opacity="0"
       id="text210">GPIO</text>
    <g
       class="stroked-text"
       id="g222">
      <desc
         id="desc212">GPIO</desc>
      <path
         d="m 49560,36750 -47,-24 h -72 l -71,24 -48,47 -23,48 -24,95 v 71 l 24,96 23,47 48,48 71,24 h 48 l 71,-24 24,-24 v -167 h -95"
         id="path214" />
      <path
         d="m 49799,37226 v -500 h 190 l 48,24 23,23 24,48 v 71 l -24,48 -23,24 -48,24 h -190"
         id="path216" />
      <path
         d="m 50299,37226 v -500"
         id="path218" />
      <path
         d="m 50632,36726 h 95 l 48,24 47,47 24,95 v 167 l -24,95 -47,48 -48,24 h -95 l -48,-24 -47,-48 -24,-95 v -167 l 24,-95 47,-47 48,-24"
         id="path220" />
    </g>
    <path
       style="fill:none;fill-opacity:0;stroke:#840000;stroke-width:60;stroke-linecap:round;stroke-linejoin:round;stroke-opacity:1"
       d="m 49000,37000 v 462.638 h 2187.047 l 400,-462.638 -400,-462.638 H 49000 Z"
       id="path224" />
  </g>
  <g
     style="fill:#008400;fill-opacity:0;stroke:#008400;stroke-width:60;stroke-linecap:round;stroke-linejoin:round;stroke-opacity:1"
     id="g240"
     transform="translate(-38332.992,-27758.992)">
    <path
       d="m 43500,36500 v 500"
       id="path228" />
    <path
       d="m 43500,37000 h 4500"
       id="path230" />
    <path
       d="m 43500,37500 v -500"
       id="path232" />
    <path
       d="m 48000,37000 v 1000"
       id="path234" />
    <path
       d="m 48000,37000 h 1000"
       id="path236" />
    <path
       d="m 48000,41000 v 500"
       id="path238" />
  </g>
  <g
     style="fill:#008400;fill-opacity:1;stroke:#008400;stroke-width:60;stroke-linecap:round;stroke-linejoin:round;stroke-opacity:1"
     id="g246"
     transform="translate(-38332.992,-27758.992)">
    <circle
       cx="43500"
       cy="37000"
       r="180"
       id="circle242" />
    <circle
       cx="48000"
       cy="37000"
       r="180"
       id="circle244" />
  </g>
</svg>
