<?xml version="1.0" encoding="UTF-8" standalone="no"?>
<svg
   xmlns:dc="http://purl.org/dc/elements/1.1/"
   xmlns:cc="http://creativecommons.org/ns#"
   xmlns:rdf="http://www.w3.org/1999/02/22-rdf-syntax-ns#"
   xmlns:svg="http://www.w3.org/2000/svg"
   xmlns="http://www.w3.org/2000/svg"
   version="1.1"
   width="5.2631497cm"
   height="5.8235736cm"
   viewBox="0 0 20721.062 22927.456"
   id="svg312">
  <metadata
     id="metadata318">
    <rdf:RDF>
      <cc:Work
         rdf:about="">
        <dc:format>image/svg+xml</dc:format>
        <dc:type
           rdf:resource="http://purl.org/dc/dcmitype/StillImage" />
      </cc:Work>
    </rdf:RDF>
  </metadata>
  <defs
     id="defs316" />
  <title
     id="title2">SVG Picture created as STM32F407G-DISC1.svg date 2021/05/22 11:55:27 </title>
  <desc
     id="desc4">Picture generated by Eeschema-SVG </desc>
  <g
     style="fill:#000000;fill-opacity:1;stroke:#000000;stroke-linecap:round;stroke-linejoin:round;stroke-opacity:1"
     id="g6"
     transform="translate(-37832.992,-12028.992)" />
  <g
     style="fill:#000000;fill-opacity:0;stroke:#000000;stroke-width:60;stroke-linecap:round;stroke-linejoin:round;stroke-opacity:1"
     id="g40"
     transform="translate(-37832.992,-12028.992)">
    <g
       id="g8" />
    <g
       style="fill:#840000;fill-opacity:0;stroke:#840000;stroke-width:60;stroke-linecap:round;stroke-linejoin:round;stroke-opacity:1"
       id="g10" />
    <g
       style="fill:#840000;fill-opacity:0;stroke:#840000;stroke-width:100;stroke-linecap:round;stroke-linejoin:round;stroke-opacity:1"
       id="g14">
      <rect
         x="49500"
         y="24600"
         width="2000"
         height="800"
         rx="0.000000"
         id="rect12" />
    </g>
    <g
       style="fill:#840000;fill-opacity:0;stroke:#840000;stroke-width:60;stroke-linecap:round;stroke-linejoin:round;stroke-opacity:1"
       id="g20">
      <path
         d="m 51500,25000 h 500"
         id="path16" />
      <path
         d="m 49500,25000 h -500"
         id="path18" />
    </g>
    <g
       style="fill:#008484;fill-opacity:0;stroke:#008484;stroke-width:60;stroke-linecap:round;stroke-linejoin:round;stroke-opacity:1"
       id="g38">
      <text
         x="50500"
         y="24100"
         textLength="1991.1024"
         font-size="666.654px"
         lengthAdjust="spacingAndGlyphs"
         text-anchor="middle"
         opacity="0"
         id="text22">330R</text>
      <g
         class="stroked-text"
         id="g36">
        <desc
           id="desc24">330R</desc>
        <path
           d="m 49607,23576 h 309 l -166,190 h 71 l 48,24 23,24 24,47 v 119 l -24,48 -23,24 -48,24 h -143 l -48,-24 -23,-24"
           id="path26" />
        <path
           d="m 50083,23576 h 309 l -166,190 h 71 l 48,24 24,24 23,47 v 119 l -23,48 -24,24 -48,24 h -143 l -47,-24 -24,-24"
           id="path28" />
        <path
           d="m 50702,23576 h 48 l 47,24 24,23 24,48 24,95 v 119 l -24,95 -24,48 -24,24 -47,24 h -48 l -48,-24 -24,-24 -23,-48 -24,-95 v -119 l 24,-95 23,-48 24,-23 48,-24"
           id="path30" />
        <path
           d="m 51369,24076 -167,-238"
           id="path32" />
        <path
           d="m 51083,24076 v -500 h 190 l 48,24 24,23 24,48 v 71 l -24,48 -24,24 -48,24 h -190"
           id="path34" />
      </g>
    </g>
  </g>
  <g
     style="fill:#008484;fill-opacity:0;stroke:#008484;stroke-width:60;stroke-linecap:round;stroke-linejoin:round;stroke-opacity:1"
     id="g82"
     transform="translate(-37832.992,-12028.992)">
    <g
       id="g42" />
    <g
       style="fill:#840000;fill-opacity:0;stroke:#840000;stroke-width:60;stroke-linecap:round;stroke-linejoin:round;stroke-opacity:1"
       id="g44" />
    <g
       style="fill:#840000;fill-opacity:0;stroke:#840000;stroke-width:200;stroke-linecap:round;stroke-linejoin:round;stroke-opacity:1"
       id="g50">
      <path
         style="fill:none;fill-opacity:0;stroke:#840000;stroke-width:200;stroke-linecap:round;stroke-linejoin:round;stroke-opacity:1"
         d="m 47200,22300 h 1600"
         id="path46" />
      <path
         style="fill:none;fill-opacity:0;stroke:#840000;stroke-width:200;stroke-linecap:round;stroke-linejoin:round;stroke-opacity:1"
         d="m 47200,21700 h 1600"
         id="path48" />
    </g>
    <g
       style="fill:#840000;fill-opacity:0;stroke:#840000;stroke-width:60;stroke-linecap:round;stroke-linejoin:round;stroke-opacity:1"
       id="g56">
      <path
         d="M 48000,21600 V 20500"
         id="path52" />
      <path
         d="m 48000,22400 v 1100"
         id="path54" />
    </g>
    <g
       style="fill:#008484;fill-opacity:0;stroke:#008484;stroke-width:60;stroke-linecap:round;stroke-linejoin:round;stroke-opacity:1"
       id="g80">
      <text
         x="50336.023"
         y="22250"
         textLength="2369.5276"
         font-size="666.654px"
         lengthAdjust="spacingAndGlyphs"
         text-anchor="middle"
         opacity="0"
         id="text58">100nF</text>
      <g
         class="stroked-text"
         id="g78">
        <desc
           id="desc60">100nF</desc>
        <path
           d="m 49562,22226 h -286"
           id="path62" />
        <path
           d="m 49419,22226 v -500 l -48,71 -47,48 -48,24"
           id="path64" />
        <path
           d="m 49871,21726 h 48 l 47,24 24,23 24,48 24,95 v 119 l -24,95 -24,48 -24,24 -47,24 h -48 l -47,-24 -24,-24 -24,-48 -24,-95 v -119 l 24,-95 24,-48 24,-23 47,-24"
           id="path66" />
        <path
           d="m 50347,21726 h 48 l 48,24 23,23 24,48 24,95 v 119 l -24,95 -24,48 -23,24 -48,24 h -48 l -47,-24 -24,-24 -24,-48 -24,-95 v -119 l 24,-95 24,-48 24,-23 47,-24"
           id="path68" />
        <path
           d="m 50728,21892 v 334"
           id="path70" />
        <path
           d="m 50728,21940 24,-24 48,-24 h 71 l 48,24 24,48 v 262"
           id="path72" />
        <path
           d="m 51347,21964 h -166"
           id="path74" />
        <path
           d="m 51181,22226 v -500 h 238"
           id="path76" />
      </g>
    </g>
  </g>
  <g
     style="fill:#008484;fill-opacity:0;stroke:#008484;stroke-width:60;stroke-linecap:round;stroke-linejoin:round;stroke-opacity:1"
     id="g114"
     transform="translate(-37832.992,-12028.992)">
    <g
       id="g84" />
    <g
       style="fill:#840000;fill-opacity:0;stroke:#840000;stroke-width:60;stroke-linecap:round;stroke-linejoin:round;stroke-opacity:1"
       id="g92">
      <path
         style="fill:none;fill-opacity:0;stroke:#840000;stroke-width:60;stroke-linecap:round;stroke-linejoin:round;stroke-opacity:1"
         d="m 42700,17500 300,-500"
         id="path86" />
      <path
         style="fill:none;fill-opacity:0;stroke:#840000;stroke-width:60;stroke-linecap:round;stroke-linejoin:round;stroke-opacity:1"
         d="M 43000,18000 V 17000"
         id="path88" />
      <path
         style="fill:none;fill-opacity:0;stroke:#840000;stroke-width:60;stroke-linecap:round;stroke-linejoin:round;stroke-opacity:1"
         d="m 43000,17000 300,500"
         id="path90" />
    </g>
    <g
       style="fill:#008484;fill-opacity:0;stroke:#008484;stroke-width:60;stroke-linecap:round;stroke-linejoin:round;stroke-opacity:1"
       id="g112">
      <text
         x="43150"
         y="16520"
         textLength="2298.1104"
         font-size="666.654px"
         lengthAdjust="spacingAndGlyphs"
         text-anchor="middle"
         opacity="0"
         id="text94">+3.3V</text>
      <g
         class="stroked-text"
         id="g110">
        <desc
           id="desc96">+3.3V</desc>
        <path
           d="m 42150,16305 h 380"
           id="path98" />
        <path
           d="m 42340,16496 v -381"
           id="path100" />
        <path
           d="m 42721,15996 h 309 l -166,190 h 71 l 48,24 24,24 23,47 v 119 l -23,48 -24,24 -48,24 h -143 l -47,-24 -24,-24"
           id="path102" />
        <path
           d="m 43245,16448 24,24 -24,24 -24,-24 24,-24 v 48"
           id="path104" />
        <path
           d="m 43435,15996 h 310 l -167,190 h 72 l 47,24 24,24 24,47 v 119 l -24,48 -24,24 -47,24 h -143 l -48,-24 -24,-24"
           id="path106" />
        <path
           d="m 43888,15996 166,500 167,-500"
           id="path108" />
      </g>
    </g>
  </g>
  <g
     style="fill:#008484;fill-opacity:0;stroke:#008484;stroke-width:60;stroke-linecap:round;stroke-linejoin:round;stroke-opacity:1"
     id="g150"
     transform="translate(-37832.992,-12028.992)">
    <g
       id="g116" />
    <g
       style="fill:#840000;fill-opacity:0;stroke:#840000;stroke-width:60;stroke-linecap:round;stroke-linejoin:round;stroke-opacity:1"
       id="g118" />
    <g
       style="fill:#840000;fill-opacity:0;stroke:#840000;stroke-width:100;stroke-linecap:round;stroke-linejoin:round;stroke-opacity:1"
       id="g122">
      <rect
         x="44500"
         y="18600"
         width="2000"
         height="800"
         rx="0.000000"
         id="rect120" />
    </g>
    <g
       style="fill:#840000;fill-opacity:0;stroke:#840000;stroke-width:60;stroke-linecap:round;stroke-linejoin:round;stroke-opacity:1"
       id="g128">
      <path
         d="m 46500,19000 h 500"
         id="path124" />
      <path
         d="m 44500,19000 h -500"
         id="path126" />
    </g>
    <g
       style="fill:#008484;fill-opacity:0;stroke:#008484;stroke-width:60;stroke-linecap:round;stroke-linejoin:round;stroke-opacity:1"
       id="g148">
      <text
         x="45500"
         y="18100"
         textLength="1988.5826"
         font-size="666.654px"
         lengthAdjust="spacingAndGlyphs"
         text-anchor="middle"
         opacity="0"
         id="text130">100R</text>
      <g
         class="stroked-text"
         id="g146">
        <desc
           id="desc132">100R</desc>
        <path
           d="m 44916,18076 h -286"
           id="path134" />
        <path
           d="m 44773,18076 v -500 l -47,71 -48,48 -48,24"
           id="path136" />
        <path
           d="m 45226,17576 h 47 l 48,24 24,23 24,48 23,95 v 119 l -23,95 -24,48 -24,24 -48,24 h -47 l -48,-24 -24,-24 -24,-48 -23,-95 v -119 l 23,-95 24,-48 24,-23 48,-24"
           id="path138" />
        <path
           d="m 45702,17576 h 48 l 47,24 24,23 24,48 24,95 v 119 l -24,95 -24,48 -24,24 -47,24 h -48 l -48,-24 -24,-24 -23,-48 -24,-95 v -119 l 24,-95 23,-48 24,-23 48,-24"
           id="path140" />
        <path
           d="m 46369,18076 -167,-238"
           id="path142" />
        <path
           d="m 46083,18076 v -500 h 190 l 48,24 24,23 24,48 v 71 l -24,48 -24,24 -48,24 h -190"
           id="path144" />
      </g>
    </g>
  </g>
  <g
     style="fill:#008484;fill-opacity:0;stroke:#008484;stroke-width:60;stroke-linecap:round;stroke-linejoin:round;stroke-opacity:1"
     id="g172"
     transform="translate(-37832.992,-12028.992)">
    <g
       id="g152" />
    <g
       style="fill:#840000;fill-opacity:0;stroke:#840000;stroke-width:60;stroke-linecap:round;stroke-linejoin:round;stroke-opacity:1"
       id="g156">
      <path
         style="fill:none;fill-opacity:0;stroke:#840000;stroke-width:60;stroke-linecap:round;stroke-linejoin:round;stroke-opacity:1"
         d="m 43000,29000 v 500 h 500 l -500,500 -500,-500 h 500"
         id="path154" />
    </g>
    <g
       style="fill:#008484;fill-opacity:0;stroke:#008484;stroke-width:60;stroke-linecap:round;stroke-linejoin:round;stroke-opacity:1"
       id="g170">
      <text
         x="43050"
         y="30980"
         textLength="1583.8188"
         font-size="666.654px"
         lengthAdjust="spacingAndGlyphs"
         text-anchor="middle"
         opacity="0"
         id="text158">GND</text>
      <g
         class="stroked-text"
         id="g168">
        <desc
           id="desc160">GND</desc>
        <path
           d="m 42669,30480 -48,-24 h -71 l -72,24 -48,47 -23,48 -24,95 v 71 l 24,96 23,47 48,48 72,24 h 47 l 72,-24 23,-24 v -167 h -95"
           id="path162" />
        <path
           d="m 42907,30956 v -500 l 285,500 v -500"
           id="path164" />
        <path
           d="m 43430,30956 v -500 h 120 l 71,24 48,47 23,48 24,95 v 71 l -24,96 -23,47 -48,48 -71,24 h -120"
           id="path166" />
      </g>
    </g>
  </g>
  <g
     style="fill:#008484;fill-opacity:0;stroke:#008484;stroke-width:60;stroke-linecap:round;stroke-linejoin:round;stroke-opacity:1"
     id="g208"
     transform="translate(-37832.992,-12028.992)">
    <g
       id="g174" />
    <g
       style="fill:#840000;fill-opacity:0;stroke:#840000;stroke-width:60;stroke-linecap:round;stroke-linejoin:round;stroke-opacity:1"
       id="g176" />
    <g
       style="fill:#840000;fill-opacity:0;stroke:#840000;stroke-width:100;stroke-linecap:round;stroke-linejoin:round;stroke-opacity:1"
       id="g180">
      <rect
         x="42600"
         y="26500"
         width="800"
         height="2000"
         rx="0.000000"
         id="rect178" />
    </g>
    <g
       style="fill:#840000;fill-opacity:0;stroke:#840000;stroke-width:60;stroke-linecap:round;stroke-linejoin:round;stroke-opacity:1"
       id="g186">
      <path
         d="m 43000,26500 v -500"
         id="path182" />
      <path
         d="m 43000,28500 v 500"
         id="path184" />
    </g>
    <g
       style="fill:#008484;fill-opacity:0;stroke:#008484;stroke-width:60;stroke-linecap:round;stroke-linejoin:round;stroke-opacity:1"
       id="g206">
      <text
         x="44695.551"
         y="27750"
         textLength="1988.5826"
         font-size="666.654px"
         lengthAdjust="spacingAndGlyphs"
         text-anchor="middle"
         opacity="0"
         id="text188">220K</text>
      <g
         class="stroked-text"
         id="g204">
        <desc
           id="desc190">220K</desc>
        <path
           d="m 43826,27273 24,-23 47,-24 h 119 l 48,24 24,23 24,48 v 48 l -24,71 -286,286 h 310"
           id="path192" />
        <path
           d="m 44302,27273 24,-23 48,-24 h 119 l 47,24 24,23 24,48 v 48 l -24,71 -286,286 h 310"
           id="path194" />
        <path
           d="m 44897,27226 h 48 l 48,24 23,23 24,48 24,95 v 119 l -24,95 -24,48 -23,24 -48,24 h -48 l -47,-24 -24,-24 -24,-48 -24,-95 v -119 l 24,-95 24,-48 24,-23 47,-24"
           id="path196" />
        <path
           d="m 45278,27726 v -500"
           id="path198" />
        <path
           d="m 45564,27726 -214,-286"
           id="path200" />
        <path
           d="m 45564,27226 -286,285"
           id="path202" />
      </g>
    </g>
  </g>
  <g
     style="fill:#008484;fill-opacity:0;stroke:#008484;stroke-width:60;stroke-linecap:round;stroke-linejoin:round;stroke-opacity:1"
     id="g258"
     transform="translate(-37832.992,-12028.992)">
    <g
       id="g210" />
    <g
       style="fill:#840000;fill-opacity:0;stroke:#840000;stroke-width:60;stroke-linecap:round;stroke-linejoin:round;stroke-opacity:1"
       id="g212" />
    <g
       style="fill:#840000;fill-opacity:0;stroke:#840000;stroke-width:8.34646;stroke-linecap:round;stroke-linejoin:round;stroke-opacity:1"
       id="g218">
      <circle
         cx="43000"
         cy="22800"
         r="200"
         id="circle214" />
      <circle
         cx="43000"
         cy="21200"
         r="200"
         id="circle216" />
    </g>
    <g
       style="fill:#840000;fill-opacity:0;stroke:#840000;stroke-width:60;stroke-linecap:round;stroke-linejoin:round;stroke-opacity:1"
       id="g228">
      <path
         style="fill:none;fill-opacity:0;stroke:#840000;stroke-width:60;stroke-linecap:round;stroke-linejoin:round;stroke-opacity:1"
         d="m 42500,22000 h -700"
         id="path220" />
      <path
         style="fill:none;fill-opacity:0;stroke:#840000;stroke-width:60;stroke-linecap:round;stroke-linejoin:round;stroke-opacity:1"
         d="m 42500,21000 v 2000"
         id="path222" />
      <path
         d="m 43000,23000 v 1000"
         id="path224" />
      <path
         d="M 43000,21000 V 20000"
         id="path226" />
    </g>
    <g
       style="fill:#008484;fill-opacity:0;stroke:#008484;stroke-width:60;stroke-linecap:round;stroke-linejoin:round;stroke-opacity:1"
       id="g256">
      <text
         x="44725.551"
         y="22249.961"
         textLength="2488.5828"
         font-size="666.654px"
         lengthAdjust="spacingAndGlyphs"
         text-anchor="middle"
         opacity="0"
         id="text230">Button</text>
      <g
         class="stroked-text"
         id="g254">
        <desc
           id="desc232">Button</desc>
        <path
           d="m 43796,21964 72,24 24,23 24,48 v 71 l -24,48 -24,24 -48,24 h -190 v -500 h 166 l 48,23 24,24 24,48 v 47 l -24,48 -24,24 -48,24 h -166"
           id="path234" />
        <path
           d="m 44344,21892 v 334"
           id="path236" />
        <path
           d="m 44130,21892 v 262 l 24,48 47,24 h 72 l 47,-24 24,-24"
           id="path238" />
        <path
           d="m 44511,21892 h 190"
           id="path240" />
        <path
           d="m 44582,21726 v 428 l 24,48 48,24 h 47"
           id="path242" />
        <path
           d="m 44796,21892 h 191"
           id="path244" />
        <path
           d="m 44868,21726 v 428 l 24,48 47,24 h 48"
           id="path246" />
        <path
           d="m 45225,22226 -48,-24 -23,-24 -24,-48 v -142 l 24,-48 23,-24 48,-24 h 71 l 48,24 24,24 24,48 v 142 l -24,48 -24,24 -48,24 h -71"
           id="path248" />
        <path
           d="m 45606,21892 v 334"
           id="path250" />
        <path
           d="m 45606,21940 24,-24 47,-24 h 72 l 47,24 24,48 v 262"
           id="path252" />
      </g>
    </g>
  </g>
  <g
     style="fill:#008484;fill-opacity:0;stroke:#008484;stroke-width:62.5197;stroke-linecap:round;stroke-linejoin:round;stroke-opacity:1"
     id="g260"
     transform="translate(-37832.992,-12028.992)" />
  <g
     style="fill:#008484;fill-opacity:0;stroke:#008484;stroke-width:60;stroke-linecap:round;stroke-linejoin:round;stroke-opacity:1"
     id="g262"
     transform="translate(-37832.992,-12028.992)" />
  <g
     style="fill:#840000;fill-opacity:0;stroke:#840000;stroke-width:60;stroke-linecap:round;stroke-linejoin:round;stroke-opacity:1"
     id="g280"
     transform="translate(-37832.992,-12028.992)">
    <text
       x="52150"
       y="25250"
       textLength="1821.8898"
       font-size="666.654px"
       lengthAdjust="spacingAndGlyphs"
       text-anchor="start"
       opacity="0"
       id="text264">GPIO</text>
    <g
       class="stroked-text"
       id="g276">
      <desc
         id="desc266">GPIO</desc>
      <path
         d="m 52560,24750 -47,-24 h -72 l -71,24 -48,47 -23,48 -24,95 v 71 l 24,96 23,47 48,48 71,24 h 48 l 71,-24 24,-24 v -167 h -95"
         id="path268" />
      <path
         d="m 52799,25226 v -500 h 190 l 48,24 23,23 24,48 v 71 l -24,48 -23,24 -48,24 h -190"
         id="path270" />
      <path
         d="m 53299,25226 v -500"
         id="path272" />
      <path
         d="m 53632,24726 h 95 l 48,24 47,47 24,95 v 167 l -24,95 -47,48 -48,24 h -95 l -48,-24 -47,-48 -24,-95 v -167 l 24,-95 47,-47 48,-24"
         id="path274" />
    </g>
    <path
       style="fill:none;fill-opacity:0;stroke:#840000;stroke-width:60;stroke-linecap:round;stroke-linejoin:round;stroke-opacity:1"
       d="m 52000,25000 v 462.638 h 2187.047 l 400,-462.638 -400,-462.638 H 52000 Z"
       id="path278" />
  </g>
  <g
     style="fill:#008400;fill-opacity:0;stroke:#008400;stroke-width:60;stroke-linecap:round;stroke-linejoin:round;stroke-opacity:1"
     id="g302"
     transform="translate(-37832.992,-12028.992)">
    <path
       d="m 48000,23500 v 1500"
       id="path282" />
    <path
       d="M 49000,25000 H 48000"
       id="path284" />
    <path
       d="M 43000,19000 V 18000"
       id="path286" />
    <path
       d="m 47000,19000 h 1000"
       id="path288" />
    <path
       d="m 48000,19000 v 1500"
       id="path290" />
    <path
       d="m 43000,24000 v 1000"
       id="path292" />
    <path
       d="m 43000,25000 v 1000"
       id="path294" />
    <path
       d="m 43000,25000 h 5000"
       id="path296" />
    <path
       d="M 43000,20000 V 19000"
       id="path298" />
    <path
       d="M 44000,19000 H 43000"
       id="path300" />
  </g>
  <g
     style="fill:#008400;fill-opacity:1;stroke:#008400;stroke-width:60;stroke-linecap:round;stroke-linejoin:round;stroke-opacity:1"
     id="g310"
     transform="translate(-37832.992,-12028.992)">
    <circle
       cx="48000"
       cy="25000"
       r="200"
       id="circle304" />
    <circle
       cx="43000"
       cy="25000"
       r="200"
       id="circle306" />
    <circle
       cx="43000"
       cy="19000"
       r="200"
       id="circle308" />
  </g>
</svg>
