<?xml version="1.0" encoding="UTF-8" standalone="no"?>
<svg
   xmlns:dc="http://purl.org/dc/elements/1.1/"
   xmlns:cc="http://creativecommons.org/ns#"
   xmlns:rdf="http://www.w3.org/1999/02/22-rdf-syntax-ns#"
   xmlns:svg="http://www.w3.org/2000/svg"
   xmlns="http://www.w3.org/2000/svg"
   version="1.1"
   width="5.97435cm"
   height="6.0775738cm"
   viewBox="0 0 23521.063 23927.457"
   id="svg518">
  <metadata
     id="metadata524">
    <rdf:RDF>
      <cc:Work
         rdf:about="">
        <dc:format>image/svg+xml</dc:format>
        <dc:type
           rdf:resource="http://purl.org/dc/dcmitype/StillImage" />
      </cc:Work>
    </rdf:RDF>
  </metadata>
  <defs
     id="defs522" />
  <title
     id="title2">SVG Picture created as switch_indication_upgrade.svg date 2021/05/14 21:08:32 </title>
  <desc
     id="desc4">Picture generated by Eeschema-SVG </desc>
  <g
     style="fill:#000000;fill-opacity:1;stroke:#000000;stroke-linecap:round;stroke-linejoin:round;stroke-opacity:1"
     id="g6"
     transform="translate(-15445.945,-19028.992)" />
  <g
     style="fill:#000000;fill-opacity:0;stroke:#000000;stroke-width:60;stroke-linecap:round;stroke-linejoin:round;stroke-opacity:1"
     id="g98"
     transform="translate(-15445.945,-19028.992)">
    <g
       id="g8" />
    <g
       style="fill:#840000;fill-opacity:0;stroke:#840000;stroke-width:60;stroke-linecap:round;stroke-linejoin:round;stroke-opacity:1"
       id="g10" />
    <g
       style="fill:#840000;fill-opacity:0;stroke:#840000;stroke-width:100;stroke-linecap:round;stroke-linejoin:round;stroke-opacity:1"
       id="g14">
      <circle
         cx="27500"
         cy="35000"
         r="1110"
         id="circle12" />
    </g>
    <g
       style="fill:#840000;fill-opacity:0;stroke:#840000;stroke-width:60;stroke-linecap:round;stroke-linejoin:round;stroke-opacity:1"
       id="g22">
      <path
         style="fill:none;fill-opacity:0;stroke:#840000;stroke-width:60;stroke-linecap:round;stroke-linejoin:round;stroke-opacity:1"
         d="m 27000,35000 h 250"
         id="path16" />
      <path
         style="fill:none;fill-opacity:0;stroke:#840000;stroke-width:60;stroke-linecap:round;stroke-linejoin:round;stroke-opacity:1"
         d="m 28000,36000 -750,-750"
         id="path18" />
      <path
         style="fill:none;fill-opacity:0;stroke:#840000;stroke-width:60;stroke-linecap:round;stroke-linejoin:round;stroke-opacity:1"
         d="m 28000,34000 -750,750"
         id="path20" />
    </g>
    <g
       style="fill:#840000;fill-opacity:0;stroke:#840000;stroke-width:200;stroke-linecap:round;stroke-linejoin:round;stroke-opacity:1"
       id="g26">
      <path
         style="fill:none;fill-opacity:0;stroke:#840000;stroke-width:200;stroke-linecap:round;stroke-linejoin:round;stroke-opacity:1"
         d="m 27250,34250 v 1500 0"
         id="path24" />
    </g>
    <g
       style="fill:#840000;fill-opacity:0;stroke:#840000;stroke-width:60;stroke-linecap:round;stroke-linejoin:round;stroke-opacity:1"
       id="g30">
      <path
         style="fill:none;fill-opacity:0;stroke:#840000;stroke-width:60;stroke-linecap:round;stroke-linejoin:round;stroke-opacity:1"
         d="m 27950,35950 -200,-200 v 0"
         id="path28" />
    </g>
    <g
       style="fill:#840000;fill-opacity:1;stroke:#840000;stroke-width:60;stroke-linecap:round;stroke-linejoin:round;stroke-opacity:1"
       id="g34">
      <path
         style="fill:#840000;fill-opacity:1;fill-rule:evenodd;stroke:#840000;stroke-width:60;stroke-linecap:round;stroke-linejoin:round;stroke-opacity:1"
         d="m 27450,35650 200,-200 200,400 z"
         id="path32" />
    </g>
    <g
       style="fill:#840000;fill-opacity:0;stroke:#840000;stroke-width:60;stroke-linecap:round;stroke-linejoin:round;stroke-opacity:1"
       id="g72">
      <path
         d="m 28000,36000 v 1000"
         id="path36" />
      <g
         transform="rotate(-90,28100,36500)"
         id="g40">
        <text
           x="28100"
           y="37000"
           textLength="538.70081"
           font-size="666.654px"
           lengthAdjust="spacingAndGlyphs"
           text-anchor="middle"
           opacity="0"
           id="text38">1</text>
      </g>
      <g
         class="stroked-text"
         id="g48">
        <desc
           id="desc42">1</desc>
        <path
           d="m 28576,36357 v 285"
           id="path44" />
        <path
           d="m 28576,36500 h -500 l 71,47 48,48 24,47"
           id="path46" />
      </g>
      <path
         d="M 27000,35000 H 25000"
         id="path50" />
      <text
         x="26000"
         y="35600"
         textLength="536.18109"
         font-size="666.654px"
         lengthAdjust="spacingAndGlyphs"
         text-anchor="middle"
         opacity="0"
         id="text52">2</text>
      <g
         class="stroked-text"
         id="g58">
        <desc
           id="desc54">2</desc>
        <path
           d="m 25857,35123 23,-23 48,-24 h 119 l 48,24 24,23 23,48 v 48 l -23,71 -286,286 h 309"
           id="path56" />
      </g>
      <path
         d="M 28000,34000 V 33000"
         id="path60" />
      <g
         transform="rotate(-90,28100,33500)"
         id="g64">
        <text
           x="28100"
           y="34000"
           textLength="536.18109"
           font-size="666.654px"
           lengthAdjust="spacingAndGlyphs"
           text-anchor="middle"
           opacity="0"
           id="text62">3</text>
      </g>
      <g
         class="stroked-text"
         id="g70">
        <desc
           id="desc66">3</desc>
        <path
           d="m 28076,33666 v -309 l 190,166 v -71 l 24,-48 24,-24 47,-23 h 119 l 48,23 24,24 24,48 v 143 l -24,47 -24,24"
           id="path68" />
      </g>
    </g>
    <g
       style="fill:#008484;fill-opacity:0;stroke:#008484;stroke-width:60;stroke-linecap:round;stroke-linejoin:round;stroke-opacity:1"
       id="g96">
      <text
         x="30609.803"
         y="35250"
         textLength="3417.126"
         font-size="666.654px"
         lengthAdjust="spacingAndGlyphs"
         text-anchor="middle"
         opacity="0"
         id="text74">PN2222A</text>
      <g
         class="stroked-text"
         id="g94">
        <desc
           id="desc76">PN2222A</desc>
        <path
           d="m 29050,35226 v -500 h 190 l 48,24 24,23 23,48 v 71 l -23,48 -24,24 -48,24 h -190"
           id="path78" />
        <path
           d="m 29550,35226 v -500 l 285,500 v -500"
           id="path80" />
        <path
           d="m 30050,34773 24,-23 47,-24 h 119 l 48,24 24,23 23,48 v 48 l -23,71 -286,286 h 309"
           id="path82" />
        <path
           d="m 30526,34773 24,-23 47,-24 h 119 l 48,24 24,23 24,48 v 48 l -24,71 -286,286 h 310"
           id="path84" />
        <path
           d="m 31002,34773 24,-23 48,-24 h 119 l 47,24 24,23 24,48 v 48 l -24,71 -286,286 h 310"
           id="path86" />
        <path
           d="m 31478,34773 24,-23 48,-24 h 119 l 47,24 24,23 24,48 v 48 l -24,71 -285,286 h 309"
           id="path88" />
        <path
           d="m 31955,35083 h 238"
           id="path90" />
        <path
           d="m 31907,35226 167,-500 166,500"
           id="path92" />
      </g>
    </g>
  </g>
  <g
     style="fill:#008484;fill-opacity:0;stroke:#008484;stroke-width:60;stroke-linecap:round;stroke-linejoin:round;stroke-opacity:1"
     id="g242"
     transform="translate(-15445.945,-19028.992)">
    <g
       id="g100" />
    <g
       style="fill:#840000;fill-opacity:0;stroke:#840000;stroke-width:60;stroke-linecap:round;stroke-linejoin:round;stroke-opacity:1"
       id="g102" />
    <g
       style="fill:#ffffc2;fill-opacity:0;stroke:#ffffc2;stroke-width:60;stroke-linecap:round;stroke-linejoin:round;stroke-opacity:1"
       id="g104" />
    <g
       style="fill:#ffffc2;fill-opacity:0.6;stroke:#ffffc2;stroke-width:0.03937;stroke-linecap:round;stroke-linejoin:round;stroke-opacity:1"
       id="g108">
      <rect
         x="30000"
         y="28500"
         width="4000"
         height="3000"
         rx="0.000000"
         id="rect106" />
    </g>
    <g
       style="fill:#840000;fill-opacity:0.6;stroke:#840000;stroke-width:0.03937;stroke-linecap:round;stroke-linejoin:round;stroke-opacity:1"
       id="g110" />
    <g
       style="fill:#840000;fill-opacity:0;stroke:#840000;stroke-width:100;stroke-linecap:round;stroke-linejoin:round;stroke-opacity:1"
       id="g114">
      <rect
         x="30000"
         y="28500"
         width="4000"
         height="3000"
         rx="0.000000"
         id="rect112" />
    </g>
    <g
       style="fill:#840000;fill-opacity:0;stroke:#840000;stroke-width:8.34646;stroke-linecap:round;stroke-linejoin:round;stroke-opacity:1"
       id="g120">
      <circle
         cx="32900"
         cy="31000"
         r="50"
         id="circle116" />
      <circle
         cx="32900"
         cy="29000"
         r="50"
         id="circle118" />
    </g>
    <g
       style="fill:#840000;fill-opacity:0;stroke:#840000;stroke-width:25;stroke-linecap:round;stroke-linejoin:round;stroke-opacity:1"
       id="g134">
      <text
         x="32200"
         y="31100.039"
         textLength="650.47241"
         font-size="266.654px"
         lengthAdjust="spacingAndGlyphs"
         text-anchor="middle"
         opacity="0"
         id="text122">ZCD</text>
      <g
         class="stroked-text"
         id="g132">
        <desc
           id="desc124">ZCD</desc>
        <path
           d="m 31933,30890 h 133 l -133,200 h 133"
           id="path126" />
        <path
           d="m 32257,31071 -10,9 -28,10 h -19 l -29,-10 -19,-19 -10,-19 -9,-38 v -28 l 9,-38 10,-19 19,-19 29,-10 h 19 l 28,10 10,9"
           id="path128" />
        <path
           d="m 32342,31090 v -200 h 48 l 29,10 19,19 9,19 10,38 v 28 l -10,38 -9,19 -19,19 -29,10 h -48"
           id="path130" />
      </g>
    </g>
    <g
       style="fill:#840000;fill-opacity:0;stroke:#840000;stroke-width:8.34646;stroke-linecap:round;stroke-linejoin:round;stroke-opacity:1"
       id="g138">
      <rect
         x="31850"
         y="30800"
         width="700"
         height="400"
         rx="0.000000"
         id="rect136" />
    </g>
    <g
       style="fill:#840000;fill-opacity:0;stroke:#840000;stroke-width:100;stroke-linecap:round;stroke-linejoin:round;stroke-opacity:1"
       id="g142">
      <rect
         x="30000"
         y="28500"
         width="4000"
         height="3000"
         rx="0.000000"
         id="rect140" />
    </g>
    <g
       style="fill:#840000;fill-opacity:0;stroke:#840000;stroke-width:60;stroke-linecap:round;stroke-linejoin:round;stroke-opacity:1"
       id="g216">
      <path
         style="fill:none;fill-opacity:0;stroke:#840000;stroke-width:60;stroke-linecap:round;stroke-linejoin:round;stroke-opacity:1"
         d="m 32900,31000 h -350"
         id="path144" />
      <path
         style="fill:none;fill-opacity:0;stroke:#840000;stroke-width:60;stroke-linecap:round;stroke-linejoin:round;stroke-opacity:1"
         d="m 32600,30250 -200,150 v 400"
         id="path146" />
      <path
         style="fill:none;fill-opacity:0;stroke:#840000;stroke-width:60;stroke-linecap:round;stroke-linejoin:round;stroke-opacity:1"
         d="m 30750,30250 h 500"
         id="path148" />
      <path
         style="fill:none;fill-opacity:0;stroke:#840000;stroke-width:60;stroke-linecap:round;stroke-linejoin:round;stroke-opacity:1"
         d="m 32600,30250 v -500"
         id="path150" />
      <path
         style="fill:none;fill-opacity:0;stroke:#840000;stroke-width:60;stroke-linecap:round;stroke-linejoin:round;stroke-opacity:1"
         d="m 33200,29750 v 500"
         id="path152" />
      <path
         style="fill:none;fill-opacity:0;stroke:#840000;stroke-width:60;stroke-linecap:round;stroke-linejoin:round;stroke-opacity:1"
         d="m 32900,30250 v 750 h 1100"
         id="path154" />
      <path
         style="fill:none;fill-opacity:0;stroke:#840000;stroke-width:60;stroke-linecap:round;stroke-linejoin:round;stroke-opacity:1"
         d="m 32900,29750 v -750 h 1100"
         id="path156" />
      <path
         style="fill:none;fill-opacity:0;stroke:#840000;stroke-width:60;stroke-linecap:round;stroke-linejoin:round;stroke-opacity:1"
         d="m 32900,29000 h -700 v 1800"
         id="path158" />
      <path
         style="fill:none;fill-opacity:0;stroke:#840000;stroke-width:60;stroke-linecap:round;stroke-linejoin:round;stroke-opacity:1"
         d="m 30000,29000 h 1000 v 2000 h -1000"
         id="path160" />
      <path
         style="fill:none;fill-opacity:0;stroke:#840000;stroke-width:60;stroke-linecap:round;stroke-linejoin:round;stroke-opacity:1"
         d="m 31000,30250 -250,-500 h 500 z"
         id="path162" />
      <path
         style="fill:none;fill-opacity:0;stroke:#840000;stroke-width:60;stroke-linecap:round;stroke-linejoin:round;stroke-opacity:1"
         d="m 32350,30250 h 1100 l -250,-500 -250,500"
         id="path164" />
      <path
         style="fill:none;fill-opacity:0;stroke:#840000;stroke-width:60;stroke-linecap:round;stroke-linejoin:round;stroke-opacity:1"
         d="m 33450,29750 h -1100 l 250,500 250,-500"
         id="path166" />
      <path
         style="fill:none;fill-opacity:0;stroke:#840000;stroke-width:60;stroke-linecap:round;stroke-linejoin:round;stroke-opacity:1"
         d="m 31550,30200 h 500 l -150,50 v -100 l 150,50"
         id="path168" />
      <path
         style="fill:none;fill-opacity:0;stroke:#840000;stroke-width:60;stroke-linecap:round;stroke-linejoin:round;stroke-opacity:1"
         d="m 31550,29800 h 500 l -150,50 v -100 l 150,50"
         id="path170" />
      <path
         d="M 30000,29000 H 29000"
         id="path172" />
      <text
         x="29500"
         y="28900"
         textLength="501.18109"
         font-size="666.654px"
         lengthAdjust="spacingAndGlyphs"
         text-anchor="middle"
         opacity="0"
         id="text174">1</text>
      <g
         class="stroked-text"
         id="g182">
        <desc
           id="desc176">1</desc>
        <path
           d="m 29642,28876 h -285"
           id="path178" />
        <path
           d="m 29500,28876 v -500 l -48,71 -48,48 -47,24"
           id="path180" />
      </g>
      <path
         d="M 30000,31000 H 29000"
         id="path184" />
      <text
         x="29500"
         y="30900"
         textLength="536.18109"
         font-size="666.654px"
         lengthAdjust="spacingAndGlyphs"
         text-anchor="middle"
         opacity="0"
         id="text186">2</text>
      <g
         class="stroked-text"
         id="g192">
        <desc
           id="desc188">2</desc>
        <path
           d="m 29357,30423 23,-23 48,-24 h 119 l 48,24 24,23 23,48 v 48 l -23,71 -286,286 h 309"
           id="path190" />
      </g>
      <path
         d="m 34000,31000 h 1000"
         id="path194" />
      <text
         x="34500"
         y="30900"
         textLength="536.18109"
         font-size="666.654px"
         lengthAdjust="spacingAndGlyphs"
         text-anchor="middle"
         opacity="0"
         id="text196">4</text>
      <g
         class="stroked-text"
         id="g204">
        <desc
           id="desc198">4</desc>
        <path
           d="m 34595,30542 v 334"
           id="path200" />
        <path
           d="m 34476,30352 -119,357 h 309"
           id="path202" />
      </g>
      <path
         d="m 34000,29000 h 1000"
         id="path206" />
      <text
         x="34500"
         y="28900"
         textLength="536.18109"
         font-size="666.654px"
         lengthAdjust="spacingAndGlyphs"
         text-anchor="middle"
         opacity="0"
         id="text208">6</text>
      <g
         class="stroked-text"
         id="g214">
        <desc
           id="desc210">6</desc>
        <path
           d="m 34595,28376 h -95 l -48,24 -24,23 -48,72 -23,95 v 190 l 23,48 24,24 48,24 h 95 l 48,-24 24,-24 23,-48 v -119 l -23,-47 -24,-24 -48,-24 h -95 l -48,24 -24,24 -23,47"
           id="path212" />
      </g>
    </g>
    <g
       style="fill:#008484;fill-opacity:0;stroke:#008484;stroke-width:60;stroke-linecap:round;stroke-linejoin:round;stroke-opacity:1"
       id="g240">
      <text
         x="32000"
         y="27920"
         textLength="3488.5828"
         font-size="666.654px"
         lengthAdjust="spacingAndGlyphs"
         text-anchor="middle"
         opacity="0"
         id="text218">MOC308x</text>
      <g
         class="stroked-text"
         id="g238">
        <desc
           id="desc220">MOC308x</desc>
        <path
           d="m 30404,27896 v -500 l 167,357 167,-357 v 500"
           id="path222" />
        <path
           d="m 31071,27396 h 95 l 48,24 47,47 24,95 v 167 l -24,95 -47,48 -48,24 h -95 l -48,-24 -47,-48 -24,-95 v -167 l 24,-95 47,-47 48,-24"
           id="path224" />
        <path
           d="m 31785,27848 -24,24 -71,24 h -48 l -71,-24 -48,-48 -23,-47 -24,-96 v -71 l 24,-95 23,-48 48,-47 71,-24 h 48 l 71,24 24,23"
           id="path226" />
        <path
           d="m 31952,27396 h 309 l -166,190 h 71 l 48,24 24,24 23,47 v 119 l -23,48 -24,24 -48,24 h -143 l -47,-24 -24,-24"
           id="path228" />
        <path
           d="m 32571,27396 h 48 l 47,24 24,23 24,48 24,95 v 119 l -24,95 -24,48 -24,24 -47,24 h -48 l -48,-24 -23,-24 -24,-48 -24,-95 v -119 l 24,-95 24,-48 23,-23 48,-24"
           id="path230" />
        <path
           d="m 33023,27610 -47,-24 -24,-24 -24,-47 v -24 l 24,-48 24,-23 47,-24 h 96 l 47,24 24,23 24,48 v 24 l -24,47 -24,24 -47,24 h -96 l -47,24 -24,24 -24,47 v 95 l 24,48 24,24 47,24 h 96 l 47,-24 24,-24 24,-48 v -95 l -24,-47 -24,-24 -47,-24"
           id="path232" />
        <path
           d="m 33380,27896 262,-334"
           id="path234" />
        <path
           d="m 33380,27562 262,334"
           id="path236" />
      </g>
    </g>
  </g>
  <g
     style="fill:#008484;fill-opacity:0;stroke:#008484;stroke-width:60;stroke-linecap:round;stroke-linejoin:round;stroke-opacity:1"
     id="g264"
     transform="translate(-15445.945,-19028.992)">
    <g
       id="g244" />
    <g
       style="fill:#840000;fill-opacity:0;stroke:#840000;stroke-width:60;stroke-linecap:round;stroke-linejoin:round;stroke-opacity:1"
       id="g248">
      <path
         style="fill:none;fill-opacity:0;stroke:#840000;stroke-width:60;stroke-linecap:round;stroke-linejoin:round;stroke-opacity:1"
         d="m 28000,37000 v 500 h 500 l -500,500 -500,-500 h 500"
         id="path246" />
    </g>
    <g
       style="fill:#008484;fill-opacity:0;stroke:#008484;stroke-width:60;stroke-linecap:round;stroke-linejoin:round;stroke-opacity:1"
       id="g262">
      <text
         x="28050"
         y="38980"
         textLength="1583.8188"
         font-size="666.654px"
         lengthAdjust="spacingAndGlyphs"
         text-anchor="middle"
         opacity="0"
         id="text250">GND</text>
      <g
         class="stroked-text"
         id="g260">
        <desc
           id="desc252">GND</desc>
        <path
           d="m 27669,38480 -48,-24 h -71 l -72,24 -48,47 -23,48 -24,95 v 71 l 24,96 23,47 48,48 72,24 h 47 l 72,-24 23,-24 v -167 h -95"
           id="path254" />
        <path
           d="m 27907,38956 v -500 l 285,500 v -500"
           id="path256" />
        <path
           d="m 28430,38956 v -500 h 120 l 71,24 48,47 23,48 24,95 v 71 l -24,96 -23,47 -48,48 -71,24 h -120"
           id="path258" />
      </g>
    </g>
  </g>
  <g
     style="fill:#008484;fill-opacity:0;stroke:#008484;stroke-width:60;stroke-linecap:round;stroke-linejoin:round;stroke-opacity:1"
     id="g300"
     transform="translate(-15445.945,-19028.992)">
    <g
       id="g266" />
    <g
       style="fill:#840000;fill-opacity:0;stroke:#840000;stroke-width:60;stroke-linecap:round;stroke-linejoin:round;stroke-opacity:1"
       id="g268" />
    <g
       style="fill:#840000;fill-opacity:0;stroke:#840000;stroke-width:100;stroke-linecap:round;stroke-linejoin:round;stroke-opacity:1"
       id="g272">
      <rect
         x="22500"
         y="34600"
         width="2000"
         height="800"
         rx="0.000000"
         id="rect270" />
    </g>
    <g
       style="fill:#840000;fill-opacity:0;stroke:#840000;stroke-width:60;stroke-linecap:round;stroke-linejoin:round;stroke-opacity:1"
       id="g278">
      <path
         d="m 24500,35000 h 500"
         id="path274" />
      <path
         d="m 22500,35000 h -500"
         id="path276" />
    </g>
    <g
       style="fill:#008484;fill-opacity:0;stroke:#008484;stroke-width:60;stroke-linecap:round;stroke-linejoin:round;stroke-opacity:1"
       id="g298">
      <text
         x="23500"
         y="34100"
         textLength="1750.4724"
         font-size="666.654px"
         lengthAdjust="spacingAndGlyphs"
         text-anchor="middle"
         opacity="0"
         id="text280">2.2K</text>
      <g
         class="stroked-text"
         id="g296">
        <desc
           id="desc282">2.2K</desc>
        <path
           d="m 22750,33623 23,-23 48,-24 h 119 l 48,24 23,23 24,48 v 48 l -24,71 -285,286 h 309"
           id="path284" />
        <path
           d="m 23250,34028 23,24 -23,24 -24,-24 24,-24 v 48"
           id="path286" />
        <path
           d="m 23464,33623 24,-23 47,-24 h 119 l 48,24 24,23 24,48 v 48 l -24,71 -286,286 h 310"
           id="path288" />
        <path
           d="m 23964,34076 v -500"
           id="path290" />
        <path
           d="m 24250,34076 -215,-286"
           id="path292" />
        <path
           d="m 24250,33576 -286,285"
           id="path294" />
      </g>
    </g>
  </g>
  <g
     style="fill:#008484;fill-opacity:0;stroke:#008484;stroke-width:60;stroke-linecap:round;stroke-linejoin:round;stroke-opacity:1"
     id="g334"
     transform="translate(-15445.945,-19028.992)">
    <g
       id="g302" />
    <g
       style="fill:#840000;fill-opacity:0;stroke:#840000;stroke-width:60;stroke-linecap:round;stroke-linejoin:round;stroke-opacity:1"
       id="g304" />
    <g
       style="fill:#840000;fill-opacity:0;stroke:#840000;stroke-width:100;stroke-linecap:round;stroke-linejoin:round;stroke-opacity:1"
       id="g308">
      <rect
         x="24600"
         y="25500"
         width="800"
         height="2000"
         rx="0.000000"
         id="rect306" />
    </g>
    <g
       style="fill:#840000;fill-opacity:0;stroke:#840000;stroke-width:60;stroke-linecap:round;stroke-linejoin:round;stroke-opacity:1"
       id="g314">
      <path
         d="m 25000,25500 v -500"
         id="path310" />
      <path
         d="m 25000,27500 v 500"
         id="path312" />
    </g>
    <g
       style="fill:#008484;fill-opacity:0;stroke:#008484;stroke-width:60;stroke-linecap:round;stroke-linejoin:round;stroke-opacity:1"
       id="g332">
      <text
         x="26219.33"
         y="26750"
         textLength="1036.1812"
         font-size="666.654px"
         lengthAdjust="spacingAndGlyphs"
         text-anchor="middle"
         opacity="0"
         id="text316">1K</text>
      <g
         class="stroked-text"
         id="g330">
        <desc
           id="desc318">1K</desc>
        <path
           d="m 26112,26726 h -286"
           id="path320" />
        <path
           d="m 25969,26726 v -500 l -48,71 -47,48 -48,24"
           id="path322" />
        <path
           d="m 26326,26726 v -500"
           id="path324" />
        <path
           d="m 26612,26726 -215,-286"
           id="path326" />
        <path
           d="m 26612,26226 -286,285"
           id="path328" />
      </g>
    </g>
  </g>
  <g
     style="fill:#008484;fill-opacity:0;stroke:#008484;stroke-width:60;stroke-linecap:round;stroke-linejoin:round;stroke-opacity:1"
     id="g378"
     transform="translate(-15445.945,-19028.992)">
    <g
       id="g336" />
    <g
       style="fill:#840000;fill-opacity:0;stroke:#840000;stroke-width:60;stroke-linecap:round;stroke-linejoin:round;stroke-opacity:1"
       id="g338" />
    <g
       style="fill:#840000;fill-opacity:0;stroke:#840000;stroke-width:100;stroke-linecap:round;stroke-linejoin:round;stroke-opacity:1"
       id="g342">
      <path
         style="fill:none;fill-opacity:0;stroke:#840000;stroke-width:100;stroke-linecap:round;stroke-linejoin:round;stroke-opacity:1"
         d="M 25500,30000 H 24500"
         id="path340" />
    </g>
    <g
       style="fill:#840000;fill-opacity:0;stroke:#840000;stroke-width:60;stroke-linecap:round;stroke-linejoin:round;stroke-opacity:1"
       id="g346">
      <path
         style="fill:none;fill-opacity:0;stroke:#840000;stroke-width:60;stroke-linecap:round;stroke-linejoin:round;stroke-opacity:1"
         d="M 25000,30000 V 29000"
         id="path344" />
    </g>
    <g
       style="fill:#840000;fill-opacity:0;stroke:#840000;stroke-width:100;stroke-linecap:round;stroke-linejoin:round;stroke-opacity:1"
       id="g350">
      <path
         style="fill:none;fill-opacity:0;stroke:#840000;stroke-width:100;stroke-linecap:round;stroke-linejoin:round;stroke-opacity:1"
         d="m 25500,29000 h -1000 l 500,1000 z"
         id="path348" />
    </g>
    <g
       style="fill:#840000;fill-opacity:0;stroke:#840000;stroke-width:60;stroke-linecap:round;stroke-linejoin:round;stroke-opacity:1"
       id="g360">
      <path
         style="fill:none;fill-opacity:0;stroke:#840000;stroke-width:60;stroke-linecap:round;stroke-linejoin:round;stroke-opacity:1"
         d="m 25300,30700 600,600 v -300 300 h -300"
         id="path352" />
      <path
         style="fill:none;fill-opacity:0;stroke:#840000;stroke-width:60;stroke-linecap:round;stroke-linejoin:round;stroke-opacity:1"
         d="m 25300,30200 600,600 v -300 300 h -300"
         id="path354" />
      <path
         d="m 25000,30000 v 1000"
         id="path356" />
      <path
         d="M 25000,29000 V 28000"
         id="path358" />
    </g>
    <g
       style="fill:#008484;fill-opacity:0;stroke:#008484;stroke-width:60;stroke-linecap:round;stroke-linejoin:round;stroke-opacity:1"
       id="g376">
      <text
         x="26889.803"
         y="29819.961"
         textLength="1417.126"
         font-size="666.654px"
         lengthAdjust="spacingAndGlyphs"
         text-anchor="middle"
         opacity="0"
         id="text362">LED</text>
      <g
         class="stroked-text"
         id="g374">
        <desc
           id="desc364">LED</desc>
        <path
           d="m 26568,29796 h -238 v -500"
           id="path366" />
        <path
           d="m 26735,29534 h 166"
           id="path368" />
        <path
           d="m 26973,29796 h -238 v -500 h 238"
           id="path370" />
        <path
           d="m 27187,29796 v -500 h 119 l 71,23 48,48 24,48 24,95 v 71 l -24,96 -24,47 -48,48 -71,24 h -119"
           id="path372" />
      </g>
    </g>
  </g>
  <g
     style="fill:#008484;fill-opacity:0;stroke:#008484;stroke-width:60;stroke-linecap:round;stroke-linejoin:round;stroke-opacity:1"
     id="g410"
     transform="translate(-15445.945,-19028.992)">
    <g
       id="g380" />
    <g
       style="fill:#840000;fill-opacity:0;stroke:#840000;stroke-width:60;stroke-linecap:round;stroke-linejoin:round;stroke-opacity:1"
       id="g388">
      <path
         style="fill:none;fill-opacity:0;stroke:#840000;stroke-width:60;stroke-linecap:round;stroke-linejoin:round;stroke-opacity:1"
         d="m 24700,24500 300,-500"
         id="path382" />
      <path
         style="fill:none;fill-opacity:0;stroke:#840000;stroke-width:60;stroke-linecap:round;stroke-linejoin:round;stroke-opacity:1"
         d="M 25000,25000 V 24000"
         id="path384" />
      <path
         style="fill:none;fill-opacity:0;stroke:#840000;stroke-width:60;stroke-linecap:round;stroke-linejoin:round;stroke-opacity:1"
         d="m 25000,24000 300,500"
         id="path386" />
    </g>
    <g
       style="fill:#008484;fill-opacity:0;stroke:#008484;stroke-width:60;stroke-linecap:round;stroke-linejoin:round;stroke-opacity:1"
       id="g408">
      <text
         x="25150"
         y="23520"
         textLength="2298.1104"
         font-size="666.654px"
         lengthAdjust="spacingAndGlyphs"
         text-anchor="middle"
         opacity="0"
         id="text390">+3.3V</text>
      <g
         class="stroked-text"
         id="g406">
        <desc
           id="desc392">+3.3V</desc>
        <path
           d="m 24150,23305 h 380"
           id="path394" />
        <path
           d="m 24340,23496 v -381"
           id="path396" />
        <path
           d="m 24721,22996 h 309 l -166,190 h 71 l 48,24 24,24 23,47 v 119 l -23,48 -24,24 -48,24 h -143 l -47,-24 -24,-24"
           id="path398" />
        <path
           d="m 25245,23448 24,24 -24,24 -24,-24 24,-24 v 48"
           id="path400" />
        <path
           d="m 25435,22996 h 310 l -167,190 h 72 l 47,24 24,24 24,47 v 119 l -24,48 -24,24 -47,24 h -143 l -48,-24 -24,-24"
           id="path402" />
        <path
           d="m 25888,22996 166,500 167,-500"
           id="path404" />
      </g>
    </g>
  </g>
  <g
     style="fill:#008484;fill-opacity:0;stroke:#008484;stroke-width:60;stroke-linecap:round;stroke-linejoin:round;stroke-opacity:1"
     id="g442"
     transform="translate(-15445.945,-19028.992)">
    <g
       id="g412" />
    <g
       style="fill:#840000;fill-opacity:0;stroke:#840000;stroke-width:60;stroke-linecap:round;stroke-linejoin:round;stroke-opacity:1"
       id="g420">
      <path
         style="fill:none;fill-opacity:0;stroke:#840000;stroke-width:60;stroke-linecap:round;stroke-linejoin:round;stroke-opacity:1"
         d="m 27700,24500 300,-500"
         id="path414" />
      <path
         style="fill:none;fill-opacity:0;stroke:#840000;stroke-width:60;stroke-linecap:round;stroke-linejoin:round;stroke-opacity:1"
         d="M 28000,25000 V 24000"
         id="path416" />
      <path
         style="fill:none;fill-opacity:0;stroke:#840000;stroke-width:60;stroke-linecap:round;stroke-linejoin:round;stroke-opacity:1"
         d="m 28000,24000 300,500"
         id="path418" />
    </g>
    <g
       style="fill:#008484;fill-opacity:0;stroke:#008484;stroke-width:60;stroke-linecap:round;stroke-linejoin:round;stroke-opacity:1"
       id="g440">
      <text
         x="28150"
         y="23520"
         textLength="2298.1104"
         font-size="666.654px"
         lengthAdjust="spacingAndGlyphs"
         text-anchor="middle"
         opacity="0"
         id="text422">+3.3V</text>
      <g
         class="stroked-text"
         id="g438">
        <desc
           id="desc424">+3.3V</desc>
        <path
           d="m 27150,23305 h 380"
           id="path426" />
        <path
           d="m 27340,23496 v -381"
           id="path428" />
        <path
           d="m 27721,22996 h 309 l -166,190 h 71 l 48,24 24,24 23,47 v 119 l -23,48 -24,24 -48,24 h -143 l -47,-24 -24,-24"
           id="path430" />
        <path
           d="m 28245,23448 24,24 -24,24 -24,-24 24,-24 v 48"
           id="path432" />
        <path
           d="m 28435,22996 h 310 l -167,190 h 72 l 47,24 24,24 24,47 v 119 l -24,48 -24,24 -47,24 h -143 l -48,-24 -24,-24"
           id="path434" />
        <path
           d="m 28888,22996 166,500 167,-500"
           id="path436" />
      </g>
    </g>
  </g>
  <g
     style="fill:#008484;fill-opacity:0;stroke:#008484;stroke-width:60;stroke-linecap:round;stroke-linejoin:round;stroke-opacity:1"
     id="g474"
     transform="translate(-15445.945,-19028.992)">
    <g
       id="g444" />
    <g
       style="fill:#840000;fill-opacity:0;stroke:#840000;stroke-width:60;stroke-linecap:round;stroke-linejoin:round;stroke-opacity:1"
       id="g446" />
    <g
       style="fill:#840000;fill-opacity:0;stroke:#840000;stroke-width:100;stroke-linecap:round;stroke-linejoin:round;stroke-opacity:1"
       id="g450">
      <rect
         x="27600"
         y="25500"
         width="800"
         height="2000"
         rx="0.000000"
         id="rect448" />
    </g>
    <g
       style="fill:#840000;fill-opacity:0;stroke:#840000;stroke-width:60;stroke-linecap:round;stroke-linejoin:round;stroke-opacity:1"
       id="g456">
      <path
         d="m 28000,25500 v -500"
         id="path452" />
      <path
         d="m 28000,27500 v 500"
         id="path454" />
    </g>
    <g
       style="fill:#008484;fill-opacity:0;stroke:#008484;stroke-width:60;stroke-linecap:round;stroke-linejoin:round;stroke-opacity:1"
       id="g472">
      <text
         x="29219.33"
         y="26750"
         textLength="1036.1812"
         font-size="666.654px"
         lengthAdjust="spacingAndGlyphs"
         text-anchor="middle"
         opacity="0"
         id="text458">R1</text>
      <g
         class="stroked-text"
         id="g470">
        <desc
           id="desc460">R1</desc>
        <path
           d="m 29135,26726 -166,-238"
           id="path462" />
        <path
           d="m 28850,26726 v -500 h 190 l 48,24 24,23 23,48 v 71 l -23,48 -24,24 -48,24 h -190"
           id="path464" />
        <path
           d="m 29612,26726 h -286"
           id="path466" />
        <path
           d="m 29469,26726 v -500 l -48,71 -47,48 -48,24"
           id="path468" />
      </g>
    </g>
  </g>
  <g
     style="fill:#008484;fill-opacity:0;stroke:#008484;stroke-width:62.5197;stroke-linecap:round;stroke-linejoin:round;stroke-opacity:1"
     id="g476"
     transform="translate(-15445.945,-19028.992)" />
  <g
     style="fill:#008484;fill-opacity:0;stroke:#008484;stroke-width:60;stroke-linecap:round;stroke-linejoin:round;stroke-opacity:1"
     id="g478"
     transform="translate(-15445.945,-19028.992)" />
  <g
     style="fill:#840000;fill-opacity:0;stroke:#840000;stroke-width:60;stroke-linecap:round;stroke-linejoin:round;stroke-opacity:1"
     id="g496"
     transform="translate(-15445.945,-19028.992)">
    <text
       x="21475"
       y="35250"
       textLength="1821.8898"
       font-size="666.654px"
       lengthAdjust="spacingAndGlyphs"
       text-anchor="end"
       opacity="0"
       id="text480">GPIO</text>
    <g
       class="stroked-text"
       id="g492">
      <desc
         id="desc482">GPIO</desc>
      <path
         d="m 20064,34750 -48,-24 h -71 l -72,24 -48,47 -23,48 -24,95 v 71 l 24,96 23,47 48,48 72,24 h 47 l 72,-24 23,-24 v -167 h -95"
         id="path484" />
      <path
         d="m 20302,35226 v -500 h 190 l 48,24 24,23 23,48 v 71 l -23,48 -24,24 -48,24 h -190"
         id="path486" />
      <path
         d="m 20802,35226 v -500"
         id="path488" />
      <path
         d="m 21135,34726 h 95 l 48,24 47,47 24,95 v 167 l -24,95 -47,48 -48,24 h -95 l -48,-24 -47,-48 -24,-95 v -167 l 24,-95 47,-47 48,-24"
         id="path490" />
    </g>
    <path
       style="fill:none;fill-opacity:0;stroke:#840000;stroke-width:60;stroke-linecap:round;stroke-linejoin:round;stroke-opacity:1"
       d="m 22000,35000 -400,-462.638 H 19412.953 V 35000 35462.638 H 21600 Z"
       id="path494" />
  </g>
  <g
     style="fill:#008400;fill-opacity:0;stroke:#008400;stroke-width:60;stroke-linecap:round;stroke-linejoin:round;stroke-opacity:1"
     id="g512"
     transform="translate(-15445.945,-19028.992)">
    <path
       d="M 28000,29000 V 28000"
       id="path498" />
    <path
       d="m 28000,31000 h 1000"
       id="path500" />
    <path
       d="M 28000,32000 V 31000"
       id="path502" />
    <path
       d="M 29000,29000 H 28000"
       id="path504" />
    <path
       d="m 25000,31000 v 1000"
       id="path506" />
    <path
       d="m 25000,32000 h 3000"
       id="path508" />
    <path
       d="M 28000,33000 V 32000"
       id="path510" />
  </g>
  <g
     style="fill:#008400;fill-opacity:1;stroke:#008400;stroke-width:60;stroke-linecap:round;stroke-linejoin:round;stroke-opacity:1"
     id="g516"
     transform="translate(-15445.945,-19028.992)">
    <circle
       cx="28000"
       cy="32000"
       r="200"
       id="circle514" />
  </g>
</svg>
