<?xml version="1.0" encoding="UTF-8" standalone="no"?>
<svg
   xmlns:dc="http://purl.org/dc/elements/1.1/"
   xmlns:cc="http://creativecommons.org/ns#"
   xmlns:rdf="http://www.w3.org/1999/02/22-rdf-syntax-ns#"
   xmlns:svg="http://www.w3.org/2000/svg"
   xmlns="http://www.w3.org/2000/svg"
   xmlns:sodipodi="http://sodipodi.sourceforge.net/DTD/sodipodi-0.dtd"
   xmlns:inkscape="http://www.inkscape.org/namespaces/inkscape"
   version="1.1"
   width="54.195999mm"
   height="43.170738mm"
   viewBox="0 0 21337.008 16996.355"
   id="svg362"
   sodipodi:docname="buzzer-n-mosfet-ESP32.svg"
   inkscape:version="1.0.2 (e86c870879, 2021-01-15)">
  <metadata
     id="metadata368">
    <rdf:RDF>
      <cc:Work
         rdf:about="">
        <dc:format>image/svg+xml</dc:format>
        <dc:type
           rdf:resource="http://purl.org/dc/dcmitype/StillImage" />
        <dc:title>SVG Picture created as buzzer-n-mosfet-ESP32.svg date 2021/05/12 09:57:14 </dc:title>
      </cc:Work>
    </rdf:RDF>
  </metadata>
  <defs
     id="defs366" />
  <sodipodi:namedview
     pagecolor="#ffffff"
     bordercolor="#666666"
     borderopacity="1"
     objecttolerance="10"
     gridtolerance="10"
     guidetolerance="10"
     inkscape:pageopacity="0"
     inkscape:pageshadow="2"
     inkscape:window-width="769"
     inkscape:window-height="480"
     id="namedview364"
     showgrid="false"
     units="mm"
     fit-margin-top="5"
     fit-margin-left="5"
     fit-margin-right="5"
     fit-margin-bottom="5"
     inkscape:zoom="1.171463"
     inkscape:cx="141.34566"
     inkscape:cy="51.153635"
     inkscape:window-x="26"
     inkscape:window-y="23"
     inkscape:window-maximized="0"
     inkscape:current-layer="svg362" />
  <title
     id="title2">SVG Picture created as buzzer-n-mosfet-ESP32.svg date 2021/05/12 09:57:14 </title>
  <desc
     id="desc4">Picture generated by Eeschema-SVG </desc>
  <g
     style="fill:#000000;fill-opacity:1;stroke:#000000;stroke-linecap:round;stroke-linejoin:round;stroke-opacity:1"
     id="g6"
     transform="translate(-43741.496,-36011.496)" />
  <g
     style="fill:#000000;fill-opacity:0;stroke:#000000;stroke-width:0;stroke-linecap:round;stroke-linejoin:round;stroke-opacity:1"
     id="g66"
     transform="translate(-43741.496,-36011.496)">
    <g
       id="g8" />
    <g
       style="fill:#840000;fill-opacity:0;stroke:#840000;stroke-width:0;stroke-linecap:round;stroke-linejoin:round;stroke-opacity:1"
       id="g10" />
    <g
       style="fill:#840000;fill-opacity:0;stroke:#840000;stroke-width:60;stroke-linecap:round;stroke-linejoin:round;stroke-opacity:1"
       id="g34">
      <path
         d="m 59002.2,43750 a 1250,1250 0 0 0 0,-2500"
         id="path12" />
      <path
         style="fill:none;fill-opacity:0;stroke:#840000;stroke-width:60;stroke-linecap:round;stroke-linejoin:round;stroke-opacity:1"
         d="m 58350,41750 h 200"
         id="path14" />
      <path
         style="fill:none;fill-opacity:0;stroke:#840000;stroke-width:60;stroke-linecap:round;stroke-linejoin:round;stroke-opacity:1"
         d="m 58450,41650 v 200"
         id="path16" />
      <path
         style="fill:none;fill-opacity:0;stroke:#840000;stroke-width:60;stroke-linecap:round;stroke-linejoin:round;stroke-opacity:1"
         d="m 59000,41250 v 2500"
         id="path18" />
      <path
         d="M 59000,41500 H 58000"
         id="path20" />
      <text
         x="58500"
         y="41400"
         textLength="540"
         font-size="660px"
         lengthAdjust="spacingAndGlyphs"
         text-anchor="middle"
         opacity="0"
         id="text22">1</text>
      <path
         d="m 58640,41370 h -290"
         id="path24" />
      <path
         d="m 58500,41370 v -500 l -50,70 -50,50 -50,20"
         id="path26" />
      <path
         d="M 59000,43500 H 58000"
         id="path28" />
      <text
         x="58500"
         y="43400"
         textLength="540"
         font-size="660px"
         lengthAdjust="spacingAndGlyphs"
         text-anchor="middle"
         opacity="0"
         id="text30">2</text>
      <path
         d="m 58350,42920 30,-20 40,-30 h 120 l 50,30 20,20 30,50 v 40 l -30,80 -280,280 h 310"
         id="path32" />
    </g>
    <g
       style="fill:#008484;fill-opacity:0;stroke:#008484;stroke-width:60;stroke-linecap:round;stroke-linejoin:round;stroke-opacity:1"
       id="g64">
      <text
         x="61270"
         y="42480"
         textLength="1510"
         font-size="660px"
         lengthAdjust="spacingAndGlyphs"
         text-anchor="middle"
         opacity="0"
         id="text36">BZ1</text>
      <path
         d="m 60820,42190 80,20 20,30 20,40 v 80 l -20,40 -20,30 -50,20 h -190 v -500 h 160 l 50,30 30,20 20,50 v 40 l -20,50 -30,30 -50,20 h -160"
         id="path38" />
      <path
         d="m 61110,41950 h 330 l -330,500 h 330"
         id="path40" />
      <path
         d="m 61900,42450 h -290"
         id="path42" />
      <path
         d="m 61750,42450 v -500 l -40,70 -50,50 -50,20"
         id="path44" />
      <text
         x="61800"
         y="43390"
         textLength="2560"
         font-size="660px"
         lengthAdjust="spacingAndGlyphs"
         text-anchor="middle"
         opacity="0"
         id="text46">Buzzer</text>
      <path
         d="m 60830,43100 70,20 30,30 20,40 v 80 l -20,40 -30,30 -50,20 h -190 v -500 h 170 l 50,30 20,20 30,50 v 40 l -30,50 -20,30 -50,20 h -170"
         id="path48" />
      <path
         d="m 61380,43030 v 330"
         id="path50" />
      <path
         d="m 61160,43030 v 260 l 30,50 50,20 h 70 l 40,-20 30,-30"
         id="path52" />
      <path
         d="m 61570,43030 h 260 l -260,330 h 260"
         id="path54" />
      <path
         d="m 61970,43030 h 270 l -270,330 h 270"
         id="path56" />
      <path
         d="m 62620,43340 -50,20 h -100 l -40,-20 -30,-50 v -190 l 30,-50 40,-20 h 100 l 50,20 20,50 v 50 l -240,40"
         id="path58" />
      <path
         d="m 62850,43360 v -330"
         id="path60" />
      <path
         d="m 62850,43120 30,-40 20,-30 50,-20 h 50"
         id="path62" />
    </g>
  </g>
  <g
     style="fill:#008484;fill-opacity:0;stroke:#008484;stroke-width:0;stroke-linecap:round;stroke-linejoin:round;stroke-opacity:1"
     id="g118"
     transform="translate(-43741.496,-36011.496)">
    <g
       id="g68" />
    <g
       style="fill:#840000;fill-opacity:0;stroke:#840000;stroke-width:0;stroke-linecap:round;stroke-linejoin:round;stroke-opacity:1"
       id="g70" />
    <g
       style="fill:#840000;fill-opacity:0;stroke:#840000;stroke-width:100;stroke-linecap:round;stroke-linejoin:round;stroke-opacity:1"
       id="g74">
      <path
         style="fill:none;fill-opacity:0;stroke:#840000;stroke-width:100;stroke-linecap:round;stroke-linejoin:round;stroke-opacity:1"
         d="M 54500,42000 H 53500"
         id="path72" />
    </g>
    <g
       style="fill:#840000;fill-opacity:0;stroke:#840000;stroke-width:60;stroke-linecap:round;stroke-linejoin:round;stroke-opacity:1"
       id="g78">
      <path
         style="fill:none;fill-opacity:0;stroke:#840000;stroke-width:60;stroke-linecap:round;stroke-linejoin:round;stroke-opacity:1"
         d="M 54000,43000 V 42000"
         id="path76" />
    </g>
    <g
       style="fill:#840000;fill-opacity:0;stroke:#840000;stroke-width:100;stroke-linecap:round;stroke-linejoin:round;stroke-opacity:1"
       id="g82">
      <path
         style="fill:none;fill-opacity:0;stroke:#840000;stroke-width:100;stroke-linecap:round;stroke-linejoin:round;stroke-opacity:1"
         d="m 54500,43000 h -1000 l 500,-1000 z"
         id="path80" />
    </g>
    <g
       style="fill:#840000;fill-opacity:0;stroke:#840000;stroke-width:60;stroke-linecap:round;stroke-linejoin:round;stroke-opacity:1"
       id="g88">
      <path
         d="M 54000,42000 V 41000"
         id="path84" />
      <path
         d="m 54000,43000 v 1000"
         id="path86" />
    </g>
    <g
       style="fill:#008484;fill-opacity:0;stroke:#008484;stroke-width:60;stroke-linecap:round;stroke-linejoin:round;stroke-opacity:1"
       id="g116">
      <text
         x="55320"
         y="42310"
         textLength="1040"
         font-size="660px"
         lengthAdjust="spacingAndGlyphs"
         text-anchor="middle"
         opacity="0"
         id="text90">D1</text>
      <path
         d="m 54950,42280 v -500 h 120 l 70,30 40,40 30,50 20,100 v 70 l -20,90 -30,50 -40,50 -70,20 h -120"
         id="path92" />
      <path
         d="m 55710,42280 h -290"
         id="path94" />
      <path
         d="m 55570,42280 v -500 l -50,70 -50,50 -50,20"
         id="path96" />
      <text
         x="56280"
         y="43220"
         textLength="2960"
         font-size="660px"
         lengthAdjust="spacingAndGlyphs"
         text-anchor="middle"
         opacity="0"
         id="text98">1N4007</text>
      <path
         d="m 55200,43190 h -280"
         id="path100" />
      <path
         d="m 55060,43190 v -500 l -50,70 -40,50 -50,20"
         id="path102" />
      <path
         d="m 55420,43190 v -500 l 280,500 v -500"
         id="path104" />
      <path
         d="m 56160,42860 v 330"
         id="path106" />
      <path
         d="m 56040,42670 -120,350 h 310"
         id="path108" />
      <path
         d="m 56510,42690 h 50 l 50,30 20,20 30,50 20,90 v 120 l -20,100 -30,40 -20,30 -50,20 h -50 l -40,-20 -30,-30 -20,-40 -30,-100 v -120 l 30,-90 20,-50 30,-20 40,-30"
         id="path110" />
      <path
         d="m 56990,42690 h 50 l 40,30 30,20 20,50 30,90 v 120 l -30,100 -20,40 -30,30 -40,20 h -50 l -50,-20 -20,-30 -30,-40 -20,-100 v -120 l 20,-90 30,-50 20,-20 50,-30"
         id="path112" />
      <path
         d="m 57320,42690 h 340 l -220,500"
         id="path114" />
    </g>
  </g>
  <g
     style="fill:#008484;fill-opacity:0;stroke:#008484;stroke-width:0;stroke-linecap:round;stroke-linejoin:round;stroke-opacity:1"
     id="g154"
     transform="translate(-43741.496,-36011.496)">
    <g
       id="g120" />
    <g
       style="fill:#840000;fill-opacity:0;stroke:#840000;stroke-width:0;stroke-linecap:round;stroke-linejoin:round;stroke-opacity:1"
       id="g122" />
    <g
       style="fill:#840000;fill-opacity:0;stroke:#840000;stroke-width:100;stroke-linecap:round;stroke-linejoin:round;stroke-opacity:1"
       id="g126">
      <rect
         x="48500"
         y="46600"
         width="2000"
         height="800"
         rx="0"
         id="rect124" />
    </g>
    <g
       style="fill:#840000;fill-opacity:0;stroke:#840000;stroke-width:60;stroke-linecap:round;stroke-linejoin:round;stroke-opacity:1"
       id="g132">
      <path
         d="m 50500,47000 h 500"
         id="path128" />
      <path
         d="m 48500,47000 h -500"
         id="path130" />
    </g>
    <g
       style="fill:#008484;fill-opacity:0;stroke:#008484;stroke-width:60;stroke-linecap:round;stroke-linejoin:round;stroke-opacity:1"
       id="g152">
      <text
         x="49500"
         y="45200"
         textLength="1040"
         font-size="660px"
         lengthAdjust="spacingAndGlyphs"
         text-anchor="middle"
         opacity="0"
         id="text134">R1</text>
      <path
         d="m 49410,45170 -160,-240"
         id="path136" />
      <path
         d="m 49130,45170 v -500 h 190 l 40,30 30,20 20,50 v 70 l -20,50 -30,20 -40,20 h -190"
         id="path138" />
      <path
         d="m 49890,45170 h -290"
         id="path140" />
      <path
         d="m 49750,45170 v -500 l -50,70 -50,50 -50,20"
         id="path142" />
      <text
         x="49500"
         y="46110"
         textLength="1490"
         font-size="660px"
         lengthAdjust="spacingAndGlyphs"
         text-anchor="middle"
         opacity="0"
         id="text144">220</text>
      <path
         d="m 48880,45630 20,-20 50,-30 h 120 l 40,30 30,20 20,50 v 40 l -20,80 -290,280 h 310"
         id="path146" />
      <path
         d="m 49350,45630 30,-20 40,-30 h 120 l 50,30 20,20 30,50 v 40 l -30,80 -280,280 h 310"
         id="path148" />
      <path
         d="m 49950,45580 h 50 l 40,30 30,20 20,50 20,90 v 120 l -20,100 -20,40 -30,30 -40,20 h -50 l -50,-20 -20,-30 -30,-40 -20,-100 v -120 l 20,-90 30,-50 20,-20 50,-30"
         id="path150" />
    </g>
  </g>
  <g
     style="fill:#008484;fill-opacity:0;stroke:#008484;stroke-width:0;stroke-linecap:round;stroke-linejoin:round;stroke-opacity:1"
     id="g184"
     transform="translate(-43741.496,-36011.496)">
    <g
       id="g156" />
    <g
       style="fill:#840000;fill-opacity:0;stroke:#840000;stroke-width:0;stroke-linecap:round;stroke-linejoin:round;stroke-opacity:1"
       id="g158" />
    <g
       style="fill:#840000;fill-opacity:0;stroke:#840000;stroke-width:60;stroke-linecap:round;stroke-linejoin:round;stroke-opacity:1"
       id="g166">
      <path
         style="fill:none;fill-opacity:0;stroke:#840000;stroke-width:60;stroke-linecap:round;stroke-linejoin:round;stroke-opacity:1"
         d="m 53700,39500 300,-500"
         id="path160" />
      <path
         style="fill:none;fill-opacity:0;stroke:#840000;stroke-width:60;stroke-linecap:round;stroke-linejoin:round;stroke-opacity:1"
         d="M 54000,40000 V 39000"
         id="path162" />
      <path
         style="fill:none;fill-opacity:0;stroke:#840000;stroke-width:60;stroke-linecap:round;stroke-linejoin:round;stroke-opacity:1"
         d="m 54000,39000 300,500"
         id="path164" />
    </g>
    <g
       style="fill:#008484;fill-opacity:0;stroke:#008484;stroke-width:60;stroke-linecap:round;stroke-linejoin:round;stroke-opacity:1"
       id="g182">
      <text
         x="54150"
         y="38540"
         textLength="2300"
         font-size="660px"
         lengthAdjust="spacingAndGlyphs"
         text-anchor="middle"
         opacity="0"
         id="text168">+3.3V</text>
      <path
         d="m 53150,38320 h 380"
         id="path170" />
      <path
         d="m 53340,38510 v -380"
         id="path172" />
      <path
         d="m 53720,38010 h 310 l -170,190 h 70 l 50,30 20,20 30,50 v 120 l -30,40 -20,30 -50,20 h -140 l -50,-20 -20,-30"
         id="path174" />
      <path
         d="m 54240,38460 20,30 -20,20 -20,-20 20,-30 v 50"
         id="path176" />
      <path
         d="m 54430,38010 h 310 l -170,190 h 80 l 40,30 30,20 20,50 v 120 l -20,40 -30,30 -40,20 h -150 l -50,-20 -20,-30"
         id="path178" />
      <path
         d="m 54880,38010 170,500 170,-500"
         id="path180" />
    </g>
  </g>
  <g
     style="fill:#008484;fill-opacity:0;stroke:#008484;stroke-width:0;stroke-linecap:round;stroke-linejoin:round;stroke-opacity:1"
     id="g204"
     transform="translate(-43741.496,-36011.496)">
    <g
       id="g186" />
    <g
       style="fill:#840000;fill-opacity:0;stroke:#840000;stroke-width:0;stroke-linecap:round;stroke-linejoin:round;stroke-opacity:1"
       id="g188" />
    <g
       style="fill:#840000;fill-opacity:0;stroke:#840000;stroke-width:60;stroke-linecap:round;stroke-linejoin:round;stroke-opacity:1"
       id="g192">
      <path
         style="fill:none;fill-opacity:0;stroke:#840000;stroke-width:60;stroke-linecap:round;stroke-linejoin:round;stroke-opacity:1"
         d="m 54000,49000 v 500 h 500 l -500,500 -500,-500 h 500"
         id="path190" />
    </g>
    <g
       style="fill:#008484;fill-opacity:0;stroke:#008484;stroke-width:60;stroke-linecap:round;stroke-linejoin:round;stroke-opacity:1"
       id="g202">
      <text
         x="54050"
         y="51000"
         textLength="1580"
         font-size="660px"
         lengthAdjust="spacingAndGlyphs"
         text-anchor="middle"
         opacity="0"
         id="text194">GND</text>
      <path
         d="m 53660,50500 -40,-30 h -70 l -80,30 -40,40 -30,50 -20,100 v 70 l 20,90 30,50 40,50 80,20 h 40 l 70,-20 30,-30 v -160 h -100"
         id="path196" />
      <path
         d="m 53900,50970 v -500 l 290,500 v -500"
         id="path198" />
      <path
         d="m 54430,50970 v -500 h 120 l 70,30 40,40 30,50 20,100 v 70 l -20,90 -30,50 -40,50 -70,20 h -120"
         id="path200" />
    </g>
  </g>
  <g
     style="fill:#008484;fill-opacity:0;stroke:#008484;stroke-width:0;stroke-linecap:round;stroke-linejoin:round;stroke-opacity:1"
     id="g310"
     transform="translate(-43741.496,-36011.496)">
    <g
       id="g206" />
    <g
       style="fill:#840000;fill-opacity:0;stroke:#840000;stroke-width:0;stroke-linecap:round;stroke-linejoin:round;stroke-opacity:1"
       id="g208" />
    <g
       style="fill:#840000;fill-opacity:0;stroke:#840000;stroke-width:100;stroke-linecap:round;stroke-linejoin:round;stroke-opacity:1"
       id="g212">
      <circle
         cx="53650"
         cy="47000"
         r="1100"
         id="circle210" />
    </g>
    <g
       style="fill:#840000;fill-opacity:1;stroke:#840000;stroke-width:60;stroke-linecap:round;stroke-linejoin:round;stroke-opacity:1"
       id="g218">
      <circle
         cx="54000"
         cy="47700"
         r="100"
         id="circle214" />
      <circle
         cx="54000"
         cy="46300"
         r="100"
         id="circle216" />
    </g>
    <g
       style="fill:#840000;fill-opacity:0;stroke:#840000;stroke-width:60;stroke-linecap:round;stroke-linejoin:round;stroke-opacity:1"
       id="g222">
      <path
         style="fill:none;fill-opacity:0;stroke:#840000;stroke-width:60;stroke-linecap:round;stroke-linejoin:round;stroke-opacity:1"
         d="M 53100,47000 H 52000"
         id="path220" />
    </g>
    <g
       style="fill:#840000;fill-opacity:0;stroke:#840000;stroke-width:100;stroke-linecap:round;stroke-linejoin:round;stroke-opacity:1"
       id="g232">
      <path
         style="fill:none;fill-opacity:0;stroke:#840000;stroke-width:100;stroke-linecap:round;stroke-linejoin:round;stroke-opacity:1"
         d="m 53100,46250 v 1500"
         id="path224" />
      <path
         style="fill:none;fill-opacity:0;stroke:#840000;stroke-width:100;stroke-linecap:round;stroke-linejoin:round;stroke-opacity:1"
         d="m 53300,47500 v 400"
         id="path226" />
      <path
         style="fill:none;fill-opacity:0;stroke:#840000;stroke-width:100;stroke-linecap:round;stroke-linejoin:round;stroke-opacity:1"
         d="m 53300,46800 v 400"
         id="path228" />
      <path
         style="fill:none;fill-opacity:0;stroke:#840000;stroke-width:100;stroke-linecap:round;stroke-linejoin:round;stroke-opacity:1"
         d="m 53300,46100 v 400"
         id="path230" />
    </g>
    <g
       style="fill:#840000;fill-opacity:0;stroke:#840000;stroke-width:60;stroke-linecap:round;stroke-linejoin:round;stroke-opacity:1"
       id="g240">
      <path
         style="fill:none;fill-opacity:0;stroke:#840000;stroke-width:60;stroke-linecap:round;stroke-linejoin:round;stroke-opacity:1"
         d="m 54000,46000 v 300"
         id="path234" />
      <path
         style="fill:none;fill-opacity:0;stroke:#840000;stroke-width:60;stroke-linecap:round;stroke-linejoin:round;stroke-opacity:1"
         d="m 54000,48000 v -1000 h -700"
         id="path236" />
      <path
         style="fill:none;fill-opacity:0;stroke:#840000;stroke-width:60;stroke-linecap:round;stroke-linejoin:round;stroke-opacity:1"
         d="m 53300,47700 h 1000 v -1400 h -1000"
         id="path238" />
    </g>
    <g
       style="fill:#840000;fill-opacity:1;stroke:#840000;stroke-width:60;stroke-linecap:round;stroke-linejoin:round;stroke-opacity:1"
       id="g244">
      <path
         style="fill:#840000;fill-opacity:1;fill-rule:evenodd;stroke:#840000;stroke-width:60;stroke-linecap:round;stroke-linejoin:round;stroke-opacity:1"
         d="m 53400,47000 400,-150 v 300 z"
         id="path242" />
    </g>
    <g
       style="fill:#840000;fill-opacity:0;stroke:#840000;stroke-width:60;stroke-linecap:round;stroke-linejoin:round;stroke-opacity:1"
       id="g274">
      <path
         style="fill:none;fill-opacity:0;stroke:#840000;stroke-width:60;stroke-linecap:round;stroke-linejoin:round;stroke-opacity:1"
         d="m 54100,46800 50,50 h 300 l 50,50"
         id="path246" />
      <path
         style="fill:none;fill-opacity:0;stroke:#840000;stroke-width:60;stroke-linecap:round;stroke-linejoin:round;stroke-opacity:1"
         d="m 54300,46850 -150,250 h 300 z"
         id="path248" />
      <path
         d="M 52000,47000 H 51000"
         id="path250" />
      <text
         x="51500"
         y="46900"
         textLength="540"
         font-size="660px"
         lengthAdjust="spacingAndGlyphs"
         text-anchor="middle"
         opacity="0"
         id="text252">1</text>
      <path
         d="m 51640,46870 h -290"
         id="path254" />
      <path
         d="m 51500,46870 v -500 l -50,70 -50,50 -50,20"
         id="path256" />
      <path
         d="M 54000,46000 V 45000"
         id="path258" />
      <g
         transform="rotate(-90,53900,45500)"
         id="g262">
        <text
           x="53900"
           y="45500"
           textLength="540"
           font-size="660px"
           lengthAdjust="spacingAndGlyphs"
           text-anchor="middle"
           opacity="0"
           id="text260">2</text>
      </g>
      <path
         d="m 53420,45640 -20,-30 -30,-40 v -120 l 30,-50 20,-20 50,-30 h 40 l 80,30 280,280 v -310"
         id="path264" />
      <path
         d="m 54000,48000 v 1000"
         id="path266" />
      <g
         transform="rotate(-90,53900,48500)"
         id="g270">
        <text
           x="53900"
           y="48500"
           textLength="540"
           font-size="660px"
           lengthAdjust="spacingAndGlyphs"
           text-anchor="middle"
           opacity="0"
           id="text268">3</text>
      </g>
      <path
         d="m 53370,48660 v -310 l 190,170 v -70 l 30,-50 20,-20 50,-30 h 120 l 40,30 30,20 20,50 v 140 l -20,50 -30,20"
         id="path272" />
    </g>
    <g
       style="fill:#008484;fill-opacity:0;stroke:#008484;stroke-width:60;stroke-linecap:round;stroke-linejoin:round;stroke-opacity:1"
       id="g308">
      <text
         x="55570"
         y="46810"
         textLength="1060"
         font-size="660px"
         lengthAdjust="spacingAndGlyphs"
         text-anchor="middle"
         opacity="0"
         id="text276">Q1</text>
      <path
         d="m 55520,46830 -50,-20 -50,-50 -70,-70 -50,-30 h -40"
         id="path278" />
      <path
         d="m 55280,46780 -50,-20 -50,-50 -20,-100 v -160 l 20,-100 50,-40 50,-30 h 90 l 50,30 50,40 20,100 v 160 l -20,100 -50,50 -50,20 h -90"
         id="path280" />
      <path
         d="m 55970,46780 h -290"
         id="path282" />
      <path
         d="m 55830,46780 v -500 l -50,70 -50,50 -50,20"
         id="path284" />
      <text
         x="56620"
         y="47720"
         textLength="3160"
         font-size="660px"
         lengthAdjust="spacingAndGlyphs"
         text-anchor="middle"
         opacity="0"
         id="text286">IRLZ44N</text>
      <path
         d="m 55190,47690 v -500"
         id="path288" />
      <path
         d="m 55710,47690 -170,-240"
         id="path290" />
      <path
         d="m 55420,47690 v -500 h 200 l 40,30 30,20 20,50 v 70 l -20,50 -30,20 -40,20 h -200"
         id="path292" />
      <path
         d="m 56160,47690 h -240 v -500"
         id="path294" />
      <path
         d="m 56280,47190 h 340 l -340,500 h 340"
         id="path296" />
      <path
         d="m 57020,47360 v 330"
         id="path298" />
      <path
         d="m 56900,47170 -120,350 h 310"
         id="path300" />
      <path
         d="m 57500,47360 v 330"
         id="path302" />
      <path
         d="m 57380,47170 -120,350 h 310"
         id="path304" />
      <path
         d="m 57760,47690 v -500 l 280,500 v -500"
         id="path306" />
    </g>
  </g>
  <g
     style="fill:#008484;fill-opacity:0;stroke:#008484;stroke-width:60;stroke-linecap:round;stroke-linejoin:round;stroke-opacity:1"
     id="g312"
     transform="translate(-43741.496,-36011.496)" />
  <g
     style="fill:#008400;fill-opacity:0;stroke:#008400;stroke-width:60;stroke-linecap:round;stroke-linejoin:round;stroke-opacity:1"
     id="g330"
     transform="translate(-43741.496,-36011.496)">
    <path
       d="m 54000,44500 h 4000"
       id="path314" />
    <path
       d="m 54000,40500 v -500"
       id="path316" />
    <path
       d="m 54000,40500 v 500"
       id="path318" />
    <path
       d="M 58000,40500 H 54000"
       id="path320" />
    <path
       d="M 58000,41500 V 40500"
       id="path322" />
    <path
       d="m 54000,44500 v -500"
       id="path324" />
    <path
       d="M 58000,44500 V 43500"
       id="path326" />
    <path
       d="m 54000,45000 v -500"
       id="path328" />
  </g>
  <g
     style="fill:#840000;fill-opacity:0;stroke:#840000;stroke-width:60;stroke-linecap:round;stroke-linejoin:round;stroke-opacity:1"
     id="g342"
     transform="translate(-43741.496,-36011.496)">
    <text
       x="47690"
       y="47250"
       textLength="1820"
       font-size="660px"
       lengthAdjust="spacingAndGlyphs"
       text-anchor="end"
       opacity="0"
       id="text332">GPIO</text>
    <path
       d="m 46270,46750 -40,-30 h -70 l -80,30 -40,40 -30,50 -20,100 v 70 l 20,90 30,50 40,50 80,20 h 40 l 70,-20 30,-30 v -160 h -100"
       id="path334" />
    <path
       d="m 46510,47220 v -500 h 190 l 50,30 20,20 30,50 v 70 l -30,50 -20,20 -50,20 h -190"
       id="path336" />
    <path
       d="m 47010,47220 v -500"
       id="path338" />
    <path
       d="m 47350,46720 h 90 l 50,30 50,40 20,100 v 160 l -20,100 -50,50 -50,20 h -90 l -50,-20 -50,-50 -20,-100 v -160 l 20,-100 50,-40 50,-30"
       id="path340" />
  </g>
  <g
     style="fill:#840000;fill-opacity:0;stroke:#840000;stroke-width:100;stroke-linecap:round;stroke-linejoin:round;stroke-opacity:1"
     id="g346"
     transform="translate(-43741.496,-36011.496)">
    <path
       style="fill:none;fill-opacity:0;stroke:#840000;stroke-width:100;stroke-linecap:round;stroke-linejoin:round;stroke-opacity:1"
       d="m 48000,47000 -250,-440 h -1990 v 440 440 h 1990 z"
       id="path344" />
  </g>
  <g
     style="fill:#840000;fill-opacity:0;stroke:#840000;stroke-width:0;stroke-linecap:round;stroke-linejoin:round;stroke-opacity:1"
     id="g348"
     transform="translate(-43741.496,-36011.496)" />
  <g
     style="fill:#008400;fill-opacity:0;stroke:#008400;stroke-width:0;stroke-linecap:round;stroke-linejoin:round;stroke-opacity:1"
     id="g350"
     transform="translate(-43741.496,-36011.496)" />
  <g
     style="fill:#008400;fill-opacity:1;stroke:#008400;stroke-width:100;stroke-linecap:round;stroke-linejoin:round;stroke-opacity:1"
     id="g354"
     transform="translate(-43741.496,-36011.496)">
    <circle
       cx="54000"
       cy="44500"
       r="200"
       id="circle352" />
  </g>
  <g
     style="fill:#008400;fill-opacity:1;stroke:#008400;stroke-width:0;stroke-linecap:round;stroke-linejoin:round;stroke-opacity:1"
     id="g356"
     transform="translate(-43741.496,-36011.496)" />
  <g
     style="fill:#008400;fill-opacity:1;stroke:#008400;stroke-width:100;stroke-linecap:round;stroke-linejoin:round;stroke-opacity:1"
     id="g360"
     transform="translate(-43741.496,-36011.496)">
    <circle
       cx="54000"
       cy="40500"
       r="200"
       id="circle358" />
  </g>
</svg>
