<?xml version="1.0" encoding="UTF-8" standalone="no"?>
<svg
   xmlns:dc="http://purl.org/dc/elements/1.1/"
   xmlns:cc="http://creativecommons.org/ns#"
   xmlns:rdf="http://www.w3.org/1999/02/22-rdf-syntax-ns#"
   xmlns:svg="http://www.w3.org/2000/svg"
   xmlns="http://www.w3.org/2000/svg"
   xmlns:sodipodi="http://sodipodi.sourceforge.net/DTD/sodipodi-0.dtd"
   xmlns:inkscape="http://www.inkscape.org/namespaces/inkscape"
   version="1.1"
   width="5.1404371cm"
   height="2.8090737cm"
   viewBox="0 0 20237.941 11059.346"
   id="svg558"
   sodipodi:docname="buzzer-esp8266.svg"
   inkscape:version="1.0.2-2 (e86c870879, 2021-01-15)">
  <metadata
     id="metadata564">
    <rdf:RDF>
      <cc:Work
         rdf:about="">
        <dc:format>image/svg+xml</dc:format>
        <dc:type
           rdf:resource="http://purl.org/dc/dcmitype/StillImage" />
        <dc:title>SVG Picture created as buzzer-esp8266.svg date 2021/05/10 13:03:38 </dc:title>
      </cc:Work>
    </rdf:RDF>
  </metadata>
  <defs
     id="defs562" />
  <sodipodi:namedview
     pagecolor="#ffffff"
     bordercolor="#666666"
     borderopacity="1"
     objecttolerance="10"
     gridtolerance="10"
     guidetolerance="10"
     inkscape:pageopacity="0"
     inkscape:pageshadow="2"
     inkscape:window-width="1920"
     inkscape:window-height="1018"
     id="namedview560"
     showgrid="false"
     fit-margin-top="0"
     fit-margin-left="0"
     fit-margin-right="0"
     fit-margin-bottom="0"
     inkscape:zoom="0.95142393"
     inkscape:cx="455.95201"
     inkscape:cy="243.45599"
     inkscape:window-x="-6"
     inkscape:window-y="-6"
     inkscape:window-maximized="1"
     inkscape:current-layer="svg558" />
  <title
     id="title288">SVG Picture created as buzzer-esp8266.svg date 2021/05/10 13:03:38 </title>
  <desc
     id="desc290">Picture generated by Eeschema-SVG </desc>
  <g
     style="fill:#000000;fill-opacity:1;stroke:#000000;stroke-linecap:round;stroke-linejoin:round;stroke-opacity:1"
     id="g292"
     transform="translate(-10970,-15980)" />
  <g
     style="fill:#000000;fill-opacity:0;stroke:#000000;stroke-width:0;stroke-linecap:round;stroke-linejoin:round;stroke-opacity:1"
     id="g366"
     transform="translate(-10970,-15980)">
    <g
       id="g294" />
    <g
       style="fill:#000000;fill-opacity:0;stroke:#000000;stroke-width:100;stroke-linecap:round;stroke-linejoin:round;stroke-opacity:1"
       id="g298">
      <circle
         cx="21000"
         cy="23000"
         r="1110"
         id="circle296" />
    </g>
    <g
       style="fill:#000000;fill-opacity:0;stroke:#000000;stroke-width:60;stroke-linecap:round;stroke-linejoin:round;stroke-opacity:1"
       id="g304">
      <path
         style="fill:none;fill-opacity:0;stroke:#000000;stroke-width:60;stroke-linecap:round;stroke-linejoin:round;stroke-opacity:1"
         d="m 20750,22750 750,-750"
         id="path300" />
      <path
         style="fill:none;fill-opacity:0;stroke:#000000;stroke-width:60;stroke-linecap:round;stroke-linejoin:round;stroke-opacity:1"
         d="m 20750,23250 750,750 v 0"
         id="path302" />
    </g>
    <g
       style="fill:#000000;fill-opacity:0;stroke:#000000;stroke-width:200;stroke-linecap:round;stroke-linejoin:round;stroke-opacity:1"
       id="g308">
      <path
         style="fill:none;fill-opacity:0;stroke:#000000;stroke-width:200;stroke-linecap:round;stroke-linejoin:round;stroke-opacity:1"
         d="m 20750,22250 v 1500 0"
         id="path306" />
    </g>
    <g
       style="fill:#000000;fill-opacity:1;stroke:#000000;stroke-width:60;stroke-linecap:round;stroke-linejoin:round;stroke-opacity:1"
       id="g312">
      <path
         style="fill:#000000;fill-opacity:1;fill-rule:evenodd;stroke:#000000;stroke-width:60;stroke-linecap:round;stroke-linejoin:round;stroke-opacity:1"
         d="m 21000,23700 200,-200 200,400 z"
         id="path310" />
    </g>
    <g
       style="fill:#000000;fill-opacity:0;stroke:#000000;stroke-width:60;stroke-linecap:round;stroke-linejoin:round;stroke-opacity:1"
       id="g364">
      <path
         d="m 21500,24000 v 1000"
         id="path314" />
      <g
         transform="rotate(-90,21600,24500)"
         id="g318">
        <text
           x="21600"
           y="25000"
           textLength="540"
           font-size="660px"
           lengthAdjust="spacingAndGlyphs"
           text-anchor="middle"
           opacity="0"
           id="text316">1</text>
      </g>
      <path
         d="m 22070,24350 v 290"
         id="path320" />
      <path
         d="m 22070,24500 h -500 l 70,40 50,50 20,50"
         id="path322" />
      <path
         d="M 20750,23000 H 18500"
         id="path324" />
      <text
         x="19620"
         y="23600"
         textLength="540"
         font-size="660px"
         lengthAdjust="spacingAndGlyphs"
         text-anchor="middle"
         opacity="0"
         id="text326">2</text>
      <path
         d="m 19470,23120 30,-20 40,-30 h 120 l 50,30 20,20 30,50 v 40 l -30,80 -280,280 h 310"
         id="path328" />
      <path
         d="M 21500,22000 V 21000"
         id="path330" />
      <g
         transform="rotate(-90,21600,21500)"
         id="g334">
        <text
           x="21600"
           y="22000"
           textLength="540"
           font-size="660px"
           lengthAdjust="spacingAndGlyphs"
           text-anchor="middle"
           opacity="0"
           id="text332">3</text>
      </g>
      <path
         d="m 21570,21660 v -310 l 190,170 v -70 l 30,-50 20,-20 50,-30 h 120 l 40,30 30,20 20,50 v 140 l -20,50 -30,20"
         id="path336" />
      <text
         x="22930"
         y="22810"
         textLength="1060"
         font-size="660px"
         lengthAdjust="spacingAndGlyphs"
         text-anchor="middle"
         opacity="0"
         id="text338">Q1</text>
      <path
         d="m 22880,22830 -50,-20 -50,-50 -70,-70 -50,-30 h -40"
         id="path340" />
      <path
         d="m 22640,22780 -50,-20 -50,-50 -20,-100 v -160 l 20,-100 50,-40 50,-30 h 90 l 50,30 50,40 20,100 v 160 l -20,100 -50,50 -50,20 h -90"
         id="path342" />
      <path
         d="m 23330,22780 h -290"
         id="path344" />
      <path
         d="m 23190,22780 v -500 l -50,70 -50,50 -50,20"
         id="path346" />
      <text
         x="23880"
         y="23720"
         textLength="2960"
         font-size="660px"
         lengthAdjust="spacingAndGlyphs"
         text-anchor="middle"
         opacity="0"
         id="text348">2N3904</text>
      <path
         d="m 22520,23240 20,-20 50,-30 h 120 l 50,30 20,20 20,50 v 40 l -20,80 -290,280 h 310"
         id="path350" />
      <path
         d="m 23020,23690 v -500 l 280,500 v -500"
         id="path352" />
      <path
         d="m 23490,23190 h 310 l -160,190 h 70 l 50,30 20,20 20,50 v 120 l -20,40 -20,30 -50,20 h -140 l -50,-20 -30,-30"
         id="path354" />
      <path
         d="m 24040,23690 h 100 l 40,-20 30,-30 50,-70 20,-90 v -190 l -20,-50 -30,-20 -50,-30 h -90 l -50,30 -20,20 -30,50 v 120 l 30,40 20,30 50,20 h 90 l 50,-20 30,-30 20,-40"
         id="path356" />
      <path
         d="m 24590,23190 h 50 l 40,30 30,20 20,50 30,90 v 120 l -30,100 -20,40 -30,30 -40,20 h -50 l -50,-20 -20,-30 -30,-40 -20,-100 v -120 l 20,-90 30,-50 20,-20 50,-30"
         id="path358" />
      <path
         d="m 25180,23360 v 330"
         id="path360" />
      <path
         d="m 25070,23170 -120,350 h 310"
         id="path362" />
    </g>
  </g>
  <g
     style="fill:#000000;fill-opacity:0;stroke:#000000;stroke-width:0;stroke-linecap:round;stroke-linejoin:round;stroke-opacity:1"
     id="g402"
     transform="translate(-10970,-15980)">
    <g
       id="g368" />
    <g
       style="fill:#000000;fill-opacity:0;stroke:#000000;stroke-width:100;stroke-linecap:round;stroke-linejoin:round;stroke-opacity:1"
       id="g372">
      <rect
         x="16000"
         y="22600"
         width="2000"
         height="800"
         rx="0"
         id="rect370" />
    </g>
    <g
       style="fill:#000000;fill-opacity:0;stroke:#000000;stroke-width:60;stroke-linecap:round;stroke-linejoin:round;stroke-opacity:1"
       id="g400">
      <path
         d="m 18000,23000 h 500"
         id="path374" />
      <path
         d="m 16000,23000 h -500"
         id="path376" />
      <text
         x="17000"
         y="21200"
         textLength="1040"
         font-size="660px"
         lengthAdjust="spacingAndGlyphs"
         text-anchor="middle"
         opacity="0"
         id="text378">R1</text>
      <path
         d="m 16910,21170 -160,-240"
         id="path380" />
      <path
         d="m 16630,21170 v -500 h 190 l 40,30 30,20 20,50 v 70 l -20,50 -30,20 -40,20 h -190"
         id="path382" />
      <path
         d="m 17390,21170 h -290"
         id="path384" />
      <path
         d="m 17250,21170 v -500 l -50,70 -50,50 -50,20"
         id="path386" />
      <text
         x="17000"
         y="22110"
         textLength="1040"
         font-size="660px"
         lengthAdjust="spacingAndGlyphs"
         text-anchor="middle"
         opacity="0"
         id="text388">1K</text>
      <path
         d="m 16890,22080 h -290"
         id="path390" />
      <path
         d="m 16750,22080 v -500 l -50,70 -50,50 -50,20"
         id="path392" />
      <path
         d="m 17100,22080 v -500"
         id="path394" />
      <path
         d="m 17390,22080 -220,-280"
         id="path396" />
      <path
         d="m 17390,21580 -290,290"
         id="path398" />
    </g>
  </g>
  <g
     style="fill:#000000;fill-opacity:0;stroke:#000000;stroke-width:0;stroke-linecap:round;stroke-linejoin:round;stroke-opacity:1"
     id="g480"
     transform="translate(-10970,-15980)">
    <g
       id="g404" />
    <g
       style="fill:#000000;fill-opacity:0;stroke:#000000;stroke-width:60;stroke-linecap:round;stroke-linejoin:round;stroke-opacity:1"
       id="g478">
      <path
         d="m 23002.2,20750 a 1250,1250 0 0 0 0,-2500"
         id="path406" />
      <path
         style="fill:none;fill-opacity:0;stroke:#000000;stroke-width:60;stroke-linecap:round;stroke-linejoin:round;stroke-opacity:1"
         d="m 22350,18750 h 200"
         id="path408" />
      <path
         style="fill:none;fill-opacity:0;stroke:#000000;stroke-width:60;stroke-linecap:round;stroke-linejoin:round;stroke-opacity:1"
         d="m 22450,18650 v 200"
         id="path410" />
      <path
         style="fill:none;fill-opacity:0;stroke:#000000;stroke-width:60;stroke-linecap:round;stroke-linejoin:round;stroke-opacity:1"
         d="m 23000,18250 v 2500"
         id="path412" />
      <path
         d="M 23000,18500 H 22000"
         id="path414" />
      <text
         x="22500"
         y="18400"
         textLength="540"
         font-size="660px"
         lengthAdjust="spacingAndGlyphs"
         text-anchor="middle"
         opacity="0"
         id="text416">1</text>
      <path
         d="m 22640,18370 h -290"
         id="path418" />
      <path
         d="m 22500,18370 v -500 l -50,70 -50,50 -50,20"
         id="path420" />
      <path
         d="M 23000,20500 H 22000"
         id="path422" />
      <text
         x="22500"
         y="20400"
         textLength="540"
         font-size="660px"
         lengthAdjust="spacingAndGlyphs"
         text-anchor="middle"
         opacity="0"
         id="text424">2</text>
      <path
         d="m 22350,19920 30,-20 40,-30 h 120 l 50,30 20,20 30,50 v 40 l -30,80 -280,280 h 310"
         id="path426" />
      <text
         x="25270"
         y="19480"
         textLength="1510"
         font-size="660px"
         lengthAdjust="spacingAndGlyphs"
         text-anchor="middle"
         opacity="0"
         id="text428">BZ1</text>
      <path
         d="m 24820,19190 80,20 20,30 20,40 v 80 l -20,40 -20,30 -50,20 h -190 v -500 h 160 l 50,30 30,20 20,50 v 40 l -20,50 -30,30 -50,20 h -160"
         id="path430" />
      <path
         d="m 25110,18950 h 330 l -330,500 h 330"
         id="path432" />
      <path
         d="m 25900,19450 h -290"
         id="path434" />
      <path
         d="m 25750,19450 v -500 l -40,70 -50,50 -50,20"
         id="path436" />
      <text
         x="27870"
         y="20390"
         textLength="6700"
         font-size="660px"
         lengthAdjust="spacingAndGlyphs"
         text-anchor="middle"
         opacity="0"
         id="text438">12-17 mm Piezo</text>
      <path
         d="m 24920,20360 h -280"
         id="path440" />
      <path
         d="m 24780,20360 v -500 l -50,70 -40,50 -50,20"
         id="path442" />
      <path
         d="m 25120,19910 20,-20 50,-30 h 120 l 40,30 30,20 20,50 v 40 l -20,80 -290,280 h 310"
         id="path444" />
      <path
         d="m 25620,20170 h 380"
         id="path446" />
      <path
         d="m 26500,20360 h -290"
         id="path448" />
      <path
         d="m 26350,20360 v -500 l -40,70 -50,50 -50,20"
         id="path450" />
      <path
         d="m 26660,19860 h 340 l -220,500"
         id="path452" />
      <path
         d="m 27570,20360 v -330"
         id="path454" />
      <path
         d="m 27570,20080 20,-30 50,-20 h 70 l 50,20 20,50 v 260"
         id="path456" />
      <path
         d="m 27780,20100 30,-50 40,-20 h 70 l 50,20 30,50 v 260"
         id="path458" />
      <path
         d="m 28230,20360 v -330"
         id="path460" />
      <path
         d="m 28230,20080 30,-30 50,-20 h 70 l 40,20 30,50 v 260"
         id="path462" />
      <path
         d="m 28450,20100 20,-50 50,-20 h 70 l 50,20 20,50 v 260"
         id="path464" />
      <path
         d="m 29280,20360 v -500 h 190 l 50,30 20,20 30,50 v 70 l -30,50 -20,20 -50,20 h -190"
         id="path466" />
      <path
         d="m 29780,20360 v -330"
         id="path468" />
      <path
         d="m 29780,19860 -20,30 20,20 30,-20 -30,-30 v 50"
         id="path470" />
      <path
         d="m 30210,20340 -50,20 h -90 l -50,-20 -20,-50 v -190 l 20,-50 50,-20 h 90 l 50,20 20,50 v 50 l -230,40"
         id="path472" />
      <path
         d="m 30400,20030 h 260 l -260,330 h 260"
         id="path474" />
      <path
         d="m 30920,20360 -40,-20 -30,-30 -20,-40 v -150 l 20,-40 30,-30 40,-20 h 80 l 40,20 30,30 20,40 v 150 l -20,40 -30,30 -40,20 h -80"
         id="path476" />
    </g>
  </g>
  <g
     style="fill:#000000;fill-opacity:0;stroke:#000000;stroke-width:0;stroke-linecap:round;stroke-linejoin:round;stroke-opacity:1"
     id="g506"
     transform="translate(-10970,-15980)">
    <g
       id="g482" />
    <g
       style="fill:#000000;fill-opacity:0;stroke:#000000;stroke-width:60;stroke-linecap:round;stroke-linejoin:round;stroke-opacity:1"
       id="g504">
      <path
         style="fill:none;fill-opacity:0;stroke:#000000;stroke-width:60;stroke-linecap:round;stroke-linejoin:round;stroke-opacity:1"
         d="m 21200,17500 300,-500"
         id="path484" />
      <path
         style="fill:none;fill-opacity:0;stroke:#000000;stroke-width:60;stroke-linecap:round;stroke-linejoin:round;stroke-opacity:1"
         d="M 21500,18000 V 17000"
         id="path486" />
      <path
         style="fill:none;fill-opacity:0;stroke:#000000;stroke-width:60;stroke-linecap:round;stroke-linejoin:round;stroke-opacity:1"
         d="m 21500,17000 300,500"
         id="path488" />
      <text
         x="21650"
         y="16540"
         textLength="2300"
         font-size="660px"
         lengthAdjust="spacingAndGlyphs"
         text-anchor="middle"
         opacity="0"
         id="text490">+3.3V</text>
      <path
         d="m 20650,16320 h 380"
         id="path492" />
      <path
         d="m 20840,16510 v -380"
         id="path494" />
      <path
         d="m 21220,16010 h 310 l -170,190 h 70 l 50,30 20,20 30,50 v 120 l -30,40 -20,30 -50,20 h -140 l -50,-20 -20,-30"
         id="path496" />
      <path
         d="m 21740,16460 20,30 -20,20 -20,-20 20,-30 v 50"
         id="path498" />
      <path
         d="m 21930,16010 h 310 l -170,190 h 80 l 40,30 30,20 20,50 v 120 l -20,40 -30,30 -40,20 h -150 l -50,-20 -20,-30"
         id="path500" />
      <path
         d="m 22380,16010 170,500 170,-500"
         id="path502" />
    </g>
  </g>
  <g
     style="fill:#000000;fill-opacity:0;stroke:#000000;stroke-width:0;stroke-linecap:round;stroke-linejoin:round;stroke-opacity:1"
     id="g522"
     transform="translate(-10970,-15980)">
    <g
       id="g508" />
    <g
       style="fill:#000000;fill-opacity:0;stroke:#000000;stroke-width:60;stroke-linecap:round;stroke-linejoin:round;stroke-opacity:1"
       id="g520">
      <path
         style="fill:none;fill-opacity:0;stroke:#000000;stroke-width:60;stroke-linecap:round;stroke-linejoin:round;stroke-opacity:1"
         d="m 21500,25000 v 500 h 500 l -500,500 -500,-500 h 500"
         id="path510" />
      <text
         x="21550"
         y="27000"
         textLength="1580"
         font-size="660px"
         lengthAdjust="spacingAndGlyphs"
         text-anchor="middle"
         opacity="0"
         id="text512">GND</text>
      <path
         d="m 21160,26500 -40,-30 h -70 l -80,30 -40,40 -30,50 -20,100 v 70 l 20,90 30,50 40,50 80,20 h 40 l 70,-20 30,-30 v -160 h -100"
         id="path514" />
      <path
         d="m 21400,26970 v -500 l 290,500 v -500"
         id="path516" />
      <path
         d="m 21930,26970 v -500 h 120 l 70,30 40,40 30,50 20,100 v 70 l -20,90 -30,50 -40,50 -70,20 h -120"
         id="path518" />
    </g>
  </g>
  <g
     style="fill:#000000;fill-opacity:0;stroke:#000000;stroke-width:60;stroke-linecap:round;stroke-linejoin:round;stroke-opacity:1"
     id="g552"
     transform="translate(-10970,-15980)">
    <path
       d="m 22000,18500 h -500"
       id="path524" />
    <path
       d="m 21500,18500 v -500"
       id="path526" />
    <path
       d="m 22000,20500 h -500"
       id="path528" />
    <path
       d="m 21500,20500 v 500"
       id="path530" />
    <text
       x="15190"
       y="23250"
       textLength="4060"
       font-size="660px"
       lengthAdjust="spacingAndGlyphs"
       text-anchor="end"
       opacity="0"
       id="text532">3.3V-GPIO</text>
    <path
       d="m 11230,22720 h 310 l -170,190 h 70 l 50,30 20,20 30,50 v 120 l -30,40 -20,30 -50,20 h -140 l -50,-20 -20,-30"
       id="path534" />
    <path
       d="m 11750,23170 20,30 -20,20 -20,-20 20,-30 v 50"
       id="path536" />
    <path
       d="m 11940,22720 h 310 l -170,190 h 80 l 40,30 30,20 20,50 v 120 l -20,40 -30,30 -40,20 h -150 l -50,-20 -20,-30"
       id="path538" />
    <path
       d="m 12390,22720 170,500 170,-500"
       id="path540" />
    <path
       d="m 12890,23030 h 380"
       id="path542" />
    <path
       d="m 13770,22750 -40,-30 h -70 l -80,30 -40,40 -30,50 -20,100 v 70 l 20,90 30,50 40,50 80,20 h 40 l 70,-20 30,-30 v -160 h -100"
       id="path544" />
    <path
       d="m 14010,23220 v -500 h 190 l 50,30 20,20 30,50 v 70 l -30,50 -20,20 -50,20 h -190"
       id="path546" />
    <path
       d="m 14510,23220 v -500"
       id="path548" />
    <path
       d="m 14850,22720 h 90 l 50,30 50,40 20,100 v 160 l -20,100 -50,50 -50,20 h -90 l -50,-20 -50,-50 -20,-100 v -160 l 20,-100 50,-40 50,-30"
       id="path550" />
  </g>
  <g
     style="fill:#000000;fill-opacity:0;stroke:#000000;stroke-width:100;stroke-linecap:round;stroke-linejoin:round;stroke-opacity:1"
     id="g556"
     transform="translate(-10970,-15980)">
    <path
       style="fill:none;fill-opacity:0;stroke:#000000;stroke-width:100;stroke-linecap:round;stroke-linejoin:round;stroke-opacity:1"
       d="m 15500,23000 -250,-440 h -4230 v 440 440 h 4230 z"
       id="path554" />
  </g>
</svg>
