<?xml version="1.0" encoding="UTF-8" standalone="no"?>
<svg
   xmlns:dc="http://purl.org/dc/elements/1.1/"
   xmlns:cc="http://creativecommons.org/ns#"
   xmlns:rdf="http://www.w3.org/1999/02/22-rdf-syntax-ns#"
   xmlns:svg="http://www.w3.org/2000/svg"
   xmlns="http://www.w3.org/2000/svg"
   xmlns:sodipodi="http://sodipodi.sourceforge.net/DTD/sodipodi-0.dtd"
   xmlns:inkscape="http://www.inkscape.org/namespaces/inkscape"
   version="1.1"
   width="44.035999mm"
   height="39.360737mm"
   viewBox="0 0 17337.008 15496.354"
   id="svg252"
   sodipodi:docname="buzzer-pnp.svg"
   inkscape:version="1.0.2 (e86c870879, 2021-01-15)">
  <metadata
     id="metadata258">
    <rdf:RDF>
      <cc:Work
         rdf:about="">
        <dc:format>image/svg+xml</dc:format>
        <dc:type
           rdf:resource="http://purl.org/dc/dcmitype/StillImage" />
        <dc:title>SVG Picture created as buzzer-pnp.svg date 2021/05/12 11:38:58 </dc:title>
      </cc:Work>
    </rdf:RDF>
  </metadata>
  <defs
     id="defs256" />
  <sodipodi:namedview
     pagecolor="#ffffff"
     bordercolor="#666666"
     borderopacity="1"
     objecttolerance="10"
     gridtolerance="10"
     guidetolerance="10"
     inkscape:pageopacity="0"
     inkscape:pageshadow="2"
     inkscape:window-width="799"
     inkscape:window-height="480"
     id="namedview254"
     showgrid="false"
     inkscape:lockguides="false"
     units="mm"
     fit-margin-top="5"
     fit-margin-left="5"
     fit-margin-right="5"
     fit-margin-bottom="5"
     inkscape:zoom="0.3641046"
     inkscape:cx="45.345655"
     inkscape:cy="75.153627"
     inkscape:window-x="26"
     inkscape:window-y="23"
     inkscape:window-maximized="0"
     inkscape:current-layer="svg252" />
  <title
     id="title2">SVG Picture created as buzzer-pnp.svg date 2021/05/12 11:38:58 </title>
  <desc
     id="desc4">Picture generated by Eeschema-SVG </desc>
  <g
     style="fill:#000000;fill-opacity:1;stroke:#000000;stroke-linecap:round;stroke-linejoin:round;stroke-opacity:1"
     id="g6"
     transform="translate(-53741.496,-33511.496)" />
  <g
     style="fill:#000000;fill-opacity:0;stroke:#000000;stroke-width:0;stroke-linecap:round;stroke-linejoin:round;stroke-opacity:1"
     id="g82"
     transform="translate(-53741.496,-33511.496)">
    <g
       id="g8" />
    <g
       style="fill:#840000;fill-opacity:0;stroke:#840000;stroke-width:0;stroke-linecap:round;stroke-linejoin:round;stroke-opacity:1"
       id="g10" />
    <g
       style="fill:#840000;fill-opacity:0;stroke:#840000;stroke-width:100;stroke-linecap:round;stroke-linejoin:round;stroke-opacity:1"
       id="g14">
      <circle
         cx="63500"
         cy="40000"
         r="1110"
         id="circle12" />
    </g>
    <g
       style="fill:#840000;fill-opacity:0;stroke:#840000;stroke-width:60;stroke-linecap:round;stroke-linejoin:round;stroke-opacity:1"
       id="g22">
      <path
         style="fill:none;fill-opacity:0;stroke:#840000;stroke-width:60;stroke-linecap:round;stroke-linejoin:round;stroke-opacity:1"
         d="m 63000,40000 h 250"
         id="path16" />
      <path
         style="fill:none;fill-opacity:0;stroke:#840000;stroke-width:60;stroke-linecap:round;stroke-linejoin:round;stroke-opacity:1"
         d="m 64000,39000 -750,750"
         id="path18" />
      <path
         style="fill:none;fill-opacity:0;stroke:#840000;stroke-width:60;stroke-linecap:round;stroke-linejoin:round;stroke-opacity:1"
         d="m 64000,41000 -750,-750"
         id="path20" />
    </g>
    <g
       style="fill:#840000;fill-opacity:1;stroke:#840000;stroke-width:200;stroke-linecap:round;stroke-linejoin:round;stroke-opacity:1"
       id="g26">
      <path
         style="fill:#840000;fill-opacity:1;fill-rule:evenodd;stroke:#840000;stroke-width:200;stroke-linecap:round;stroke-linejoin:round;stroke-opacity:1"
         d="m 63250,40750 v -1500 0"
         id="path24" />
    </g>
    <g
       style="fill:#840000;fill-opacity:1;stroke:#840000;stroke-width:60;stroke-linecap:round;stroke-linejoin:round;stroke-opacity:1"
       id="g30">
      <path
         style="fill:#840000;fill-opacity:1;fill-rule:evenodd;stroke:#840000;stroke-width:60;stroke-linecap:round;stroke-linejoin:round;stroke-opacity:1"
         d="m 63700,39100 200,200 -400,200 z"
         id="path28" />
    </g>
    <g
       style="fill:#840000;fill-opacity:0;stroke:#840000;stroke-width:60;stroke-linecap:round;stroke-linejoin:round;stroke-opacity:1"
       id="g56">
      <path
         d="M 64000,39000 V 38000"
         id="path32" />
      <g
         transform="rotate(-90,64100,38500)"
         id="g36">
        <text
           x="64100"
           y="39000"
           textLength="540"
           font-size="660px"
           lengthAdjust="spacingAndGlyphs"
           text-anchor="middle"
           opacity="0"
           id="text34">1</text>
      </g>
      <path
         d="m 64570,38350 v 290"
         id="path38" />
      <path
         d="m 64570,38500 h -500 l 70,40 50,50 20,50"
         id="path40" />
      <path
         d="M 63000,40000 H 61000"
         id="path42" />
      <text
         x="62000"
         y="40600"
         textLength="540"
         font-size="660px"
         lengthAdjust="spacingAndGlyphs"
         text-anchor="middle"
         opacity="0"
         id="text44">2</text>
      <path
         d="m 61850,40120 30,-20 40,-30 h 120 l 50,30 20,20 30,50 v 40 l -30,80 -280,280 h 310"
         id="path46" />
      <path
         d="m 64000,41000 v 1000"
         id="path48" />
      <g
         transform="rotate(-90,64100,41500)"
         id="g52">
        <text
           x="64100"
           y="42000"
           textLength="540"
           font-size="660px"
           lengthAdjust="spacingAndGlyphs"
           text-anchor="middle"
           opacity="0"
           id="text50">3</text>
      </g>
      <path
         d="m 64070,41660 v -310 l 190,170 v -70 l 30,-50 20,-20 50,-30 h 120 l 40,30 30,20 20,50 v 140 l -20,50 -30,20"
         id="path54" />
    </g>
    <g
       style="fill:#008484;fill-opacity:0;stroke:#008484;stroke-width:60;stroke-linecap:round;stroke-linejoin:round;stroke-opacity:1"
       id="g80">
      <text
         x="65430"
         y="39760"
         textLength="1060"
         font-size="660px"
         lengthAdjust="spacingAndGlyphs"
         text-anchor="middle"
         opacity="0"
         id="text58">Q1</text>
      <path
         d="m 65380,39780 -50,-20 -50,-50 -70,-70 -50,-30 h -40"
         id="path60" />
      <path
         d="m 65140,39730 -50,-20 -50,-50 -20,-100 v -160 l 20,-100 50,-40 50,-30 h 90 l 50,30 50,40 20,100 v 160 l -20,100 -50,50 -50,20 h -90"
         id="path62" />
      <path
         d="m 65830,39730 h -290"
         id="path64" />
      <path
         d="m 65690,39730 v -500 l -50,70 -50,50 -50,20"
         id="path66" />
      <text
         x="66120"
         y="40670"
         textLength="2440"
         font-size="660px"
         lengthAdjust="spacingAndGlyphs"
         text-anchor="middle"
         opacity="0"
         id="text68">S8550</text>
      <path
         d="m 65020,40620 70,20 h 120 l 50,-20 20,-30 30,-40 v -50 l -30,-50 -20,-20 -50,-30 -90,-20 -50,-20 -30,-30 -20,-50 v -40 l 20,-50 30,-20 50,-30 h 110 l 80,30"
         id="path70" />
      <path
         d="m 65590,40360 -50,-30 -20,-20 -20,-50 v -20 l 20,-50 20,-20 50,-30 h 100 l 40,30 30,20 20,50 v 20 l -20,50 -30,20 -40,30 h -100 l -50,20 -20,20 -20,50 v 100 l 20,40 20,30 50,20 h 100 l 40,-20 30,-30 20,-40 v -100 l -20,-50 -30,-20 -40,-20"
         id="path72" />
      <path
         d="m 66230,40140 h -230 l -30,240 30,-20 40,-30 h 120 l 50,30 20,20 30,50 v 120 l -30,40 -20,30 -50,20 h -120 l -40,-20 -30,-30"
         id="path74" />
      <path
         d="m 66710,40140 h -240 l -20,240 20,-20 50,-30 h 120 l 50,30 20,20 20,50 v 120 l -20,40 -20,30 -50,20 h -120 l -50,-20 -20,-30"
         id="path76" />
      <path
         d="m 67040,40140 h 50 l 50,30 20,20 30,50 20,90 v 120 l -20,100 -30,40 -20,30 -50,20 h -50 l -40,-20 -30,-30 -20,-40 -30,-100 v -120 l 30,-90 20,-50 30,-20 40,-30"
         id="path78" />
    </g>
  </g>
  <g
     style="fill:#008484;fill-opacity:0;stroke:#008484;stroke-width:0;stroke-linecap:round;stroke-linejoin:round;stroke-opacity:1"
     id="g122"
     transform="translate(-53741.496,-33511.496)">
    <g
       id="g84" />
    <g
       style="fill:#840000;fill-opacity:0;stroke:#840000;stroke-width:0;stroke-linecap:round;stroke-linejoin:round;stroke-opacity:1"
       id="g86" />
    <g
       style="fill:#840000;fill-opacity:0;stroke:#840000;stroke-width:100;stroke-linecap:round;stroke-linejoin:round;stroke-opacity:1"
       id="g90">
      <rect
         x="58500"
         y="39600"
         width="2000"
         height="800"
         rx="0"
         id="rect88" />
    </g>
    <g
       style="fill:#840000;fill-opacity:0;stroke:#840000;stroke-width:60;stroke-linecap:round;stroke-linejoin:round;stroke-opacity:1"
       id="g96">
      <path
         d="m 60500,40000 h 500"
         id="path92" />
      <path
         d="m 58500,40000 h -500"
         id="path94" />
    </g>
    <g
       style="fill:#008484;fill-opacity:0;stroke:#008484;stroke-width:60;stroke-linecap:round;stroke-linejoin:round;stroke-opacity:1"
       id="g120">
      <text
         x="59500"
         y="38200"
         textLength="1040"
         font-size="660px"
         lengthAdjust="spacingAndGlyphs"
         text-anchor="middle"
         opacity="0"
         id="text98">R1</text>
      <path
         d="m 59410,38170 -160,-240"
         id="path100" />
      <path
         d="m 59130,38170 v -500 h 190 l 40,30 30,20 20,50 v 70 l -20,50 -30,20 -40,20 h -190"
         id="path102" />
      <path
         d="m 59890,38170 h -290"
         id="path104" />
      <path
         d="m 59750,38170 v -500 l -50,70 -50,50 -50,20"
         id="path106" />
      <text
         x="59500"
         y="39110"
         textLength="1040"
         font-size="660px"
         lengthAdjust="spacingAndGlyphs"
         text-anchor="middle"
         opacity="0"
         id="text108">1K</text>
      <path
         d="m 59390,39080 h -290"
         id="path110" />
      <path
         d="m 59250,39080 v -500 l -50,70 -50,50 -50,20"
         id="path112" />
      <path
         d="m 59600,39080 v -500"
         id="path114" />
      <path
         d="m 59890,39080 -220,-280"
         id="path116" />
      <path
         d="m 59890,38580 -290,290"
         id="path118" />
    </g>
  </g>
  <g
     style="fill:#008484;fill-opacity:0;stroke:#008484;stroke-width:0;stroke-linecap:round;stroke-linejoin:round;stroke-opacity:1"
     id="g182"
     transform="translate(-53741.496,-33511.496)">
    <g
       id="g124" />
    <g
       style="fill:#840000;fill-opacity:0;stroke:#840000;stroke-width:0;stroke-linecap:round;stroke-linejoin:round;stroke-opacity:1"
       id="g126" />
    <g
       style="fill:#840000;fill-opacity:0;stroke:#840000;stroke-width:60;stroke-linecap:round;stroke-linejoin:round;stroke-opacity:1"
       id="g150">
      <path
         d="m 65002.2,45250 a 1250,1250 0 0 0 0,-2500"
         id="path128" />
      <path
         style="fill:none;fill-opacity:0;stroke:#840000;stroke-width:60;stroke-linecap:round;stroke-linejoin:round;stroke-opacity:1"
         d="m 64350,43250 h 200"
         id="path130" />
      <path
         style="fill:none;fill-opacity:0;stroke:#840000;stroke-width:60;stroke-linecap:round;stroke-linejoin:round;stroke-opacity:1"
         d="m 64450,43150 v 200"
         id="path132" />
      <path
         style="fill:none;fill-opacity:0;stroke:#840000;stroke-width:60;stroke-linecap:round;stroke-linejoin:round;stroke-opacity:1"
         d="m 65000,42750 v 2500"
         id="path134" />
      <path
         d="M 65000,43000 H 64000"
         id="path136" />
      <text
         x="64500"
         y="42900"
         textLength="540"
         font-size="660px"
         lengthAdjust="spacingAndGlyphs"
         text-anchor="middle"
         opacity="0"
         id="text138">1</text>
      <path
         d="m 64640,42870 h -290"
         id="path140" />
      <path
         d="m 64500,42870 v -500 l -50,70 -50,50 -50,20"
         id="path142" />
      <path
         d="M 65000,45000 H 64000"
         id="path144" />
      <text
         x="64500"
         y="44900"
         textLength="540"
         font-size="660px"
         lengthAdjust="spacingAndGlyphs"
         text-anchor="middle"
         opacity="0"
         id="text146">2</text>
      <path
         d="m 64350,44420 30,-20 40,-30 h 120 l 50,30 20,20 30,50 v 40 l -30,80 -280,280 h 310"
         id="path148" />
    </g>
    <g
       style="fill:#008484;fill-opacity:0;stroke:#008484;stroke-width:60;stroke-linecap:round;stroke-linejoin:round;stroke-opacity:1"
       id="g180">
      <text
         x="67270"
         y="43980"
         textLength="1510"
         font-size="660px"
         lengthAdjust="spacingAndGlyphs"
         text-anchor="middle"
         opacity="0"
         id="text152">BZ1</text>
      <path
         d="m 66820,43690 80,20 20,30 20,40 v 80 l -20,40 -20,30 -50,20 h -190 v -500 h 160 l 50,30 30,20 20,50 v 40 l -20,50 -30,30 -50,20 h -160"
         id="path154" />
      <path
         d="m 67110,43450 h 330 l -330,500 h 330"
         id="path156" />
      <path
         d="m 67900,43950 h -290"
         id="path158" />
      <path
         d="m 67750,43950 v -500 l -40,70 -50,50 -50,20"
         id="path160" />
      <text
         x="67800"
         y="44890"
         textLength="2560"
         font-size="660px"
         lengthAdjust="spacingAndGlyphs"
         text-anchor="middle"
         opacity="0"
         id="text162">Buzzer</text>
      <path
         d="m 66830,44600 70,20 30,30 20,40 v 80 l -20,40 -30,30 -50,20 h -190 v -500 h 170 l 50,30 20,20 30,50 v 40 l -30,50 -20,30 -50,20 h -170"
         id="path164" />
      <path
         d="m 67380,44530 v 330"
         id="path166" />
      <path
         d="m 67160,44530 v 260 l 30,50 50,20 h 70 l 40,-20 30,-30"
         id="path168" />
      <path
         d="m 67570,44530 h 260 l -260,330 h 260"
         id="path170" />
      <path
         d="m 67970,44530 h 270 l -270,330 h 270"
         id="path172" />
      <path
         d="m 68620,44840 -50,20 h -100 l -40,-20 -30,-50 v -190 l 30,-50 40,-20 h 100 l 50,20 20,50 v 50 l -240,40"
         id="path174" />
      <path
         d="m 68850,44860 v -330"
         id="path176" />
      <path
         d="m 68850,44620 30,-40 20,-30 50,-20 h 50"
         id="path178" />
    </g>
  </g>
  <g
     style="fill:#008484;fill-opacity:0;stroke:#008484;stroke-width:0;stroke-linecap:round;stroke-linejoin:round;stroke-opacity:1"
     id="g202"
     transform="translate(-53741.496,-33511.496)">
    <g
       id="g184" />
    <g
       style="fill:#840000;fill-opacity:0;stroke:#840000;stroke-width:0;stroke-linecap:round;stroke-linejoin:round;stroke-opacity:1"
       id="g186" />
    <g
       style="fill:#840000;fill-opacity:0;stroke:#840000;stroke-width:60;stroke-linecap:round;stroke-linejoin:round;stroke-opacity:1"
       id="g190">
      <path
         style="fill:none;fill-opacity:0;stroke:#840000;stroke-width:60;stroke-linecap:round;stroke-linejoin:round;stroke-opacity:1"
         d="m 64000,45000 v 500 h 500 l -500,500 -500,-500 h 500"
         id="path188" />
    </g>
    <g
       style="fill:#008484;fill-opacity:0;stroke:#008484;stroke-width:60;stroke-linecap:round;stroke-linejoin:round;stroke-opacity:1"
       id="g200">
      <text
         x="64050"
         y="47000"
         textLength="1580"
         font-size="660px"
         lengthAdjust="spacingAndGlyphs"
         text-anchor="middle"
         opacity="0"
         id="text192">GND</text>
      <path
         d="m 63660,46500 -40,-30 h -70 l -80,30 -40,40 -30,50 -20,100 v 70 l 20,90 30,50 40,50 80,20 h 40 l 70,-20 30,-30 v -160 h -100"
         id="path194" />
      <path
         d="m 63900,46970 v -500 l 290,500 v -500"
         id="path196" />
      <path
         d="m 64430,46970 v -500 h 120 l 70,30 40,40 30,50 20,100 v 70 l -20,90 -30,50 -40,50 -70,20 h -120"
         id="path198" />
    </g>
  </g>
  <g
     style="fill:#008484;fill-opacity:0;stroke:#008484;stroke-width:0;stroke-linecap:round;stroke-linejoin:round;stroke-opacity:1"
     id="g226"
     transform="translate(-53741.496,-33511.496)">
    <g
       id="g204" />
    <g
       style="fill:#840000;fill-opacity:0;stroke:#840000;stroke-width:0;stroke-linecap:round;stroke-linejoin:round;stroke-opacity:1"
       id="g206" />
    <g
       style="fill:#840000;fill-opacity:0;stroke:#840000;stroke-width:60;stroke-linecap:round;stroke-linejoin:round;stroke-opacity:1"
       id="g214">
      <path
         style="fill:none;fill-opacity:0;stroke:#840000;stroke-width:60;stroke-linecap:round;stroke-linejoin:round;stroke-opacity:1"
         d="m 63700,37000 300,-500"
         id="path208" />
      <path
         style="fill:none;fill-opacity:0;stroke:#840000;stroke-width:60;stroke-linecap:round;stroke-linejoin:round;stroke-opacity:1"
         d="M 64000,37500 V 36500"
         id="path210" />
      <path
         style="fill:none;fill-opacity:0;stroke:#840000;stroke-width:60;stroke-linecap:round;stroke-linejoin:round;stroke-opacity:1"
         d="m 64000,36500 300,500"
         id="path212" />
    </g>
    <g
       style="fill:#008484;fill-opacity:0;stroke:#008484;stroke-width:60;stroke-linecap:round;stroke-linejoin:round;stroke-opacity:1"
       id="g224">
      <text
         x="64150"
         y="36040"
         textLength="1490"
         font-size="660px"
         lengthAdjust="spacingAndGlyphs"
         text-anchor="middle"
         opacity="0"
         id="text216">VCC</text>
      <path
         d="m 63480,35510 170,500 160,-500"
         id="path218" />
      <path
         d="m 64260,35960 -20,30 -70,20 h -50 l -70,-20 -50,-50 -20,-50 -30,-90 v -70 l 30,-100 20,-50 50,-40 70,-30 h 50 l 70,30 20,20"
         id="path220" />
      <path
         d="m 64760,35960 -20,30 -70,20 h -50 l -70,-20 -50,-50 -20,-50 -30,-90 v -70 l 30,-100 20,-50 50,-40 70,-30 h 50 l 70,30 20,20"
         id="path222" />
    </g>
  </g>
  <g
     style="fill:#008484;fill-opacity:0;stroke:#008484;stroke-width:60;stroke-linecap:round;stroke-linejoin:round;stroke-opacity:1"
     id="g228"
     transform="translate(-53741.496,-33511.496)" />
  <g
     style="fill:#008400;fill-opacity:0;stroke:#008400;stroke-width:60;stroke-linecap:round;stroke-linejoin:round;stroke-opacity:1"
     id="g234"
     transform="translate(-53741.496,-33511.496)">
    <path
       d="m 64000,37500 v 500"
       id="path230" />
    <path
       d="M 64000,43000 V 42000"
       id="path232" />
  </g>
  <g
     style="fill:#840000;fill-opacity:0;stroke:#840000;stroke-width:60;stroke-linecap:round;stroke-linejoin:round;stroke-opacity:1"
     id="g246"
     transform="translate(-53741.496,-33511.496)">
    <text
       x="57690"
       y="40250"
       textLength="1820"
       font-size="660px"
       lengthAdjust="spacingAndGlyphs"
       text-anchor="end"
       opacity="0"
       id="text236">GPIO</text>
    <path
       d="m 56270,39750 -40,-30 h -70 l -80,30 -40,40 -30,50 -20,100 v 70 l 20,90 30,50 40,50 80,20 h 40 l 70,-20 30,-30 v -160 h -100"
       id="path238" />
    <path
       d="m 56510,40220 v -500 h 190 l 50,30 20,20 30,50 v 70 l -30,50 -20,20 -50,20 h -190"
       id="path240" />
    <path
       d="m 57010,40220 v -500"
       id="path242" />
    <path
       d="m 57350,39720 h 90 l 50,30 50,40 20,100 v 160 l -20,100 -50,50 -50,20 h -90 l -50,-20 -50,-50 -20,-100 v -160 l 20,-100 50,-40 50,-30"
       id="path244" />
  </g>
  <g
     style="fill:#840000;fill-opacity:0;stroke:#840000;stroke-width:100;stroke-linecap:round;stroke-linejoin:round;stroke-opacity:1"
     id="g250"
     transform="translate(-53741.496,-33511.496)">
    <path
       style="fill:none;fill-opacity:0;stroke:#840000;stroke-width:100;stroke-linecap:round;stroke-linejoin:round;stroke-opacity:1"
       d="m 58000,40000 -250,-440 h -1990 v 440 440 h 1990 z"
       id="path248" />
  </g>
</svg>
