<?xml version="1.0" encoding="UTF-8" standalone="no"?>
<svg
   xmlns:dc="http://purl.org/dc/elements/1.1/"
   xmlns:cc="http://creativecommons.org/ns#"
   xmlns:rdf="http://www.w3.org/1999/02/22-rdf-syntax-ns#"
   xmlns:svg="http://www.w3.org/2000/svg"
   xmlns="http://www.w3.org/2000/svg"
   xmlns:sodipodi="http://sodipodi.sourceforge.net/DTD/sodipodi-0.dtd"
   xmlns:inkscape="http://www.inkscape.org/namespaces/inkscape"
   version="1.1"
   width="58.998703mm"
   height="43.170738mm"
   viewBox="0 0 23227.836 16996.355"
   id="svg406"
   sodipodi:docname="dfrobot-buzzer.svg"
   inkscape:version="1.0.2 (e86c870879, 2021-01-15)">
  <metadata
     id="metadata412">
    <rdf:RDF>
      <cc:Work
         rdf:about="">
        <dc:format>image/svg+xml</dc:format>
        <dc:type
           rdf:resource="http://purl.org/dc/dcmitype/StillImage" />
        <dc:title>SVG Picture created as dfrobot-buzzer.svg date 2021/05/12 10:18:11 </dc:title>
      </cc:Work>
    </rdf:RDF>
  </metadata>
  <defs
     id="defs410" />
  <sodipodi:namedview
     pagecolor="#ffffff"
     bordercolor="#666666"
     borderopacity="1"
     objecttolerance="10"
     gridtolerance="10"
     guidetolerance="10"
     inkscape:pageopacity="0"
     inkscape:pageshadow="2"
     inkscape:window-width="782"
     inkscape:window-height="480"
     id="namedview408"
     showgrid="false"
     units="mm"
     fit-margin-top="5"
     fit-margin-left="5"
     fit-margin-right="5"
     fit-margin-bottom="5"
     lock-margins="true"
     inkscape:zoom="0.3641046"
     inkscape:cx="136.54565"
     inkscape:cy="113.55363"
     inkscape:window-x="26"
     inkscape:window-y="23"
     inkscape:window-maximized="0"
     inkscape:current-layer="svg406" />
  <title
     id="title2">SVG Picture created as dfrobot-buzzer.svg date 2021/05/12 10:18:11 </title>
  <desc
     id="desc4">Picture generated by Eeschema-SVG </desc>
  <g
     style="fill:#000000;fill-opacity:1;stroke:#000000;stroke-linecap:round;stroke-linejoin:round;stroke-opacity:1"
     id="g6"
     transform="translate(-44241.496,-29511.496)" />
  <g
     style="fill:#000000;fill-opacity:0;stroke:#000000;stroke-width:0;stroke-linecap:round;stroke-linejoin:round;stroke-opacity:1"
     id="g30"
     transform="translate(-44241.496,-29511.496)">
    <g
       id="g8" />
    <g
       style="fill:#840000;fill-opacity:0;stroke:#840000;stroke-width:0;stroke-linecap:round;stroke-linejoin:round;stroke-opacity:1"
       id="g10" />
    <g
       style="fill:#840000;fill-opacity:0;stroke:#840000;stroke-width:60;stroke-linecap:round;stroke-linejoin:round;stroke-opacity:1"
       id="g18">
      <path
         style="fill:none;fill-opacity:0;stroke:#840000;stroke-width:60;stroke-linecap:round;stroke-linejoin:round;stroke-opacity:1"
         d="m 55200,33000 300,-500"
         id="path12" />
      <path
         style="fill:none;fill-opacity:0;stroke:#840000;stroke-width:60;stroke-linecap:round;stroke-linejoin:round;stroke-opacity:1"
         d="M 55500,33500 V 32500"
         id="path14" />
      <path
         style="fill:none;fill-opacity:0;stroke:#840000;stroke-width:60;stroke-linecap:round;stroke-linejoin:round;stroke-opacity:1"
         d="m 55500,32500 300,500"
         id="path16" />
    </g>
    <g
       style="fill:#008484;fill-opacity:0;stroke:#008484;stroke-width:60;stroke-linecap:round;stroke-linejoin:round;stroke-opacity:1"
       id="g28">
      <text
         x="55650"
         y="32040"
         textLength="1490"
         font-size="660px"
         lengthAdjust="spacingAndGlyphs"
         text-anchor="middle"
         opacity="0"
         id="text20">VCC</text>
      <path
         d="m 54980,31510 170,500 160,-500"
         id="path22" />
      <path
         d="m 55760,31960 -20,30 -70,20 h -50 l -70,-20 -50,-50 -20,-50 -30,-90 v -70 l 30,-100 20,-50 50,-40 70,-30 h 50 l 70,30 20,20"
         id="path24" />
      <path
         d="m 56260,31960 -20,30 -70,20 h -50 l -70,-20 -50,-50 -20,-50 -30,-90 v -70 l 30,-100 20,-50 50,-40 70,-30 h 50 l 70,30 20,20"
         id="path26" />
    </g>
  </g>
  <g
     style="fill:#008484;fill-opacity:0;stroke:#008484;stroke-width:0;stroke-linecap:round;stroke-linejoin:round;stroke-opacity:1"
     id="g106"
     transform="translate(-44241.496,-29511.496)">
    <g
       id="g32" />
    <g
       style="fill:#840000;fill-opacity:0;stroke:#840000;stroke-width:0;stroke-linecap:round;stroke-linejoin:round;stroke-opacity:1"
       id="g34" />
    <g
       style="fill:#840000;fill-opacity:0;stroke:#840000;stroke-width:100;stroke-linecap:round;stroke-linejoin:round;stroke-opacity:1"
       id="g38">
      <circle
         cx="55000"
         cy="39000"
         r="1110"
         id="circle36" />
    </g>
    <g
       style="fill:#840000;fill-opacity:0;stroke:#840000;stroke-width:60;stroke-linecap:round;stroke-linejoin:round;stroke-opacity:1"
       id="g46">
      <path
         style="fill:none;fill-opacity:0;stroke:#840000;stroke-width:60;stroke-linecap:round;stroke-linejoin:round;stroke-opacity:1"
         d="m 54500,39000 h 250"
         id="path40" />
      <path
         style="fill:none;fill-opacity:0;stroke:#840000;stroke-width:60;stroke-linecap:round;stroke-linejoin:round;stroke-opacity:1"
         d="m 54750,38750 750,-750"
         id="path42" />
      <path
         style="fill:none;fill-opacity:0;stroke:#840000;stroke-width:60;stroke-linecap:round;stroke-linejoin:round;stroke-opacity:1"
         d="m 54750,39250 750,750 v 0"
         id="path44" />
    </g>
    <g
       style="fill:#840000;fill-opacity:0;stroke:#840000;stroke-width:200;stroke-linecap:round;stroke-linejoin:round;stroke-opacity:1"
       id="g50">
      <path
         style="fill:none;fill-opacity:0;stroke:#840000;stroke-width:200;stroke-linecap:round;stroke-linejoin:round;stroke-opacity:1"
         d="m 54750,38250 v 1500 0"
         id="path48" />
    </g>
    <g
       style="fill:#840000;fill-opacity:1;stroke:#840000;stroke-width:60;stroke-linecap:round;stroke-linejoin:round;stroke-opacity:1"
       id="g54">
      <path
         style="fill:#840000;fill-opacity:1;fill-rule:evenodd;stroke:#840000;stroke-width:60;stroke-linecap:round;stroke-linejoin:round;stroke-opacity:1"
         d="m 55000,39700 200,-200 200,400 z"
         id="path52" />
    </g>
    <g
       style="fill:#840000;fill-opacity:0;stroke:#840000;stroke-width:60;stroke-linecap:round;stroke-linejoin:round;stroke-opacity:1"
       id="g80">
      <path
         d="m 55500,40000 v 1000"
         id="path56" />
      <g
         transform="rotate(-90,55600,40500)"
         id="g60">
        <text
           x="55600"
           y="41000"
           textLength="540"
           font-size="660px"
           lengthAdjust="spacingAndGlyphs"
           text-anchor="middle"
           opacity="0"
           id="text58">1</text>
      </g>
      <path
         d="m 56070,40350 v 290"
         id="path62" />
      <path
         d="m 56070,40500 h -500 l 70,40 50,50 20,50"
         id="path64" />
      <path
         d="M 54500,39000 H 52500"
         id="path66" />
      <text
         x="53500"
         y="39600"
         textLength="540"
         font-size="660px"
         lengthAdjust="spacingAndGlyphs"
         text-anchor="middle"
         opacity="0"
         id="text68">2</text>
      <path
         d="m 53350,39120 30,-20 40,-30 h 120 l 50,30 20,20 30,50 v 40 l -30,80 -280,280 h 310"
         id="path70" />
      <path
         d="M 55500,38000 V 37000"
         id="path72" />
      <g
         transform="rotate(-90,55600,37500)"
         id="g76">
        <text
           x="55600"
           y="38000"
           textLength="540"
           font-size="660px"
           lengthAdjust="spacingAndGlyphs"
           text-anchor="middle"
           opacity="0"
           id="text74">3</text>
      </g>
      <path
         d="m 55570,37660 v -310 l 190,170 v -70 l 30,-50 20,-20 50,-30 h 120 l 40,30 30,20 20,50 v 140 l -20,50 -30,20"
         id="path78" />
    </g>
    <g
       style="fill:#008484;fill-opacity:0;stroke:#008484;stroke-width:60;stroke-linecap:round;stroke-linejoin:round;stroke-opacity:1"
       id="g104">
      <text
         x="56930"
         y="38810"
         textLength="1060"
         font-size="660px"
         lengthAdjust="spacingAndGlyphs"
         text-anchor="middle"
         opacity="0"
         id="text82">Q1</text>
      <path
         d="m 56880,38830 -50,-20 -50,-50 -70,-70 -50,-30 h -40"
         id="path84" />
      <path
         d="m 56640,38780 -50,-20 -50,-50 -20,-100 v -160 l 20,-100 50,-40 50,-30 h 90 l 50,30 50,40 20,100 v 160 l -20,100 -50,50 -50,20 h -90"
         id="path86" />
      <path
         d="m 57330,38780 h -290"
         id="path88" />
      <path
         d="m 57190,38780 v -500 l -50,70 -50,50 -50,20"
         id="path90" />
      <text
         x="57620"
         y="39720"
         textLength="2440"
         font-size="660px"
         lengthAdjust="spacingAndGlyphs"
         text-anchor="middle"
         opacity="0"
         id="text92">S8050</text>
      <path
         d="m 56520,39670 70,20 h 120 l 50,-20 20,-30 30,-40 v -50 l -30,-50 -20,-20 -50,-30 -90,-20 -50,-20 -30,-30 -20,-50 v -40 l 20,-50 30,-20 50,-30 h 110 l 80,30"
         id="path94" />
      <path
         d="m 57090,39410 -50,-30 -20,-20 -20,-50 v -20 l 20,-50 20,-20 50,-30 h 100 l 40,30 30,20 20,50 v 20 l -20,50 -30,20 -40,30 h -100 l -50,20 -20,20 -20,50 v 100 l 20,40 20,30 50,20 h 100 l 40,-20 30,-30 20,-40 v -100 l -20,-50 -30,-20 -40,-20"
         id="path96" />
      <path
         d="m 57590,39190 h 50 l 50,30 20,20 20,50 30,90 v 120 l -30,100 -20,40 -20,30 -50,20 h -50 l -50,-20 -20,-30 -20,-40 -30,-100 v -120 l 30,-90 20,-50 20,-20 50,-30"
         id="path98" />
      <path
         d="m 58210,39190 h -240 l -20,240 20,-20 50,-30 h 120 l 50,30 20,20 20,50 v 120 l -20,40 -20,30 -50,20 h -120 l -50,-20 -20,-30"
         id="path100" />
      <path
         d="m 58540,39190 h 50 l 50,30 20,20 30,50 20,90 v 120 l -20,100 -30,40 -20,30 -50,20 h -50 l -40,-20 -30,-30 -20,-40 -30,-100 v -120 l 30,-90 20,-50 30,-20 40,-30"
         id="path102" />
    </g>
  </g>
  <g
     style="fill:#008484;fill-opacity:0;stroke:#008484;stroke-width:0;stroke-linecap:round;stroke-linejoin:round;stroke-opacity:1"
     id="g152"
     transform="translate(-44241.496,-29511.496)">
    <g
       id="g108" />
    <g
       style="fill:#840000;fill-opacity:0;stroke:#840000;stroke-width:0;stroke-linecap:round;stroke-linejoin:round;stroke-opacity:1"
       id="g110" />
    <g
       style="fill:#840000;fill-opacity:0;stroke:#840000;stroke-width:200;stroke-linecap:round;stroke-linejoin:round;stroke-opacity:1"
       id="g116">
      <path
         style="fill:none;fill-opacity:0;stroke:#840000;stroke-width:200;stroke-linecap:round;stroke-linejoin:round;stroke-opacity:1"
         d="m 61200,36300 h 1600"
         id="path112" />
      <path
         style="fill:none;fill-opacity:0;stroke:#840000;stroke-width:200;stroke-linecap:round;stroke-linejoin:round;stroke-opacity:1"
         d="m 61200,35700 h 1600"
         id="path114" />
    </g>
    <g
       style="fill:#840000;fill-opacity:0;stroke:#840000;stroke-width:60;stroke-linecap:round;stroke-linejoin:round;stroke-opacity:1"
       id="g122">
      <path
         d="M 62000,35600 V 34500"
         id="path118" />
      <path
         d="m 62000,36400 v 1100"
         id="path120" />
    </g>
    <g
       style="fill:#008484;fill-opacity:0;stroke:#008484;stroke-width:60;stroke-linecap:round;stroke-linejoin:round;stroke-opacity:1"
       id="g150">
      <text
         x="63670"
         y="35810"
         textLength="1040"
         font-size="660px"
         lengthAdjust="spacingAndGlyphs"
         text-anchor="middle"
         opacity="0"
         id="text124">C1</text>
      <path
         d="m 63580,35730 -20,30 -70,20 h -50 l -70,-20 -50,-50 -20,-50 -30,-90 v -70 l 30,-100 20,-50 50,-40 70,-30 h 50 l 70,30 20,20"
         id="path126" />
      <path
         d="m 64060,35780 h -290"
         id="path128" />
      <path
         d="m 63920,35780 v -500 l -50,70 -50,50 -50,20"
         id="path130" />
      <text
         x="64330"
         y="36720"
         textLength="2370"
         font-size="660px"
         lengthAdjust="spacingAndGlyphs"
         text-anchor="middle"
         opacity="0"
         id="text132">100nF</text>
      <path
         d="m 63550,36690 h -280"
         id="path134" />
      <path
         d="m 63410,36690 v -500 l -50,70 -50,50 -40,20"
         id="path136" />
      <path
         d="m 63860,36190 h 50 l 50,30 20,20 20,50 30,90 v 120 l -30,100 -20,40 -20,30 -50,20 h -50 l -50,-20 -20,-30 -20,-40 -30,-100 v -120 l 30,-90 20,-50 20,-20 50,-30"
         id="path138" />
      <path
         d="m 64340,36190 h 40 l 50,30 30,20 20,50 20,90 v 120 l -20,100 -20,40 -30,30 -50,20 h -40 l -50,-20 -20,-30 -30,-40 -20,-100 v -120 l 20,-90 30,-50 20,-20 50,-30"
         id="path140" />
      <path
         d="m 64720,36360 v 330"
         id="path142" />
      <path
         d="m 64720,36410 20,-30 50,-20 h 70 l 50,20 20,50 v 260"
         id="path144" />
      <path
         d="m 65340,36430 h -170"
         id="path146" />
      <path
         d="m 65170,36690 v -500 h 240"
         id="path148" />
    </g>
  </g>
  <g
     style="fill:#008484;fill-opacity:0;stroke:#008484;stroke-width:0;stroke-linecap:round;stroke-linejoin:round;stroke-opacity:1"
     id="g196"
     transform="translate(-44241.496,-29511.496)">
    <g
       id="g154" />
    <g
       style="fill:#840000;fill-opacity:0;stroke:#840000;stroke-width:0;stroke-linecap:round;stroke-linejoin:round;stroke-opacity:1"
       id="g156" />
    <g
       style="fill:#840000;fill-opacity:0;stroke:#840000;stroke-width:100;stroke-linecap:round;stroke-linejoin:round;stroke-opacity:1"
       id="g160">
      <rect
         x="49000"
         y="38600"
         width="2000"
         height="800"
         rx="0"
         id="rect158" />
    </g>
    <g
       style="fill:#840000;fill-opacity:0;stroke:#840000;stroke-width:60;stroke-linecap:round;stroke-linejoin:round;stroke-opacity:1"
       id="g166">
      <path
         d="m 51000,39000 h 500"
         id="path162" />
      <path
         d="m 49000,39000 h -500"
         id="path164" />
    </g>
    <g
       style="fill:#008484;fill-opacity:0;stroke:#008484;stroke-width:60;stroke-linecap:round;stroke-linejoin:round;stroke-opacity:1"
       id="g194">
      <text
         x="50000"
         y="37200"
         textLength="1040"
         font-size="660px"
         lengthAdjust="spacingAndGlyphs"
         text-anchor="middle"
         opacity="0"
         id="text168">R1</text>
      <path
         d="m 49910,37170 -160,-240"
         id="path170" />
      <path
         d="m 49630,37170 v -500 h 190 l 40,30 30,20 20,50 v 70 l -20,50 -30,20 -40,20 h -190"
         id="path172" />
      <path
         d="m 50390,37170 h -290"
         id="path174" />
      <path
         d="m 50250,37170 v -500 l -50,70 -50,50 -50,20"
         id="path176" />
      <text
         x="50000"
         y="38110"
         textLength="1750"
         font-size="660px"
         lengthAdjust="spacingAndGlyphs"
         text-anchor="middle"
         opacity="0"
         id="text178">4.7K</text>
      <path
         d="m 49480,37750 v 330"
         id="path180" />
      <path
         d="m 49360,37560 -110,350 h 300"
         id="path182" />
      <path
         d="m 49750,38030 20,30 -20,20 -30,-20 30,-30 v 50"
         id="path184" />
      <path
         d="m 49940,37580 h 330 l -220,500"
         id="path186" />
      <path
         d="m 50460,38080 v -500"
         id="path188" />
      <path
         d="m 50750,38080 -220,-280"
         id="path190" />
      <path
         d="m 50750,37580 -290,290"
         id="path192" />
    </g>
  </g>
  <g
     style="fill:#008484;fill-opacity:0;stroke:#008484;stroke-width:0;stroke-linecap:round;stroke-linejoin:round;stroke-opacity:1"
     id="g236"
     transform="translate(-44241.496,-29511.496)">
    <g
       id="g198" />
    <g
       style="fill:#840000;fill-opacity:0;stroke:#840000;stroke-width:0;stroke-linecap:round;stroke-linejoin:round;stroke-opacity:1"
       id="g200" />
    <g
       style="fill:#840000;fill-opacity:0;stroke:#840000;stroke-width:100;stroke-linecap:round;stroke-linejoin:round;stroke-opacity:1"
       id="g204">
      <rect
         x="51600"
         y="40000"
         width="800"
         height="2000"
         rx="0"
         id="rect202" />
    </g>
    <g
       style="fill:#840000;fill-opacity:0;stroke:#840000;stroke-width:60;stroke-linecap:round;stroke-linejoin:round;stroke-opacity:1"
       id="g210">
      <path
         d="m 52000,42000 v 500"
         id="path206" />
      <path
         d="m 52000,40000 v -500"
         id="path208" />
    </g>
    <g
       style="fill:#008484;fill-opacity:0;stroke:#008484;stroke-width:60;stroke-linecap:round;stroke-linejoin:round;stroke-opacity:1"
       id="g234">
      <text
         x="53220"
         y="40760"
         textLength="1040"
         font-size="660px"
         lengthAdjust="spacingAndGlyphs"
         text-anchor="middle"
         opacity="0"
         id="text212">R2</text>
      <path
         d="m 53130,40730 -160,-240"
         id="path214" />
      <path
         d="m 52850,40730 v -500 h 190 l 40,30 30,20 20,50 v 70 l -20,50 -30,20 -40,20 h -190"
         id="path216" />
      <path
         d="m 53320,40280 30,-20 40,-30 h 120 l 50,30 20,20 30,50 v 40 l -30,80 -280,280 h 310"
         id="path218" />
      <text
         x="53450"
         y="41670"
         textLength="1510"
         font-size="660px"
         lengthAdjust="spacingAndGlyphs"
         text-anchor="middle"
         opacity="0"
         id="text220">10K</text>
      <path
         d="m 53100,41640 h -290"
         id="path222" />
      <path
         d="m 52960,41640 v -500 l -50,70 -50,50 -50,20"
         id="path224" />
      <path
         d="m 53410,41140 h 50 l 40,30 30,20 20,50 30,90 v 120 l -30,100 -20,40 -30,30 -40,20 h -50 l -50,-20 -20,-30 -30,-40 -20,-100 v -120 l 20,-90 30,-50 20,-20 50,-30"
         id="path226" />
      <path
         d="m 53790,41640 v -500"
         id="path228" />
      <path
         d="m 54080,41640 -220,-280"
         id="path230" />
      <path
         d="m 54080,41140 -290,290"
         id="path232" />
    </g>
  </g>
  <g
     style="fill:#008484;fill-opacity:0;stroke:#008484;stroke-width:0;stroke-linecap:round;stroke-linejoin:round;stroke-opacity:1"
     id="g256"
     transform="translate(-44241.496,-29511.496)">
    <g
       id="g238" />
    <g
       style="fill:#840000;fill-opacity:0;stroke:#840000;stroke-width:0;stroke-linecap:round;stroke-linejoin:round;stroke-opacity:1"
       id="g240" />
    <g
       style="fill:#840000;fill-opacity:0;stroke:#840000;stroke-width:60;stroke-linecap:round;stroke-linejoin:round;stroke-opacity:1"
       id="g244">
      <path
         style="fill:none;fill-opacity:0;stroke:#840000;stroke-width:60;stroke-linecap:round;stroke-linejoin:round;stroke-opacity:1"
         d="m 52000,42500 v 500 h 500 l -500,500 -500,-500 h 500"
         id="path242" />
    </g>
    <g
       style="fill:#008484;fill-opacity:0;stroke:#008484;stroke-width:60;stroke-linecap:round;stroke-linejoin:round;stroke-opacity:1"
       id="g254">
      <text
         x="52050"
         y="44500"
         textLength="1580"
         font-size="660px"
         lengthAdjust="spacingAndGlyphs"
         text-anchor="middle"
         opacity="0"
         id="text246">GND</text>
      <path
         d="m 51660,44000 -40,-30 h -70 l -80,30 -40,40 -30,50 -20,100 v 70 l 20,90 30,50 40,50 80,20 h 40 l 70,-20 30,-30 v -160 h -100"
         id="path248" />
      <path
         d="m 51900,44470 v -500 l 290,500 v -500"
         id="path250" />
      <path
         d="m 52430,44470 v -500 h 120 l 70,30 40,40 30,50 20,100 v 70 l -20,90 -30,50 -40,50 -70,20 h -120"
         id="path252" />
    </g>
  </g>
  <g
     style="fill:#008484;fill-opacity:0;stroke:#008484;stroke-width:0;stroke-linecap:round;stroke-linejoin:round;stroke-opacity:1"
     id="g276"
     transform="translate(-44241.496,-29511.496)">
    <g
       id="g258" />
    <g
       style="fill:#840000;fill-opacity:0;stroke:#840000;stroke-width:0;stroke-linecap:round;stroke-linejoin:round;stroke-opacity:1"
       id="g260" />
    <g
       style="fill:#840000;fill-opacity:0;stroke:#840000;stroke-width:60;stroke-linecap:round;stroke-linejoin:round;stroke-opacity:1"
       id="g264">
      <path
         style="fill:none;fill-opacity:0;stroke:#840000;stroke-width:60;stroke-linecap:round;stroke-linejoin:round;stroke-opacity:1"
         d="m 55500,41000 v 500 h 500 l -500,500 -500,-500 h 500"
         id="path262" />
    </g>
    <g
       style="fill:#008484;fill-opacity:0;stroke:#008484;stroke-width:60;stroke-linecap:round;stroke-linejoin:round;stroke-opacity:1"
       id="g274">
      <text
         x="55550"
         y="43000"
         textLength="1580"
         font-size="660px"
         lengthAdjust="spacingAndGlyphs"
         text-anchor="middle"
         opacity="0"
         id="text266">GND</text>
      <path
         d="m 55160,42500 -40,-30 h -70 l -80,30 -40,40 -30,50 -20,100 v 70 l 20,90 30,50 40,50 80,20 h 40 l 70,-20 30,-30 v -160 h -100"
         id="path268" />
      <path
         d="m 55400,42970 v -500 l 290,500 v -500"
         id="path270" />
      <path
         d="m 55930,42970 v -500 h 120 l 70,30 40,40 30,50 20,100 v 70 l -20,90 -30,50 -40,50 -70,20 h -120"
         id="path272" />
    </g>
  </g>
  <g
     style="fill:#008484;fill-opacity:0;stroke:#008484;stroke-width:0;stroke-linecap:round;stroke-linejoin:round;stroke-opacity:1"
     id="g296"
     transform="translate(-44241.496,-29511.496)">
    <g
       id="g278" />
    <g
       style="fill:#840000;fill-opacity:0;stroke:#840000;stroke-width:0;stroke-linecap:round;stroke-linejoin:round;stroke-opacity:1"
       id="g280" />
    <g
       style="fill:#840000;fill-opacity:0;stroke:#840000;stroke-width:60;stroke-linecap:round;stroke-linejoin:round;stroke-opacity:1"
       id="g284">
      <path
         style="fill:none;fill-opacity:0;stroke:#840000;stroke-width:60;stroke-linecap:round;stroke-linejoin:round;stroke-opacity:1"
         d="m 62000,37500 v 500 h 500 l -500,500 -500,-500 h 500"
         id="path282" />
    </g>
    <g
       style="fill:#008484;fill-opacity:0;stroke:#008484;stroke-width:60;stroke-linecap:round;stroke-linejoin:round;stroke-opacity:1"
       id="g294">
      <text
         x="62050"
         y="39500"
         textLength="1580"
         font-size="660px"
         lengthAdjust="spacingAndGlyphs"
         text-anchor="middle"
         opacity="0"
         id="text286">GND</text>
      <path
         d="m 61660,39000 -40,-30 h -70 l -80,30 -40,40 -30,50 -20,100 v 70 l 20,90 30,50 40,50 80,20 h 40 l 70,-20 30,-30 v -160 h -100"
         id="path288" />
      <path
         d="m 61900,39470 v -500 l 290,500 v -500"
         id="path290" />
      <path
         d="m 62430,39470 v -500 h 120 l 70,30 40,40 30,50 20,100 v 70 l -20,90 -30,50 -40,50 -70,20 h -120"
         id="path292" />
    </g>
  </g>
  <g
     style="fill:#008484;fill-opacity:0;stroke:#008484;stroke-width:0;stroke-linecap:round;stroke-linejoin:round;stroke-opacity:1"
     id="g356"
     transform="translate(-44241.496,-29511.496)">
    <g
       id="g298" />
    <g
       style="fill:#840000;fill-opacity:0;stroke:#840000;stroke-width:0;stroke-linecap:round;stroke-linejoin:round;stroke-opacity:1"
       id="g300" />
    <g
       style="fill:#840000;fill-opacity:0;stroke:#840000;stroke-width:60;stroke-linecap:round;stroke-linejoin:round;stroke-opacity:1"
       id="g324">
      <path
         d="m 56502.2,37250 a 1250,1250 0 0 0 0,-2500"
         id="path302" />
      <path
         style="fill:none;fill-opacity:0;stroke:#840000;stroke-width:60;stroke-linecap:round;stroke-linejoin:round;stroke-opacity:1"
         d="m 55850,35250 h 200"
         id="path304" />
      <path
         style="fill:none;fill-opacity:0;stroke:#840000;stroke-width:60;stroke-linecap:round;stroke-linejoin:round;stroke-opacity:1"
         d="m 55950,35150 v 200"
         id="path306" />
      <path
         style="fill:none;fill-opacity:0;stroke:#840000;stroke-width:60;stroke-linecap:round;stroke-linejoin:round;stroke-opacity:1"
         d="m 56500,34750 v 2500"
         id="path308" />
      <path
         d="M 56500,35000 H 55500"
         id="path310" />
      <text
         x="56000"
         y="34900"
         textLength="540"
         font-size="660px"
         lengthAdjust="spacingAndGlyphs"
         text-anchor="middle"
         opacity="0"
         id="text312">1</text>
      <path
         d="m 56140,34870 h -290"
         id="path314" />
      <path
         d="m 56000,34870 v -500 l -50,70 -50,50 -50,20"
         id="path316" />
      <path
         d="M 56500,37000 H 55500"
         id="path318" />
      <text
         x="56000"
         y="36900"
         textLength="540"
         font-size="660px"
         lengthAdjust="spacingAndGlyphs"
         text-anchor="middle"
         opacity="0"
         id="text320">2</text>
      <path
         d="m 55850,36420 30,-20 40,-30 h 120 l 50,30 20,20 30,50 v 40 l -30,80 -280,280 h 310"
         id="path322" />
    </g>
    <g
       style="fill:#008484;fill-opacity:0;stroke:#008484;stroke-width:60;stroke-linecap:round;stroke-linejoin:round;stroke-opacity:1"
       id="g354">
      <text
         x="58770"
         y="35980"
         textLength="1510"
         font-size="660px"
         lengthAdjust="spacingAndGlyphs"
         text-anchor="middle"
         opacity="0"
         id="text326">BZ1</text>
      <path
         d="m 58320,35690 80,20 20,30 20,40 v 80 l -20,40 -20,30 -50,20 h -190 v -500 h 160 l 50,30 30,20 20,50 v 40 l -20,50 -30,30 -50,20 h -160"
         id="path328" />
      <path
         d="m 58610,35450 h 330 l -330,500 h 330"
         id="path330" />
      <path
         d="m 59400,35950 h -290"
         id="path332" />
      <path
         d="m 59250,35950 v -500 l -40,70 -50,50 -50,20"
         id="path334" />
      <text
         x="59300"
         y="36890"
         textLength="2560"
         font-size="660px"
         lengthAdjust="spacingAndGlyphs"
         text-anchor="middle"
         opacity="0"
         id="text336">Buzzer</text>
      <path
         d="m 58330,36600 70,20 30,30 20,40 v 80 l -20,40 -30,30 -50,20 h -190 v -500 h 170 l 50,30 20,20 30,50 v 40 l -30,50 -20,30 -50,20 h -170"
         id="path338" />
      <path
         d="m 58880,36530 v 330"
         id="path340" />
      <path
         d="m 58660,36530 v 260 l 30,50 50,20 h 70 l 40,-20 30,-30"
         id="path342" />
      <path
         d="m 59070,36530 h 260 l -260,330 h 260"
         id="path344" />
      <path
         d="m 59470,36530 h 270 l -270,330 h 270"
         id="path346" />
      <path
         d="m 60120,36840 -50,20 h -100 l -40,-20 -30,-50 v -190 l 30,-50 40,-20 h 100 l 50,20 20,50 v 50 l -240,40"
         id="path348" />
      <path
         d="m 60350,36860 v -330"
         id="path350" />
      <path
         d="m 60350,36620 30,-40 20,-30 50,-20 h 50"
         id="path352" />
    </g>
  </g>
  <g
     style="fill:#008484;fill-opacity:0;stroke:#008484;stroke-width:60;stroke-linecap:round;stroke-linejoin:round;stroke-opacity:1"
     id="g358"
     transform="translate(-44241.496,-29511.496)" />
  <g
     style="fill:#008400;fill-opacity:0;stroke:#008400;stroke-width:60;stroke-linecap:round;stroke-linejoin:round;stroke-opacity:1"
     id="g374"
     transform="translate(-44241.496,-29511.496)">
    <path
       d="m 55500,34000 v -500"
       id="path360" />
    <path
       d="m 62000,34000 v 500"
       id="path362" />
    <path
       d="m 55500,34000 h 6500"
       id="path364" />
    <path
       d="M 55500,35000 V 34000"
       id="path366" />
    <path
       d="m 52000,39000 h 500"
       id="path368" />
    <path
       d="m 52000,39500 v -500"
       id="path370" />
    <path
       d="m 51500,39000 h 500"
       id="path372" />
  </g>
  <g
     style="fill:#840000;fill-opacity:0;stroke:#840000;stroke-width:60;stroke-linecap:round;stroke-linejoin:round;stroke-opacity:1"
     id="g386"
     transform="translate(-44241.496,-29511.496)">
    <text
       x="48190"
       y="39250"
       textLength="1820"
       font-size="660px"
       lengthAdjust="spacingAndGlyphs"
       text-anchor="end"
       opacity="0"
       id="text376">GPIO</text>
    <path
       d="m 46770,38750 -40,-30 h -70 l -80,30 -40,40 -30,50 -20,100 v 70 l 20,90 30,50 40,50 80,20 h 40 l 70,-20 30,-30 v -160 h -100"
       id="path378" />
    <path
       d="m 47010,39220 v -500 h 190 l 50,30 20,20 30,50 v 70 l -30,50 -20,20 -50,20 h -190"
       id="path380" />
    <path
       d="m 47510,39220 v -500"
       id="path382" />
    <path
       d="m 47850,38720 h 90 l 50,30 50,40 20,100 v 160 l -20,100 -50,50 -50,20 h -90 l -50,-20 -50,-50 -20,-100 v -160 l 20,-100 50,-40 50,-30"
       id="path384" />
  </g>
  <g
     style="fill:#840000;fill-opacity:0;stroke:#840000;stroke-width:100;stroke-linecap:round;stroke-linejoin:round;stroke-opacity:1"
     id="g390"
     transform="translate(-44241.496,-29511.496)">
    <path
       style="fill:none;fill-opacity:0;stroke:#840000;stroke-width:100;stroke-linecap:round;stroke-linejoin:round;stroke-opacity:1"
       d="m 48500,39000 -250,-440 h -1990 v 440 440 h 1990 z"
       id="path388" />
  </g>
  <g
     style="fill:#840000;fill-opacity:0;stroke:#840000;stroke-width:0;stroke-linecap:round;stroke-linejoin:round;stroke-opacity:1"
     id="g392"
     transform="translate(-44241.496,-29511.496)" />
  <g
     style="fill:#008400;fill-opacity:0;stroke:#008400;stroke-width:0;stroke-linecap:round;stroke-linejoin:round;stroke-opacity:1"
     id="g394"
     transform="translate(-44241.496,-29511.496)" />
  <g
     style="fill:#008400;fill-opacity:1;stroke:#008400;stroke-width:100;stroke-linecap:round;stroke-linejoin:round;stroke-opacity:1"
     id="g398"
     transform="translate(-44241.496,-29511.496)">
    <circle
       cx="52000"
       cy="39000"
       r="200"
       id="circle396" />
  </g>
  <g
     style="fill:#008400;fill-opacity:1;stroke:#008400;stroke-width:0;stroke-linecap:round;stroke-linejoin:round;stroke-opacity:1"
     id="g400"
     transform="translate(-44241.496,-29511.496)" />
  <g
     style="fill:#008400;fill-opacity:1;stroke:#008400;stroke-width:100;stroke-linecap:round;stroke-linejoin:round;stroke-opacity:1"
     id="g404"
     transform="translate(-44241.496,-29511.496)">
    <circle
       cx="55500"
       cy="34000"
       r="200"
       id="circle402" />
  </g>
</svg>
